solid OpenSCAD_Model
  facet normal -0.998795 -0.0490677 0
    outer loop
      vertex -24.8796 -2.45043 0.75
      vertex -25 3.06162e-15 0.75
      vertex -25 3.06162e-15 -0.75
    endloop
  endfacet
  facet normal -0.998795 -0.0490677 0
    outer loop
      vertex -24.8796 -2.45043 -0.75
      vertex -24.8796 -2.45043 0.75
      vertex -25 3.06162e-15 -0.75
    endloop
  endfacet
  facet normal 0 0 -1
    outer loop
      vertex -24.5196 -4.87726 -0.75
      vertex -24.8796 -2.45043 -0.75
      vertex -8.93918 -1 -0.75
    endloop
  endfacet
  facet normal -0 0 -1
    outer loop
      vertex -8.95666 -0.882154 -0.75
      vertex -24.8796 -2.45043 -0.75
      vertex -25 3.06162e-15 -0.75
    endloop
  endfacet
  facet normal 0 0 -1
    outer loop
      vertex -9 1.10218e-15 -0.75
      vertex -25 3.06162e-15 -0.75
      vertex -24.8796 2.45043 -0.75
    endloop
  endfacet
  facet normal 0 0 -1
    outer loop
      vertex -8.93918 1 -0.75
      vertex -24.5196 4.87726 -0.75
      vertex -23.9235 7.25712 -0.75
    endloop
  endfacet
  facet normal 0 0 -1
    outer loop
      vertex -11.7849 -22.048 -0.75
      vertex -13.8893 -20.7867 -0.75
      vertex -3.53548 -6.61441 -0.75
    endloop
  endfacet
  facet normal 0 0 -1
    outer loop
      vertex 11.7849 -22.048 -0.75
      vertex 1 -8.93918 -0.75
      vertex 3.53548 -6.61441 -0.75
    endloop
  endfacet
  facet normal 0 0 -1
    outer loop
      vertex -25 3.06162e-15 -0.75
      vertex -9 1.10218e-15 -0.75
      vertex -8.95666 -0.882154 -0.75
    endloop
  endfacet
  facet normal 0 0 -1
    outer loop
      vertex -11.7849 -22.048 -0.75
      vertex -1 -8.93918 -0.75
      vertex -9.56709 -23.097 -0.75
    endloop
  endfacet
  facet normal 0 0 -1
    outer loop
      vertex -20.7867 -13.8893 -0.75
      vertex -22.048 -11.7849 -0.75
      vertex -6.23602 -4.16678 -0.75
    endloop
  endfacet
  facet normal 0 0 -1
    outer loop
      vertex -15.8598 -19.3253 -0.75
      vertex -4.75795 -5.79758 -0.75
      vertex -13.8893 -20.7867 -0.75
    endloop
  endfacet
  facet normal 0 0 -1
    outer loop
      vertex -17.6777 -17.6777 -0.75
      vertex -5.3033 -5.3033 -0.75
      vertex -15.8598 -19.3253 -0.75
    endloop
  endfacet
  facet normal 0 0 -1
    outer loop
      vertex -19.3253 -15.8598 -0.75
      vertex -5.3033 -5.3033 -0.75
      vertex -17.6777 -17.6777 -0.75
    endloop
  endfacet
  facet normal 0 0 -1
    outer loop
      vertex -20.7867 -13.8893 -0.75
      vertex -6.23602 -4.16678 -0.75
      vertex -19.3253 -15.8598 -0.75
    endloop
  endfacet
  facet normal 0 0 -1
    outer loop
      vertex -23.097 -9.56709 -0.75
      vertex -23.9235 -7.25712 -0.75
      vertex -8.93918 -1 -0.75
    endloop
  endfacet
  facet normal 0 0 -1
    outer loop
      vertex -23.097 -9.56709 -0.75
      vertex -8.93918 -1 -0.75
      vertex -22.048 -11.7849 -0.75
    endloop
  endfacet
  facet normal 0 0 -1
    outer loop
      vertex -23.9235 -7.25712 -0.75
      vertex -24.5196 -4.87726 -0.75
      vertex -8.93918 -1 -0.75
    endloop
  endfacet
  facet normal 0 0 -1
    outer loop
      vertex -24.8796 2.45043 -0.75
      vertex -24.5196 4.87726 -0.75
      vertex -8.93918 1 -0.75
    endloop
  endfacet
  facet normal 0 0 -1
    outer loop
      vertex -9.56709 -23.097 -0.75
      vertex -1 -8.93918 -0.75
      vertex -7.25712 -23.9235 -0.75
    endloop
  endfacet
  facet normal 0 0 -1
    outer loop
      vertex -2.45043 -24.8796 -0.75
      vertex -4.87726 -24.5196 -0.75
      vertex -1 -8.93918 -0.75
    endloop
  endfacet
  facet normal 0 -0 -1
    outer loop
      vertex -8.95666 -0.882154 -0.75
      vertex -8.93918 -1 -0.75
      vertex -24.8796 -2.45043 -0.75
    endloop
  endfacet
  facet normal 0 0 -1
    outer loop
      vertex -1 -8.93918 -0.75
      vertex -4.87726 -24.5196 -0.75
      vertex -7.25712 -23.9235 -0.75
    endloop
  endfacet
  facet normal -0 0 -1
    outer loop
      vertex -6.61441 -3.53548 -0.75
      vertex -22.048 -11.7849 -0.75
      vertex -8.93918 -1 -0.75
    endloop
  endfacet
  facet normal 0 0 -1
    outer loop
      vertex -8.93918 -1 -0.75
      vertex -7.35589 -1.46318 -0.75
      vertex -7.17705 -2.17714 -0.75
    endloop
  endfacet
  facet normal 0 0 -1
    outer loop
      vertex -7.35589 -1.46318 -0.75
      vertex -8.93918 -1 -0.75
      vertex -7.4246 -1 -0.75
    endloop
  endfacet
  facet normal 0 0 -1
    outer loop
      vertex -1.46318 -7.35589 -0.75
      vertex -1 -7.4246 -0.75
      vertex -1 -8.93918 -0.75
    endloop
  endfacet
  facet normal 0 0 -1
    outer loop
      vertex 4.87726 -24.5196 -0.75
      vertex 1 -8.93918 -0.75
      vertex 7.25712 -23.9235 -0.75
    endloop
  endfacet
  facet normal -0 -0 -1
    outer loop
      vertex -7.17705 -2.17714 -0.75
      vertex -6.9291 -2.87013 -0.75
      vertex -8.93918 -1 -0.75
    endloop
  endfacet
  facet normal -0 0 -1
    outer loop
      vertex 4.87726 -24.5196 -0.75
      vertex 2.45043 -24.8796 -0.75
      vertex 1 -8.93918 -0.75
    endloop
  endfacet
  facet normal 0 0 -1
    outer loop
      vertex -22.048 -11.7849 -0.75
      vertex -6.61441 -3.53548 -0.75
      vertex -6.23602 -4.16678 -0.75
    endloop
  endfacet
  facet normal 0 0 -1
    outer loop
      vertex -6.61441 -3.53548 -0.75
      vertex -8.93918 -1 -0.75
      vertex -6.9291 -2.87013 -0.75
    endloop
  endfacet
  facet normal 0 0 -1
    outer loop
      vertex 1 -8.93918 -0.75
      vertex 9.56709 -23.097 -0.75
      vertex 7.25712 -23.9235 -0.75
    endloop
  endfacet
  facet normal 0 0 -1
    outer loop
      vertex 11.7849 -22.048 -0.75
      vertex 4.16678 -6.23602 -0.75
      vertex 13.8893 -20.7867 -0.75
    endloop
  endfacet
  facet normal 0 -0 -1
    outer loop
      vertex -6.23602 -4.16678 -0.75
      vertex -5.79758 -4.75795 -0.75
      vertex -19.3253 -15.8598 -0.75
    endloop
  endfacet
  facet normal -0 0 -1
    outer loop
      vertex 11.7849 -22.048 -0.75
      vertex 9.56709 -23.097 -0.75
      vertex 1 -8.93918 -0.75
    endloop
  endfacet
  facet normal 0 0 -1
    outer loop
      vertex -15.8598 -19.3253 -0.75
      vertex -5.3033 -5.3033 -0.75
      vertex -4.75795 -5.79758 -0.75
    endloop
  endfacet
  facet normal -0 0 -1
    outer loop
      vertex -5.3033 -5.3033 -0.75
      vertex -19.3253 -15.8598 -0.75
      vertex -5.79758 -4.75795 -0.75
    endloop
  endfacet
  facet normal 0 0 -1
    outer loop
      vertex 4.75795 -5.79758 -0.75
      vertex 15.8598 -19.3253 -0.75
      vertex 13.8893 -20.7867 -0.75
    endloop
  endfacet
  facet normal 0 0 -1
    outer loop
      vertex 17.6777 -17.6777 -0.75
      vertex 5.79758 -4.75795 -0.75
      vertex 19.3253 -15.8598 -0.75
    endloop
  endfacet
  facet normal 0 -0 -1
    outer loop
      vertex -4.75795 -5.79758 -0.75
      vertex -4.16678 -6.23602 -0.75
      vertex -13.8893 -20.7867 -0.75
    endloop
  endfacet
  facet normal -0 0 -1
    outer loop
      vertex 17.6777 -17.6777 -0.75
      vertex 15.8598 -19.3253 -0.75
      vertex 4.75795 -5.79758 -0.75
    endloop
  endfacet
  facet normal 0 0 -1
    outer loop
      vertex -11.7849 -22.048 -0.75
      vertex -3.53548 -6.61441 -0.75
      vertex -1 -8.93918 -0.75
    endloop
  endfacet
  facet normal -0 0 -1
    outer loop
      vertex -3.53548 -6.61441 -0.75
      vertex -13.8893 -20.7867 -0.75
      vertex -4.16678 -6.23602 -0.75
    endloop
  endfacet
  facet normal 0 0 -1
    outer loop
      vertex 22.048 -11.7849 -0.75
      vertex 8.93918 -1 -0.75
      vertex 23.097 -9.56709 -0.75
    endloop
  endfacet
  facet normal -0 -0 -1
    outer loop
      vertex -2.87013 -6.9291 -0.75
      vertex -1 -8.93918 -0.75
      vertex -3.53548 -6.61441 -0.75
    endloop
  endfacet
  facet normal -0 0 -1
    outer loop
      vertex 22.048 -11.7849 -0.75
      vertex 20.7867 -13.8893 -0.75
      vertex 6.23602 -4.16678 -0.75
    endloop
  endfacet
  facet normal 0 0 -1
    outer loop
      vertex -2.17714 -7.17705 -0.75
      vertex -1.46318 -7.35589 -0.75
      vertex -1 -8.93918 -0.75
    endloop
  endfacet
  facet normal 0 0 -1
    outer loop
      vertex -1 -8.93918 -0.75
      vertex -2.87013 -6.9291 -0.75
      vertex -2.17714 -7.17705 -0.75
    endloop
  endfacet
  facet normal -0 0 -1
    outer loop
      vertex 24.5196 -4.87726 -0.75
      vertex 23.9235 -7.25712 -0.75
      vertex 8.93918 -1 -0.75
    endloop
  endfacet
  facet normal 0 0 -1
    outer loop
      vertex -2.45043 -24.8796 -0.75
      vertex -0.882154 -8.95666 -0.75
      vertex -4.59243e-15 -25 -0.75
    endloop
  endfacet
  facet normal 0 -0 -1
    outer loop
      vertex -1.65327e-15 -9 -0.75
      vertex 2.45043 -24.8796 -0.75
      vertex -4.59243e-15 -25 -0.75
    endloop
  endfacet
  facet normal 0 -0 -1
    outer loop
      vertex -1 -8.93918 -0.75
      vertex -0.882154 -8.95666 -0.75
      vertex -2.45043 -24.8796 -0.75
    endloop
  endfacet
  facet normal 0 0 -1
    outer loop
      vertex 5.79758 -4.75795 -0.75
      vertex 20.7867 -13.8893 -0.75
      vertex 19.3253 -15.8598 -0.75
    endloop
  endfacet
  facet normal -0 0 -1
    outer loop
      vertex -1.65327e-15 -9 -0.75
      vertex -4.59243e-15 -25 -0.75
      vertex -0.882154 -8.95666 -0.75
    endloop
  endfacet
  facet normal 0 0 -1
    outer loop
      vertex -1.65327e-15 -9 -0.75
      vertex 0.882154 -8.95666 -0.75
      vertex 2.45043 -24.8796 -0.75
    endloop
  endfacet
  facet normal 0 0 -1
    outer loop
      vertex 8.93918 -1 -0.75
      vertex 23.9235 -7.25712 -0.75
      vertex 23.097 -9.56709 -0.75
    endloop
  endfacet
  facet normal 0 0 -1
    outer loop
      vertex 1 -8.93918 -0.75
      vertex 1 -7.4246 -0.75
      vertex 1.46318 -7.35589 -0.75
    endloop
  endfacet
  facet normal 0 -0 -1
    outer loop
      vertex 1 -8.93918 -0.75
      vertex 2.45043 -24.8796 -0.75
      vertex 0.882154 -8.95666 -0.75
    endloop
  endfacet
  facet normal 0 0 -1
    outer loop
      vertex 24.5196 -4.87726 -0.75
      vertex 8.93918 -1 -0.75
      vertex 24.8796 -2.45043 -0.75
    endloop
  endfacet
  facet normal -0 0 -1
    outer loop
      vertex 24.8796 2.45043 -0.75
      vertex 8.93918 1 -0.75
      vertex 24.5196 4.87726 -0.75
    endloop
  endfacet
  facet normal 0 -0 -1
    outer loop
      vertex 1.46318 -7.35589 -0.75
      vertex 2.17714 -7.17705 -0.75
      vertex 1 -8.93918 -0.75
    endloop
  endfacet
  facet normal 0 -0 -1
    outer loop
      vertex 24.8796 2.45043 -0.75
      vertex 25 0 -0.75
      vertex 8.95666 0.882154 -0.75
    endloop
  endfacet
  facet normal 0 0 -1
    outer loop
      vertex 1 -8.93918 -0.75
      vertex 2.87013 -6.9291 -0.75
      vertex 3.53548 -6.61441 -0.75
    endloop
  endfacet
  facet normal 0 0 -1
    outer loop
      vertex 2.87013 -6.9291 -0.75
      vertex 1 -8.93918 -0.75
      vertex 2.17714 -7.17705 -0.75
    endloop
  endfacet
  facet normal 0 0 -1
    outer loop
      vertex 8.93918 1 -0.75
      vertex 23.9235 7.25712 -0.75
      vertex 24.5196 4.87726 -0.75
    endloop
  endfacet
  facet normal -0 0 -1
    outer loop
      vertex 23.097 9.56709 -0.75
      vertex 8.93918 1 -0.75
      vertex 22.048 11.7849 -0.75
    endloop
  endfacet
  facet normal 0 0 -1
    outer loop
      vertex 3.53548 -6.61441 -0.75
      vertex 4.16678 -6.23602 -0.75
      vertex 11.7849 -22.048 -0.75
    endloop
  endfacet
  facet normal 0 -0 -1
    outer loop
      vertex 23.097 9.56709 -0.75
      vertex 23.9235 7.25712 -0.75
      vertex 8.93918 1 -0.75
    endloop
  endfacet
  facet normal 0 0 -1
    outer loop
      vertex 17.6777 -17.6777 -0.75
      vertex 4.75795 -5.79758 -0.75
      vertex 5.3033 -5.3033 -0.75
    endloop
  endfacet
  facet normal 0 -0 -1
    outer loop
      vertex 4.75795 -5.79758 -0.75
      vertex 13.8893 -20.7867 -0.75
      vertex 4.16678 -6.23602 -0.75
    endloop
  endfacet
  facet normal 0 0 -1
    outer loop
      vertex 6.61441 3.53548 -0.75
      vertex 20.7867 13.8893 -0.75
      vertex 22.048 11.7849 -0.75
    endloop
  endfacet
  facet normal -0 0 -1
    outer loop
      vertex 19.3253 15.8598 -0.75
      vertex 5.79758 4.75795 -0.75
      vertex 17.6777 17.6777 -0.75
    endloop
  endfacet
  facet normal 0 0 -1
    outer loop
      vertex 5.3033 -5.3033 -0.75
      vertex 5.79758 -4.75795 -0.75
      vertex 17.6777 -17.6777 -0.75
    endloop
  endfacet
  facet normal 0 -0 -1
    outer loop
      vertex 19.3253 15.8598 -0.75
      vertex 20.7867 13.8893 -0.75
      vertex 5.79758 4.75795 -0.75
    endloop
  endfacet
  facet normal 0 0 -1
    outer loop
      vertex 22.048 -11.7849 -0.75
      vertex 6.23602 -4.16678 -0.75
      vertex 6.61441 -3.53548 -0.75
    endloop
  endfacet
  facet normal 0 -0 -1
    outer loop
      vertex 6.23602 -4.16678 -0.75
      vertex 20.7867 -13.8893 -0.75
      vertex 5.79758 -4.75795 -0.75
    endloop
  endfacet
  facet normal 0 0 -1
    outer loop
      vertex 4.75795 5.79758 -0.75
      vertex 15.8598 19.3253 -0.75
      vertex 17.6777 17.6777 -0.75
    endloop
  endfacet
  facet normal -0 0 -1
    outer loop
      vertex 25 0 -0.75
      vertex 8.95666 -0.882154 -0.75
      vertex 9 0 -0.75
    endloop
  endfacet
  facet normal 0 0 -1
    outer loop
      vertex 6.61441 -3.53548 -0.75
      vertex 8.93918 -1 -0.75
      vertex 22.048 -11.7849 -0.75
    endloop
  endfacet
  facet normal 0 -0 -1
    outer loop
      vertex 13.8893 20.7867 -0.75
      vertex 15.8598 19.3253 -0.75
      vertex 4.75795 5.79758 -0.75
    endloop
  endfacet
  facet normal 0 0 -1
    outer loop
      vertex 6.9291 -2.87013 -0.75
      vertex 7.17705 -2.17714 -0.75
      vertex 8.93918 -1 -0.75
    endloop
  endfacet
  facet normal 0 0 -1
    outer loop
      vertex 8.93918 -1 -0.75
      vertex 6.61441 -3.53548 -0.75
      vertex 6.9291 -2.87013 -0.75
    endloop
  endfacet
  facet normal 0 0 -1
    outer loop
      vertex 1 8.93918 -0.75
      vertex 9.56709 23.097 -0.75
      vertex 11.7849 22.048 -0.75
    endloop
  endfacet
  facet normal 0 -0 -1
    outer loop
      vertex 7.35589 -1.46318 -0.75
      vertex 8.93918 -1 -0.75
      vertex 7.17705 -2.17714 -0.75
    endloop
  endfacet
  facet normal 0 -0 -1
    outer loop
      vertex 7.25712 23.9235 -0.75
      vertex 9.56709 23.097 -0.75
      vertex 1 8.93918 -0.75
    endloop
  endfacet
  facet normal 0 -0 -1
    outer loop
      vertex 7.4246 -1 -0.75
      vertex 8.93918 -1 -0.75
      vertex 7.35589 -1.46318 -0.75
    endloop
  endfacet
  facet normal 0 0 -1
    outer loop
      vertex 8.95666 -0.882154 -0.75
      vertex 25 0 -0.75
      vertex 24.8796 -2.45043 -0.75
    endloop
  endfacet
  facet normal 0 -0 -1
    outer loop
      vertex 8.95666 -0.882154 -0.75
      vertex 24.8796 -2.45043 -0.75
      vertex 8.93918 -1 -0.75
    endloop
  endfacet
  facet normal -0 0 -1
    outer loop
      vertex 13.8893 20.7867 -0.75
      vertex 3.53548 6.61441 -0.75
      vertex 11.7849 22.048 -0.75
    endloop
  endfacet
  facet normal 0 0 -1
    outer loop
      vertex 24.8796 2.45043 -0.75
      vertex 8.95666 0.882154 -0.75
      vertex 8.93918 1 -0.75
    endloop
  endfacet
  facet normal 0 0 -1
    outer loop
      vertex 8.95666 0.882154 -0.75
      vertex 25 0 -0.75
      vertex 9 0 -0.75
    endloop
  endfacet
  facet normal -0 0 -1
    outer loop
      vertex 7.25712 23.9235 -0.75
      vertex 1 8.93918 -0.75
      vertex 4.87726 24.5196 -0.75
    endloop
  endfacet
  facet normal 0 -0 -1
    outer loop
      vertex 1.53081e-15 25 -0.75
      vertex 2.45043 24.8796 -0.75
      vertex 5.51091e-16 9 -0.75
    endloop
  endfacet
  facet normal 0 0 -1
    outer loop
      vertex 6.61441 3.53548 -0.75
      vertex 22.048 11.7849 -0.75
      vertex 8.93918 1 -0.75
    endloop
  endfacet
  facet normal 0 0 -1
    outer loop
      vertex 7.4246 1 -0.75
      vertex 7.35589 1.46318 -0.75
      vertex 8.93918 1 -0.75
    endloop
  endfacet
  facet normal 0 0 -1
    outer loop
      vertex 1 8.93918 -0.75
      vertex 2.45043 24.8796 -0.75
      vertex 4.87726 24.5196 -0.75
    endloop
  endfacet
  facet normal 0 0 -1
    outer loop
      vertex 8.93918 1 -0.75
      vertex 7.17705 2.17714 -0.75
      vertex 6.9291 2.87013 -0.75
    endloop
  endfacet
  facet normal 0 0 -1
    outer loop
      vertex 7.17705 2.17714 -0.75
      vertex 8.93918 1 -0.75
      vertex 7.35589 1.46318 -0.75
    endloop
  endfacet
  facet normal 0 0 -1
    outer loop
      vertex -1 8.93918 -0.75
      vertex -4.87726 24.5196 -0.75
      vertex -2.45043 24.8796 -0.75
    endloop
  endfacet
  facet normal 0 -0 -1
    outer loop
      vertex -7.25712 23.9235 -0.75
      vertex -1 8.93918 -0.75
      vertex -9.56709 23.097 -0.75
    endloop
  endfacet
  facet normal 0 0 -1
    outer loop
      vertex 6.9291 2.87013 -0.75
      vertex 6.61441 3.53548 -0.75
      vertex 8.93918 1 -0.75
    endloop
  endfacet
  facet normal 0 0 -1
    outer loop
      vertex -7.25712 23.9235 -0.75
      vertex -4.87726 24.5196 -0.75
      vertex -1 8.93918 -0.75
    endloop
  endfacet
  facet normal 0 0 -1
    outer loop
      vertex 20.7867 13.8893 -0.75
      vertex 6.23602 4.16678 -0.75
      vertex 5.79758 4.75795 -0.75
    endloop
  endfacet
  facet normal 0 0 -1
    outer loop
      vertex 6.23602 4.16678 -0.75
      vertex 20.7867 13.8893 -0.75
      vertex 6.61441 3.53548 -0.75
    endloop
  endfacet
  facet normal 0 0 -1
    outer loop
      vertex -1 8.93918 -0.75
      vertex -11.7849 22.048 -0.75
      vertex -9.56709 23.097 -0.75
    endloop
  endfacet
  facet normal 0 0 -1
    outer loop
      vertex 5.79758 4.75795 -0.75
      vertex 5.3033 5.3033 -0.75
      vertex 17.6777 17.6777 -0.75
    endloop
  endfacet
  facet normal 0 0 -1
    outer loop
      vertex 5.3033 5.3033 -0.75
      vertex 4.75795 5.79758 -0.75
      vertex 17.6777 17.6777 -0.75
    endloop
  endfacet
  facet normal 0 0 -1
    outer loop
      vertex -13.8893 20.7867 -0.75
      vertex -11.7849 22.048 -0.75
      vertex -4.16678 6.23602 -0.75
    endloop
  endfacet
  facet normal 0 0 -1
    outer loop
      vertex 4.75795 5.79758 -0.75
      vertex 4.16678 6.23602 -0.75
      vertex 13.8893 20.7867 -0.75
    endloop
  endfacet
  facet normal 0 0 -1
    outer loop
      vertex 4.16678 6.23602 -0.75
      vertex 3.53548 6.61441 -0.75
      vertex 13.8893 20.7867 -0.75
    endloop
  endfacet
  facet normal 0 0 -1
    outer loop
      vertex -15.8598 19.3253 -0.75
      vertex -13.8893 20.7867 -0.75
      vertex -4.75795 5.79758 -0.75
    endloop
  endfacet
  facet normal 0 0 -1
    outer loop
      vertex 3.53548 6.61441 -0.75
      vertex 1 8.93918 -0.75
      vertex 11.7849 22.048 -0.75
    endloop
  endfacet
  facet normal 0 0 -1
    outer loop
      vertex 2.87013 6.9291 -0.75
      vertex 1 8.93918 -0.75
      vertex 3.53548 6.61441 -0.75
    endloop
  endfacet
  facet normal 0 0 -1
    outer loop
      vertex 2.17714 7.17705 -0.75
      vertex 1 8.93918 -0.75
      vertex 2.87013 6.9291 -0.75
    endloop
  endfacet
  facet normal 0 0 -1
    outer loop
      vertex -17.6777 17.6777 -0.75
      vertex -15.8598 19.3253 -0.75
      vertex -4.75795 5.79758 -0.75
    endloop
  endfacet
  facet normal 0 0 -1
    outer loop
      vertex 1.46318 7.35589 -0.75
      vertex 1 8.93918 -0.75
      vertex 2.17714 7.17705 -0.75
    endloop
  endfacet
  facet normal 0 0 -1
    outer loop
      vertex 1.53081e-15 25 -0.75
      vertex -0.882154 8.95666 -0.75
      vertex -2.45043 24.8796 -0.75
    endloop
  endfacet
  facet normal 0 -0 -1
    outer loop
      vertex 1 8.93918 -0.75
      vertex 1.46318 7.35589 -0.75
      vertex 1 7.4246 -0.75
    endloop
  endfacet
  facet normal 0 0 -1
    outer loop
      vertex 0.882154 8.95666 -0.75
      vertex 2.45043 24.8796 -0.75
      vertex 1 8.93918 -0.75
    endloop
  endfacet
  facet normal 0 0 -1
    outer loop
      vertex 0.882154 8.95666 -0.75
      vertex 5.51091e-16 9 -0.75
      vertex 2.45043 24.8796 -0.75
    endloop
  endfacet
  facet normal 0 0 -1
    outer loop
      vertex -11.7849 22.048 -0.75
      vertex -1 8.93918 -0.75
      vertex -3.53548 6.61441 -0.75
    endloop
  endfacet
  facet normal -0 0 -1
    outer loop
      vertex 5.51091e-16 9 -0.75
      vertex -0.882154 8.95666 -0.75
      vertex 1.53081e-15 25 -0.75
    endloop
  endfacet
  facet normal -0 0 -1
    outer loop
      vertex -0.882154 8.95666 -0.75
      vertex -1 8.93918 -0.75
      vertex -2.45043 24.8796 -0.75
    endloop
  endfacet
  facet normal 0 0 -1
    outer loop
      vertex -5.79758 4.75795 -0.75
      vertex -19.3253 15.8598 -0.75
      vertex -17.6777 17.6777 -0.75
    endloop
  endfacet
  facet normal 0 0 -1
    outer loop
      vertex -1.46318 7.35589 -0.75
      vertex -1 8.93918 -0.75
      vertex -1 7.4246 -0.75
    endloop
  endfacet
  facet normal -0 0 -1
    outer loop
      vertex -1.46318 7.35589 -0.75
      vertex -2.17714 7.17705 -0.75
      vertex -1 8.93918 -0.75
    endloop
  endfacet
  facet normal -0 0 -1
    outer loop
      vertex -2.17714 7.17705 -0.75
      vertex -2.87013 6.9291 -0.75
      vertex -1 8.93918 -0.75
    endloop
  endfacet
  facet normal 0 0 -1
    outer loop
      vertex -6.23602 4.16678 -0.75
      vertex -20.7867 13.8893 -0.75
      vertex -19.3253 15.8598 -0.75
    endloop
  endfacet
  facet normal -0 0 -1
    outer loop
      vertex -2.87013 6.9291 -0.75
      vertex -3.53548 6.61441 -0.75
      vertex -1 8.93918 -0.75
    endloop
  endfacet
  facet normal -0 0 -1
    outer loop
      vertex -3.53548 6.61441 -0.75
      vertex -4.16678 6.23602 -0.75
      vertex -11.7849 22.048 -0.75
    endloop
  endfacet
  facet normal -0 0 -1
    outer loop
      vertex -4.16678 6.23602 -0.75
      vertex -4.75795 5.79758 -0.75
      vertex -13.8893 20.7867 -0.75
    endloop
  endfacet
  facet normal 0 0 -1
    outer loop
      vertex -6.23602 4.16678 -0.75
      vertex -22.048 11.7849 -0.75
      vertex -20.7867 13.8893 -0.75
    endloop
  endfacet
  facet normal -0 0 -1
    outer loop
      vertex -4.75795 5.79758 -0.75
      vertex -5.3033 5.3033 -0.75
      vertex -17.6777 17.6777 -0.75
    endloop
  endfacet
  facet normal -0 0 -1
    outer loop
      vertex -5.3033 5.3033 -0.75
      vertex -5.79758 4.75795 -0.75
      vertex -17.6777 17.6777 -0.75
    endloop
  endfacet
  facet normal -0 0 -1
    outer loop
      vertex -5.79758 4.75795 -0.75
      vertex -6.23602 4.16678 -0.75
      vertex -19.3253 15.8598 -0.75
    endloop
  endfacet
  facet normal 0 0 -1
    outer loop
      vertex -8.93918 1 -0.75
      vertex -23.097 9.56709 -0.75
      vertex -22.048 11.7849 -0.75
    endloop
  endfacet
  facet normal 0 0 -1
    outer loop
      vertex -6.61441 3.53548 -0.75
      vertex -22.048 11.7849 -0.75
      vertex -6.23602 4.16678 -0.75
    endloop
  endfacet
  facet normal 0 0 -1
    outer loop
      vertex -8.93918 1 -0.75
      vertex -22.048 11.7849 -0.75
      vertex -6.61441 3.53548 -0.75
    endloop
  endfacet
  facet normal -0 0 -1
    outer loop
      vertex -7.17705 2.17714 -0.75
      vertex -8.93918 1 -0.75
      vertex -6.9291 2.87013 -0.75
    endloop
  endfacet
  facet normal -0 0 -1
    outer loop
      vertex -7.35589 1.46318 -0.75
      vertex -8.93918 1 -0.75
      vertex -7.17705 2.17714 -0.75
    endloop
  endfacet
  facet normal 0 0 -1
    outer loop
      vertex -7.4246 1 -0.75
      vertex -8.93918 1 -0.75
      vertex -7.35589 1.46318 -0.75
    endloop
  endfacet
  facet normal -0 0 -1
    outer loop
      vertex -6.9291 2.87013 -0.75
      vertex -8.93918 1 -0.75
      vertex -6.61441 3.53548 -0.75
    endloop
  endfacet
  facet normal 0 0 -1
    outer loop
      vertex -8.93918 1 -0.75
      vertex -23.9235 7.25712 -0.75
      vertex -23.097 9.56709 -0.75
    endloop
  endfacet
  facet normal -0 0 -1
    outer loop
      vertex -8.93918 1 -0.75
      vertex -8.95666 0.882154 -0.75
      vertex -24.8796 2.45043 -0.75
    endloop
  endfacet
  facet normal -0 0 -1
    outer loop
      vertex -8.95666 0.882154 -0.75
      vertex -9 1.10218e-15 -0.75
      vertex -24.8796 2.45043 -0.75
    endloop
  endfacet
  facet normal 0.14673 -0.989177 0
    outer loop
      vertex 4.87726 -24.5196 -0.75
      vertex 2.45043 -24.8796 0.75
      vertex 2.45043 -24.8796 -0.75
    endloop
  endfacet
  facet normal 0.14673 -0.989177 0
    outer loop
      vertex 4.87726 -24.5196 -0.75
      vertex 4.87726 -24.5196 0.75
      vertex 2.45043 -24.8796 0.75
    endloop
  endfacet
  facet normal 0.671559 -0.740951 0
    outer loop
      vertex 17.6777 -17.6777 -0.75
      vertex 15.8598 -19.3253 0.75
      vertex 15.8598 -19.3253 -0.75
    endloop
  endfacet
  facet normal 0.671559 -0.740951 0
    outer loop
      vertex 17.6777 -17.6777 -0.75
      vertex 17.6777 -17.6777 0.75
      vertex 15.8598 -19.3253 0.75
    endloop
  endfacet
  facet normal 0.671559 0.740951 0
    outer loop
      vertex 15.8598 19.3253 0.75
      vertex 17.6777 17.6777 -0.75
      vertex 15.8598 19.3253 -0.75
    endloop
  endfacet
  facet normal 0.671559 0.740951 0
    outer loop
      vertex 15.8598 19.3253 0.75
      vertex 17.6777 17.6777 0.75
      vertex 17.6777 17.6777 -0.75
    endloop
  endfacet
  facet normal 0.24298 -0.970031 0
    outer loop
      vertex 7.25712 -23.9235 -0.75
      vertex 4.87726 -24.5196 0.75
      vertex 4.87726 -24.5196 -0.75
    endloop
  endfacet
  facet normal 0.24298 -0.970031 0
    outer loop
      vertex 7.25712 -23.9235 -0.75
      vertex 7.25712 -23.9235 0.75
      vertex 4.87726 -24.5196 0.75
    endloop
  endfacet
  facet normal -0.0490677 -0.998795 0
    outer loop
      vertex -4.59243e-15 -25 -0.75
      vertex -2.45043 -24.8796 0.75
      vertex -2.45043 -24.8796 -0.75
    endloop
  endfacet
  facet normal -0.0490677 -0.998795 0
    outer loop
      vertex -4.59243e-15 -25 -0.75
      vertex -4.59243e-15 -25 0.75
      vertex -2.45043 -24.8796 0.75
    endloop
  endfacet
  facet normal 0.998795 -0.0490677 0
    outer loop
      vertex 25 0 -0.75
      vertex 24.8796 -2.45043 0.75
      vertex 24.8796 -2.45043 -0.75
    endloop
  endfacet
  facet normal 0.998795 -0.0490677 0
    outer loop
      vertex 25 0 -0.75
      vertex 25 0 0.75
      vertex 24.8796 -2.45043 0.75
    endloop
  endfacet
  facet normal 0.514103 0.857729 0
    outer loop
      vertex 11.7849 22.048 0.75
      vertex 13.8893 20.7867 -0.75
      vertex 11.7849 22.048 -0.75
    endloop
  endfacet
  facet normal 0.514103 0.857729 0
    outer loop
      vertex 11.7849 22.048 0.75
      vertex 13.8893 20.7867 0.75
      vertex 13.8893 20.7867 -0.75
    endloop
  endfacet
  facet normal -0.803208 0.595699 0
    outer loop
      vertex -20.7867 13.8893 0.75
      vertex -19.3253 15.8598 -0.75
      vertex -20.7867 13.8893 -0.75
    endloop
  endfacet
  facet normal -0.803208 0.595699 0
    outer loop
      vertex -20.7867 13.8893 0.75
      vertex -19.3253 15.8598 0.75
      vertex -19.3253 15.8598 -0.75
    endloop
  endfacet
  facet normal -0.941544 0.33689 0
    outer loop
      vertex -23.9235 7.25712 0.75
      vertex -23.097 9.56709 -0.75
      vertex -23.9235 7.25712 -0.75
    endloop
  endfacet
  facet normal -0.941544 0.33689 0
    outer loop
      vertex -23.9235 7.25712 0.75
      vertex -23.097 9.56709 0.75
      vertex -23.097 9.56709 -0.75
    endloop
  endfacet
  facet normal -0.998795 0.0490677 0
    outer loop
      vertex -25 3.06162e-15 0.75
      vertex -24.8796 2.45043 -0.75
      vertex -25 3.06162e-15 -0.75
    endloop
  endfacet
  facet normal -0.998795 0.0490677 0
    outer loop
      vertex -25 3.06162e-15 0.75
      vertex -24.8796 2.45043 0.75
      vertex -24.8796 2.45043 -0.75
    endloop
  endfacet
  facet normal -0.33689 -0.941544 0
    outer loop
      vertex -7.25712 -23.9235 -0.75
      vertex -9.56709 -23.097 0.75
      vertex -9.56709 -23.097 -0.75
    endloop
  endfacet
  facet normal -0.33689 -0.941544 0
    outer loop
      vertex -7.25712 -23.9235 -0.75
      vertex -7.25712 -23.9235 0.75
      vertex -9.56709 -23.097 0.75
    endloop
  endfacet
  facet normal -0.671559 -0.740951 0
    outer loop
      vertex -15.8598 -19.3253 -0.75
      vertex -17.6777 -17.6777 0.75
      vertex -17.6777 -17.6777 -0.75
    endloop
  endfacet
  facet normal -0.671559 -0.740951 0
    outer loop
      vertex -15.8598 -19.3253 -0.75
      vertex -15.8598 -19.3253 0.75
      vertex -17.6777 -17.6777 0.75
    endloop
  endfacet
  facet normal -0.903989 -0.427555 0
    outer loop
      vertex -22.048 -11.7849 0.75
      vertex -23.097 -9.56709 0.75
      vertex -23.097 -9.56709 -0.75
    endloop
  endfacet
  facet normal -0.903989 -0.427555 0
    outer loop
      vertex -22.048 -11.7849 -0.75
      vertex -22.048 -11.7849 0.75
      vertex -23.097 -9.56709 -0.75
    endloop
  endfacet
  facet normal -0.941544 -0.33689 0
    outer loop
      vertex -23.097 -9.56709 0.75
      vertex -23.9235 -7.25712 0.75
      vertex -23.9235 -7.25712 -0.75
    endloop
  endfacet
  facet normal -0.941544 -0.33689 0
    outer loop
      vertex -23.097 -9.56709 -0.75
      vertex -23.097 -9.56709 0.75
      vertex -23.9235 -7.25712 -0.75
    endloop
  endfacet
  facet normal -0.970031 -0.24298 0
    outer loop
      vertex -23.9235 -7.25712 0.75
      vertex -24.5196 -4.87726 0.75
      vertex -24.5196 -4.87726 -0.75
    endloop
  endfacet
  facet normal -0.970031 -0.24298 0
    outer loop
      vertex -23.9235 -7.25712 -0.75
      vertex -23.9235 -7.25712 0.75
      vertex -24.5196 -4.87726 -0.75
    endloop
  endfacet
  facet normal -0.989177 -0.14673 0
    outer loop
      vertex -24.5196 -4.87726 0.75
      vertex -24.8796 -2.45043 0.75
      vertex -24.8796 -2.45043 -0.75
    endloop
  endfacet
  facet normal -0.989177 -0.14673 0
    outer loop
      vertex -24.5196 -4.87726 -0.75
      vertex -24.5196 -4.87726 0.75
      vertex -24.8796 -2.45043 -0.75
    endloop
  endfacet
  facet normal 0.427555 -0.903989 0
    outer loop
      vertex 11.7849 -22.048 -0.75
      vertex 9.56709 -23.097 0.75
      vertex 9.56709 -23.097 -0.75
    endloop
  endfacet
  facet normal 0.427555 -0.903989 0
    outer loop
      vertex 11.7849 -22.048 -0.75
      vertex 11.7849 -22.048 0.75
      vertex 9.56709 -23.097 0.75
    endloop
  endfacet
  facet normal 0.595699 -0.803208 0
    outer loop
      vertex 15.8598 -19.3253 -0.75
      vertex 13.8893 -20.7867 0.75
      vertex 13.8893 -20.7867 -0.75
    endloop
  endfacet
  facet normal 0.595699 -0.803208 0
    outer loop
      vertex 15.8598 -19.3253 -0.75
      vertex 15.8598 -19.3253 0.75
      vertex 13.8893 -20.7867 0.75
    endloop
  endfacet
  facet normal 0.514103 -0.857729 0
    outer loop
      vertex 13.8893 -20.7867 -0.75
      vertex 11.7849 -22.048 0.75
      vertex 11.7849 -22.048 -0.75
    endloop
  endfacet
  facet normal 0.514103 -0.857729 0
    outer loop
      vertex 13.8893 -20.7867 -0.75
      vertex 13.8893 -20.7867 0.75
      vertex 11.7849 -22.048 0.75
    endloop
  endfacet
  facet normal 0.970031 -0.24298 0
    outer loop
      vertex 24.5196 -4.87726 -0.75
      vertex 23.9235 -7.25712 0.75
      vertex 23.9235 -7.25712 -0.75
    endloop
  endfacet
  facet normal 0.970031 -0.24298 0
    outer loop
      vertex 24.5196 -4.87726 -0.75
      vertex 24.5196 -4.87726 0.75
      vertex 23.9235 -7.25712 0.75
    endloop
  endfacet
  facet normal 0.903989 -0.427555 0
    outer loop
      vertex 23.097 -9.56709 -0.75
      vertex 22.048 -11.7849 0.75
      vertex 22.048 -11.7849 -0.75
    endloop
  endfacet
  facet normal 0.903989 -0.427555 0
    outer loop
      vertex 23.097 -9.56709 -0.75
      vertex 23.097 -9.56709 0.75
      vertex 22.048 -11.7849 0.75
    endloop
  endfacet
  facet normal 0.941544 -0.33689 0
    outer loop
      vertex 23.9235 -7.25712 -0.75
      vertex 23.097 -9.56709 0.75
      vertex 23.097 -9.56709 -0.75
    endloop
  endfacet
  facet normal 0.941544 -0.33689 0
    outer loop
      vertex 23.9235 -7.25712 -0.75
      vertex 23.9235 -7.25712 0.75
      vertex 23.097 -9.56709 0.75
    endloop
  endfacet
  facet normal 0.803208 -0.595699 0
    outer loop
      vertex 20.7867 -13.8893 -0.75
      vertex 19.3253 -15.8598 0.75
      vertex 19.3253 -15.8598 -0.75
    endloop
  endfacet
  facet normal 0.803208 -0.595699 0
    outer loop
      vertex 20.7867 -13.8893 -0.75
      vertex 20.7867 -13.8893 0.75
      vertex 19.3253 -15.8598 0.75
    endloop
  endfacet
  facet normal 0.595699 0.803208 0
    outer loop
      vertex 13.8893 20.7867 0.75
      vertex 15.8598 19.3253 -0.75
      vertex 13.8893 20.7867 -0.75
    endloop
  endfacet
  facet normal 0.595699 0.803208 0
    outer loop
      vertex 13.8893 20.7867 0.75
      vertex 15.8598 19.3253 0.75
      vertex 15.8598 19.3253 -0.75
    endloop
  endfacet
  facet normal -0.14673 0.989177 0
    outer loop
      vertex -4.87726 24.5196 0.75
      vertex -2.45043 24.8796 -0.75
      vertex -4.87726 24.5196 -0.75
    endloop
  endfacet
  facet normal -0.14673 0.989177 0
    outer loop
      vertex -4.87726 24.5196 0.75
      vertex -2.45043 24.8796 0.75
      vertex -2.45043 24.8796 -0.75
    endloop
  endfacet
  facet normal 0.0490677 0.998795 0
    outer loop
      vertex 1.53081e-15 25 0.75
      vertex 2.45043 24.8796 -0.75
      vertex 1.53081e-15 25 -0.75
    endloop
  endfacet
  facet normal 0.0490677 0.998795 0
    outer loop
      vertex 1.53081e-15 25 0.75
      vertex 2.45043 24.8796 0.75
      vertex 2.45043 24.8796 -0.75
    endloop
  endfacet
  facet normal 0.24298 0.970031 0
    outer loop
      vertex 4.87726 24.5196 0.75
      vertex 7.25712 23.9235 -0.75
      vertex 4.87726 24.5196 -0.75
    endloop
  endfacet
  facet normal 0.24298 0.970031 0
    outer loop
      vertex 4.87726 24.5196 0.75
      vertex 7.25712 23.9235 0.75
      vertex 7.25712 23.9235 -0.75
    endloop
  endfacet
  facet normal 0.14673 0.989177 0
    outer loop
      vertex 2.45043 24.8796 0.75
      vertex 4.87726 24.5196 -0.75
      vertex 2.45043 24.8796 -0.75
    endloop
  endfacet
  facet normal 0.14673 0.989177 0
    outer loop
      vertex 2.45043 24.8796 0.75
      vertex 4.87726 24.5196 0.75
      vertex 4.87726 24.5196 -0.75
    endloop
  endfacet
  facet normal -0.427555 0.903989 0
    outer loop
      vertex -11.7849 22.048 0.75
      vertex -9.56709 23.097 -0.75
      vertex -11.7849 22.048 -0.75
    endloop
  endfacet
  facet normal -0.427555 0.903989 0
    outer loop
      vertex -11.7849 22.048 0.75
      vertex -9.56709 23.097 0.75
      vertex -9.56709 23.097 -0.75
    endloop
  endfacet
  facet normal -0.857729 0.514103 0
    outer loop
      vertex -22.048 11.7849 0.75
      vertex -20.7867 13.8893 -0.75
      vertex -22.048 11.7849 -0.75
    endloop
  endfacet
  facet normal -0.857729 0.514103 0
    outer loop
      vertex -22.048 11.7849 0.75
      vertex -20.7867 13.8893 0.75
      vertex -20.7867 13.8893 -0.75
    endloop
  endfacet
  facet normal -0.740951 0.671559 0
    outer loop
      vertex -19.3253 15.8598 0.75
      vertex -17.6777 17.6777 -0.75
      vertex -19.3253 15.8598 -0.75
    endloop
  endfacet
  facet normal -0.740951 0.671559 0
    outer loop
      vertex -19.3253 15.8598 0.75
      vertex -17.6777 17.6777 0.75
      vertex -17.6777 17.6777 -0.75
    endloop
  endfacet
  facet normal -0.903989 0.427555 0
    outer loop
      vertex -23.097 9.56709 0.75
      vertex -22.048 11.7849 -0.75
      vertex -23.097 9.56709 -0.75
    endloop
  endfacet
  facet normal -0.903989 0.427555 0
    outer loop
      vertex -23.097 9.56709 0.75
      vertex -22.048 11.7849 0.75
      vertex -22.048 11.7849 -0.75
    endloop
  endfacet
  facet normal -0.970031 0.24298 0
    outer loop
      vertex -24.5196 4.87726 0.75
      vertex -23.9235 7.25712 -0.75
      vertex -24.5196 4.87726 -0.75
    endloop
  endfacet
  facet normal -0.970031 0.24298 0
    outer loop
      vertex -24.5196 4.87726 0.75
      vertex -23.9235 7.25712 0.75
      vertex -23.9235 7.25712 -0.75
    endloop
  endfacet
  facet normal -0.595699 -0.803208 0
    outer loop
      vertex -13.8893 -20.7867 -0.75
      vertex -15.8598 -19.3253 0.75
      vertex -15.8598 -19.3253 -0.75
    endloop
  endfacet
  facet normal -0.595699 -0.803208 0
    outer loop
      vertex -13.8893 -20.7867 -0.75
      vertex -13.8893 -20.7867 0.75
      vertex -15.8598 -19.3253 0.75
    endloop
  endfacet
  facet normal 0.0490677 -0.998795 0
    outer loop
      vertex 2.45043 -24.8796 -0.75
      vertex -4.59243e-15 -25 0.75
      vertex -4.59243e-15 -25 -0.75
    endloop
  endfacet
  facet normal 0.0490677 -0.998795 0
    outer loop
      vertex 2.45043 -24.8796 -0.75
      vertex 2.45043 -24.8796 0.75
      vertex -4.59243e-15 -25 0.75
    endloop
  endfacet
  facet normal -0.857729 -0.514103 0
    outer loop
      vertex -20.7867 -13.8893 0.75
      vertex -22.048 -11.7849 0.75
      vertex -22.048 -11.7849 -0.75
    endloop
  endfacet
  facet normal -0.857729 -0.514103 0
    outer loop
      vertex -20.7867 -13.8893 -0.75
      vertex -20.7867 -13.8893 0.75
      vertex -22.048 -11.7849 -0.75
    endloop
  endfacet
  facet normal -0.803208 -0.595699 0
    outer loop
      vertex -19.3253 -15.8598 0.75
      vertex -20.7867 -13.8893 0.75
      vertex -20.7867 -13.8893 -0.75
    endloop
  endfacet
  facet normal -0.803208 -0.595699 0
    outer loop
      vertex -19.3253 -15.8598 -0.75
      vertex -19.3253 -15.8598 0.75
      vertex -20.7867 -13.8893 -0.75
    endloop
  endfacet
  facet normal -0.740951 -0.671559 0
    outer loop
      vertex -17.6777 -17.6777 0.75
      vertex -19.3253 -15.8598 0.75
      vertex -19.3253 -15.8598 -0.75
    endloop
  endfacet
  facet normal -0.740951 -0.671559 0
    outer loop
      vertex -17.6777 -17.6777 -0.75
      vertex -17.6777 -17.6777 0.75
      vertex -19.3253 -15.8598 -0.75
    endloop
  endfacet
  facet normal 0.941544 0.33689 0
    outer loop
      vertex 23.9235 7.25712 0.75
      vertex 23.9235 7.25712 -0.75
      vertex 23.097 9.56709 -0.75
    endloop
  endfacet
  facet normal 0.941544 0.33689 0
    outer loop
      vertex 23.097 9.56709 0.75
      vertex 23.9235 7.25712 0.75
      vertex 23.097 9.56709 -0.75
    endloop
  endfacet
  facet normal 0.970031 0.24298 0
    outer loop
      vertex 24.5196 4.87726 0.75
      vertex 24.5196 4.87726 -0.75
      vertex 23.9235 7.25712 -0.75
    endloop
  endfacet
  facet normal 0.970031 0.24298 0
    outer loop
      vertex 23.9235 7.25712 0.75
      vertex 24.5196 4.87726 0.75
      vertex 23.9235 7.25712 -0.75
    endloop
  endfacet
  facet normal 0.989177 0.14673 0
    outer loop
      vertex 24.8796 2.45043 0.75
      vertex 24.8796 2.45043 -0.75
      vertex 24.5196 4.87726 -0.75
    endloop
  endfacet
  facet normal 0.989177 0.14673 0
    outer loop
      vertex 24.5196 4.87726 0.75
      vertex 24.8796 2.45043 0.75
      vertex 24.5196 4.87726 -0.75
    endloop
  endfacet
  facet normal 0.33689 -0.941544 0
    outer loop
      vertex 9.56709 -23.097 -0.75
      vertex 7.25712 -23.9235 0.75
      vertex 7.25712 -23.9235 -0.75
    endloop
  endfacet
  facet normal 0.33689 -0.941544 0
    outer loop
      vertex 9.56709 -23.097 -0.75
      vertex 9.56709 -23.097 0.75
      vertex 7.25712 -23.9235 0.75
    endloop
  endfacet
  facet normal 0.989177 -0.14673 0
    outer loop
      vertex 24.8796 -2.45043 -0.75
      vertex 24.5196 -4.87726 0.75
      vertex 24.5196 -4.87726 -0.75
    endloop
  endfacet
  facet normal 0.989177 -0.14673 0
    outer loop
      vertex 24.8796 -2.45043 -0.75
      vertex 24.8796 -2.45043 0.75
      vertex 24.5196 -4.87726 0.75
    endloop
  endfacet
  facet normal 0.857729 -0.514103 0
    outer loop
      vertex 22.048 -11.7849 -0.75
      vertex 20.7867 -13.8893 0.75
      vertex 20.7867 -13.8893 -0.75
    endloop
  endfacet
  facet normal 0.857729 -0.514103 0
    outer loop
      vertex 22.048 -11.7849 -0.75
      vertex 22.048 -11.7849 0.75
      vertex 20.7867 -13.8893 0.75
    endloop
  endfacet
  facet normal 0.740951 -0.671559 0
    outer loop
      vertex 19.3253 -15.8598 -0.75
      vertex 17.6777 -17.6777 0.75
      vertex 17.6777 -17.6777 -0.75
    endloop
  endfacet
  facet normal 0.740951 -0.671559 0
    outer loop
      vertex 19.3253 -15.8598 -0.75
      vertex 19.3253 -15.8598 0.75
      vertex 17.6777 -17.6777 0.75
    endloop
  endfacet
  facet normal -0.33689 0.941544 0
    outer loop
      vertex -9.56709 23.097 0.75
      vertex -7.25712 23.9235 -0.75
      vertex -9.56709 23.097 -0.75
    endloop
  endfacet
  facet normal -0.33689 0.941544 0
    outer loop
      vertex -9.56709 23.097 0.75
      vertex -7.25712 23.9235 0.75
      vertex -7.25712 23.9235 -0.75
    endloop
  endfacet
  facet normal -0.0490677 0.998795 0
    outer loop
      vertex -2.45043 24.8796 0.75
      vertex 1.53081e-15 25 -0.75
      vertex -2.45043 24.8796 -0.75
    endloop
  endfacet
  facet normal -0.0490677 0.998795 0
    outer loop
      vertex -2.45043 24.8796 0.75
      vertex 1.53081e-15 25 0.75
      vertex 1.53081e-15 25 -0.75
    endloop
  endfacet
  facet normal 0.427555 0.903989 0
    outer loop
      vertex 9.56709 23.097 0.75
      vertex 11.7849 22.048 -0.75
      vertex 9.56709 23.097 -0.75
    endloop
  endfacet
  facet normal 0.427555 0.903989 0
    outer loop
      vertex 9.56709 23.097 0.75
      vertex 11.7849 22.048 0.75
      vertex 11.7849 22.048 -0.75
    endloop
  endfacet
  facet normal 0.33689 0.941544 0
    outer loop
      vertex 7.25712 23.9235 0.75
      vertex 9.56709 23.097 -0.75
      vertex 7.25712 23.9235 -0.75
    endloop
  endfacet
  facet normal 0.33689 0.941544 0
    outer loop
      vertex 7.25712 23.9235 0.75
      vertex 9.56709 23.097 0.75
      vertex 9.56709 23.097 -0.75
    endloop
  endfacet
  facet normal -0.671559 0.740951 0
    outer loop
      vertex -17.6777 17.6777 0.75
      vertex -15.8598 19.3253 -0.75
      vertex -17.6777 17.6777 -0.75
    endloop
  endfacet
  facet normal -0.671559 0.740951 0
    outer loop
      vertex -17.6777 17.6777 0.75
      vertex -15.8598 19.3253 0.75
      vertex -15.8598 19.3253 -0.75
    endloop
  endfacet
  facet normal -0.595699 0.803208 0
    outer loop
      vertex -15.8598 19.3253 0.75
      vertex -13.8893 20.7867 -0.75
      vertex -15.8598 19.3253 -0.75
    endloop
  endfacet
  facet normal -0.595699 0.803208 0
    outer loop
      vertex -15.8598 19.3253 0.75
      vertex -13.8893 20.7867 0.75
      vertex -13.8893 20.7867 -0.75
    endloop
  endfacet
  facet normal -0.514103 0.857729 0
    outer loop
      vertex -13.8893 20.7867 0.75
      vertex -11.7849 22.048 -0.75
      vertex -13.8893 20.7867 -0.75
    endloop
  endfacet
  facet normal -0.514103 0.857729 0
    outer loop
      vertex -13.8893 20.7867 0.75
      vertex -11.7849 22.048 0.75
      vertex -11.7849 22.048 -0.75
    endloop
  endfacet
  facet normal 0 0 1
    outer loop
      vertex -9 1.10218e-15 0.75
      vertex -24.8796 2.45043 0.75
      vertex -25 3.06162e-15 0.75
    endloop
  endfacet
  facet normal 0 -0 1
    outer loop
      vertex -24.8796 -2.45043 0.75
      vertex -8.95666 -0.882154 0.75
      vertex -25 3.06162e-15 0.75
    endloop
  endfacet
  facet normal 0 0 1
    outer loop
      vertex -8.93918 -1 0.75
      vertex -8.95666 -0.882154 0.75
      vertex -24.8796 -2.45043 0.75
    endloop
  endfacet
  facet normal 0 0 1
    outer loop
      vertex -8.93918 1 0.75
      vertex -24.5196 4.87726 0.75
      vertex -24.8796 2.45043 0.75
    endloop
  endfacet
  facet normal 0 0 1
    outer loop
      vertex -8.93918 -1 0.75
      vertex -24.5196 -4.87726 0.75
      vertex -23.9235 -7.25712 0.75
    endloop
  endfacet
  facet normal -0 0 1
    outer loop
      vertex -24.8796 -2.45043 0.75
      vertex -24.5196 -4.87726 0.75
      vertex -8.93918 -1 0.75
    endloop
  endfacet
  facet normal -0 0 1
    outer loop
      vertex -23.9235 -7.25712 0.75
      vertex -23.097 -9.56709 0.75
      vertex -8.93918 -1 0.75
    endloop
  endfacet
  facet normal 0 0 1
    outer loop
      vertex -23.097 9.56709 0.75
      vertex -23.9235 7.25712 0.75
      vertex -8.93918 1 0.75
    endloop
  endfacet
  facet normal 0 0 1
    outer loop
      vertex -22.048 11.7849 0.75
      vertex -8.93918 1 0.75
      vertex -6.61441 3.53548 0.75
    endloop
  endfacet
  facet normal 0 0 1
    outer loop
      vertex -25 3.06162e-15 0.75
      vertex -8.95666 -0.882154 0.75
      vertex -9 1.10218e-15 0.75
    endloop
  endfacet
  facet normal -0 0 1
    outer loop
      vertex -13.8893 20.7867 0.75
      vertex -4.16678 6.23602 0.75
      vertex -11.7849 22.048 0.75
    endloop
  endfacet
  facet normal -0 0 1
    outer loop
      vertex -15.8598 19.3253 0.75
      vertex -4.75795 5.79758 0.75
      vertex -13.8893 20.7867 0.75
    endloop
  endfacet
  facet normal -0 0 1
    outer loop
      vertex -17.6777 17.6777 0.75
      vertex -4.75795 5.79758 0.75
      vertex -15.8598 19.3253 0.75
    endloop
  endfacet
  facet normal -0 0 1
    outer loop
      vertex -19.3253 15.8598 0.75
      vertex -5.79758 4.75795 0.75
      vertex -17.6777 17.6777 0.75
    endloop
  endfacet
  facet normal -0 0 1
    outer loop
      vertex -20.7867 13.8893 0.75
      vertex -6.23602 4.16678 0.75
      vertex -19.3253 15.8598 0.75
    endloop
  endfacet
  facet normal -0 0 1
    outer loop
      vertex -22.048 11.7849 0.75
      vertex -6.23602 4.16678 0.75
      vertex -20.7867 13.8893 0.75
    endloop
  endfacet
  facet normal -0 0 1
    outer loop
      vertex -23.097 9.56709 0.75
      vertex -8.93918 1 0.75
      vertex -22.048 11.7849 0.75
    endloop
  endfacet
  facet normal 0 0 1
    outer loop
      vertex -23.9235 7.25712 0.75
      vertex -24.5196 4.87726 0.75
      vertex -8.93918 1 0.75
    endloop
  endfacet
  facet normal -0 0 1
    outer loop
      vertex -11.7849 22.048 0.75
      vertex -1 8.93918 0.75
      vertex -9.56709 23.097 0.75
    endloop
  endfacet
  facet normal 0 0 1
    outer loop
      vertex -4.87726 24.5196 0.75
      vertex -7.25712 23.9235 0.75
      vertex -1 8.93918 0.75
    endloop
  endfacet
  facet normal 0 -0 1
    outer loop
      vertex -9 1.10218e-15 0.75
      vertex -8.95666 0.882154 0.75
      vertex -24.8796 2.45043 0.75
    endloop
  endfacet
  facet normal 0 0 1
    outer loop
      vertex -1 8.93918 0.75
      vertex -7.25712 23.9235 0.75
      vertex -9.56709 23.097 0.75
    endloop
  endfacet
  facet normal 0 0 1
    outer loop
      vertex -8.93918 1 0.75
      vertex -7.4246 1 0.75
      vertex -7.35589 1.46318 0.75
    endloop
  endfacet
  facet normal 0 0 1
    outer loop
      vertex -8.93918 1 0.75
      vertex -24.8796 2.45043 0.75
      vertex -8.95666 0.882154 0.75
    endloop
  endfacet
  facet normal -0 0 1
    outer loop
      vertex -4.87726 24.5196 0.75
      vertex -1 8.93918 0.75
      vertex -2.45043 24.8796 0.75
    endloop
  endfacet
  facet normal 0 0 1
    outer loop
      vertex 2.45043 24.8796 0.75
      vertex 1 8.93918 0.75
      vertex 4.87726 24.5196 0.75
    endloop
  endfacet
  facet normal 0 -0 1
    outer loop
      vertex -7.35589 1.46318 0.75
      vertex -7.17705 2.17714 0.75
      vertex -8.93918 1 0.75
    endloop
  endfacet
  facet normal 0 0 1
    outer loop
      vertex 2.45043 24.8796 0.75
      vertex 1.53081e-15 25 0.75
      vertex 5.51091e-16 9 0.75
    endloop
  endfacet
  facet normal 0 0 1
    outer loop
      vertex -8.93918 1 0.75
      vertex -6.9291 2.87013 0.75
      vertex -6.61441 3.53548 0.75
    endloop
  endfacet
  facet normal 0 0 1
    outer loop
      vertex -6.9291 2.87013 0.75
      vertex -8.93918 1 0.75
      vertex -7.17705 2.17714 0.75
    endloop
  endfacet
  facet normal 0 0 1
    outer loop
      vertex 1 8.93918 0.75
      vertex 7.25712 23.9235 0.75
      vertex 4.87726 24.5196 0.75
    endloop
  endfacet
  facet normal 0 0 1
    outer loop
      vertex 9.56709 23.097 0.75
      vertex 1 8.93918 0.75
      vertex 11.7849 22.048 0.75
    endloop
  endfacet
  facet normal 0 -0 1
    outer loop
      vertex -6.61441 3.53548 0.75
      vertex -6.23602 4.16678 0.75
      vertex -22.048 11.7849 0.75
    endloop
  endfacet
  facet normal 0 0 1
    outer loop
      vertex 9.56709 23.097 0.75
      vertex 7.25712 23.9235 0.75
      vertex 1 8.93918 0.75
    endloop
  endfacet
  facet normal 0 0 1
    outer loop
      vertex -17.6777 17.6777 0.75
      vertex -5.79758 4.75795 0.75
      vertex -5.3033 5.3033 0.75
    endloop
  endfacet
  facet normal 0 0 1
    outer loop
      vertex -5.79758 4.75795 0.75
      vertex -19.3253 15.8598 0.75
      vertex -6.23602 4.16678 0.75
    endloop
  endfacet
  facet normal 0 0 1
    outer loop
      vertex 3.53548 6.61441 0.75
      vertex 13.8893 20.7867 0.75
      vertex 11.7849 22.048 0.75
    endloop
  endfacet
  facet normal 0 0 1
    outer loop
      vertex 15.8598 19.3253 0.75
      vertex 4.75795 5.79758 0.75
      vertex 17.6777 17.6777 0.75
    endloop
  endfacet
  facet normal 0 -0 1
    outer loop
      vertex -5.3033 5.3033 0.75
      vertex -4.75795 5.79758 0.75
      vertex -17.6777 17.6777 0.75
    endloop
  endfacet
  facet normal 0 0 1
    outer loop
      vertex 15.8598 19.3253 0.75
      vertex 13.8893 20.7867 0.75
      vertex 4.75795 5.79758 0.75
    endloop
  endfacet
  facet normal 0 0 1
    outer loop
      vertex -11.7849 22.048 0.75
      vertex -4.16678 6.23602 0.75
      vertex -3.53548 6.61441 0.75
    endloop
  endfacet
  facet normal 0 0 1
    outer loop
      vertex -4.16678 6.23602 0.75
      vertex -13.8893 20.7867 0.75
      vertex -4.75795 5.79758 0.75
    endloop
  endfacet
  facet normal 0 0 1
    outer loop
      vertex 5.79758 4.75795 0.75
      vertex 19.3253 15.8598 0.75
      vertex 17.6777 17.6777 0.75
    endloop
  endfacet
  facet normal 0 0 1
    outer loop
      vertex 1.53081e-15 25 0.75
      vertex -0.882154 8.95666 0.75
      vertex 5.51091e-16 9 0.75
    endloop
  endfacet
  facet normal 0 -0 1
    outer loop
      vertex -3.53548 6.61441 0.75
      vertex -1 8.93918 0.75
      vertex -11.7849 22.048 0.75
    endloop
  endfacet
  facet normal 0 0 1
    outer loop
      vertex 20.7867 13.8893 0.75
      vertex 19.3253 15.8598 0.75
      vertex 5.79758 4.75795 0.75
    endloop
  endfacet
  facet normal 0 0 1
    outer loop
      vertex -2.87013 6.9291 0.75
      vertex -2.17714 7.17705 0.75
      vertex -1 8.93918 0.75
    endloop
  endfacet
  facet normal 0 0 1
    outer loop
      vertex -1 8.93918 0.75
      vertex -3.53548 6.61441 0.75
      vertex -2.87013 6.9291 0.75
    endloop
  endfacet
  facet normal 0 0 1
    outer loop
      vertex 8.93918 1 0.75
      vertex 23.097 9.56709 0.75
      vertex 22.048 11.7849 0.75
    endloop
  endfacet
  facet normal 0 -0 1
    outer loop
      vertex -1.46318 7.35589 0.75
      vertex -1 8.93918 0.75
      vertex -2.17714 7.17705 0.75
    endloop
  endfacet
  facet normal 0 0 1
    outer loop
      vertex 23.9235 7.25712 0.75
      vertex 23.097 9.56709 0.75
      vertex 8.93918 1 0.75
    endloop
  endfacet
  facet normal 0 -0 1
    outer loop
      vertex -1 7.4246 0.75
      vertex -1 8.93918 0.75
      vertex -1.46318 7.35589 0.75
    endloop
  endfacet
  facet normal 0 -0 1
    outer loop
      vertex -0.882154 8.95666 0.75
      vertex 1.53081e-15 25 0.75
      vertex -2.45043 24.8796 0.75
    endloop
  endfacet
  facet normal 0 0 1
    outer loop
      vertex -0.882154 8.95666 0.75
      vertex -2.45043 24.8796 0.75
      vertex -1 8.93918 0.75
    endloop
  endfacet
  facet normal 0 0 1
    outer loop
      vertex 20.7867 13.8893 0.75
      vertex 6.61441 3.53548 0.75
      vertex 22.048 11.7849 0.75
    endloop
  endfacet
  facet normal 0 0 1
    outer loop
      vertex 2.45043 24.8796 0.75
      vertex 0.882154 8.95666 0.75
      vertex 1 8.93918 0.75
    endloop
  endfacet
  facet normal 0 -0 1
    outer loop
      vertex 0.882154 8.95666 0.75
      vertex 2.45043 24.8796 0.75
      vertex 5.51091e-16 9 0.75
    endloop
  endfacet
  facet normal 0 0 1
    outer loop
      vertex 23.9235 7.25712 0.75
      vertex 8.93918 1 0.75
      vertex 24.5196 4.87726 0.75
    endloop
  endfacet
  facet normal 0 0 1
    outer loop
      vertex 25 0 0.75
      vertex 24.8796 2.45043 0.75
      vertex 8.95666 0.882154 0.75
    endloop
  endfacet
  facet normal -0 0 1
    outer loop
      vertex 1 8.93918 0.75
      vertex 3.53548 6.61441 0.75
      vertex 11.7849 22.048 0.75
    endloop
  endfacet
  facet normal -0 0 1
    outer loop
      vertex 1 7.4246 0.75
      vertex 1.46318 7.35589 0.75
      vertex 1 8.93918 0.75
    endloop
  endfacet
  facet normal 0 0 1
    outer loop
      vertex 8.93918 1 0.75
      vertex 24.8796 2.45043 0.75
      vertex 24.5196 4.87726 0.75
    endloop
  endfacet
  facet normal 0 0 1
    outer loop
      vertex 1 8.93918 0.75
      vertex 2.17714 7.17705 0.75
      vertex 2.87013 6.9291 0.75
    endloop
  endfacet
  facet normal 0 0 1
    outer loop
      vertex 2.17714 7.17705 0.75
      vertex 1 8.93918 0.75
      vertex 1.46318 7.35589 0.75
    endloop
  endfacet
  facet normal 0 0 1
    outer loop
      vertex 8.93918 -1 0.75
      vertex 24.5196 -4.87726 0.75
      vertex 24.8796 -2.45043 0.75
    endloop
  endfacet
  facet normal 0 0 1
    outer loop
      vertex 23.9235 -7.25712 0.75
      vertex 8.93918 -1 0.75
      vertex 23.097 -9.56709 0.75
    endloop
  endfacet
  facet normal -0 -0 1
    outer loop
      vertex 2.87013 6.9291 0.75
      vertex 3.53548 6.61441 0.75
      vertex 1 8.93918 0.75
    endloop
  endfacet
  facet normal 0 -0 1
    outer loop
      vertex 23.9235 -7.25712 0.75
      vertex 24.5196 -4.87726 0.75
      vertex 8.93918 -1 0.75
    endloop
  endfacet
  facet normal 0 0 1
    outer loop
      vertex 13.8893 20.7867 0.75
      vertex 4.16678 6.23602 0.75
      vertex 4.75795 5.79758 0.75
    endloop
  endfacet
  facet normal 0 -0 1
    outer loop
      vertex 4.16678 6.23602 0.75
      vertex 13.8893 20.7867 0.75
      vertex 3.53548 6.61441 0.75
    endloop
  endfacet
  facet normal 0 0 1
    outer loop
      vertex 8.93918 -1 0.75
      vertex 22.048 -11.7849 0.75
      vertex 23.097 -9.56709 0.75
    endloop
  endfacet
  facet normal 0 0 1
    outer loop
      vertex 20.7867 -13.8893 0.75
      vertex 5.79758 -4.75795 0.75
      vertex 19.3253 -15.8598 0.75
    endloop
  endfacet
  facet normal -0 0 1
    outer loop
      vertex 4.75795 5.79758 0.75
      vertex 5.3033 5.3033 0.75
      vertex 17.6777 17.6777 0.75
    endloop
  endfacet
  facet normal 0 -0 1
    outer loop
      vertex 20.7867 -13.8893 0.75
      vertex 22.048 -11.7849 0.75
      vertex 6.23602 -4.16678 0.75
    endloop
  endfacet
  facet normal 0 0 1
    outer loop
      vertex 20.7867 13.8893 0.75
      vertex 5.79758 4.75795 0.75
      vertex 6.23602 4.16678 0.75
    endloop
  endfacet
  facet normal 0 -0 1
    outer loop
      vertex 5.79758 4.75795 0.75
      vertex 17.6777 17.6777 0.75
      vertex 5.3033 5.3033 0.75
    endloop
  endfacet
  facet normal 0 0 1
    outer loop
      vertex 5.79758 -4.75795 0.75
      vertex 17.6777 -17.6777 0.75
      vertex 19.3253 -15.8598 0.75
    endloop
  endfacet
  facet normal 0 0 1
    outer loop
      vertex 24.8796 2.45043 0.75
      vertex 8.93918 1 0.75
      vertex 8.95666 0.882154 0.75
    endloop
  endfacet
  facet normal -0 0 1
    outer loop
      vertex 6.23602 4.16678 0.75
      vertex 6.61441 3.53548 0.75
      vertex 20.7867 13.8893 0.75
    endloop
  endfacet
  facet normal 0 -0 1
    outer loop
      vertex 15.8598 -19.3253 0.75
      vertex 17.6777 -17.6777 0.75
      vertex 4.75795 -5.79758 0.75
    endloop
  endfacet
  facet normal 0 0 1
    outer loop
      vertex 6.61441 3.53548 0.75
      vertex 6.9291 2.87013 0.75
      vertex 8.93918 1 0.75
    endloop
  endfacet
  facet normal 0 -0 1
    outer loop
      vertex 8.93918 1 0.75
      vertex 22.048 11.7849 0.75
      vertex 6.61441 3.53548 0.75
    endloop
  endfacet
  facet normal 0 0 1
    outer loop
      vertex 25 0 0.75
      vertex 9 0 0.75
      vertex 8.95666 -0.882154 0.75
    endloop
  endfacet
  facet normal -0 -0 1
    outer loop
      vertex 7.17705 2.17714 0.75
      vertex 8.93918 1 0.75
      vertex 6.9291 2.87013 0.75
    endloop
  endfacet
  facet normal 0 -0 1
    outer loop
      vertex 9.56709 -23.097 0.75
      vertex 11.7849 -22.048 0.75
      vertex 1 -8.93918 0.75
    endloop
  endfacet
  facet normal 0 0 1
    outer loop
      vertex 8.93918 1 0.75
      vertex 7.17705 2.17714 0.75
      vertex 7.35589 1.46318 0.75
    endloop
  endfacet
  facet normal 0 0 1
    outer loop
      vertex 25 0 0.75
      vertex 8.95666 -0.882154 0.75
      vertex 24.8796 -2.45043 0.75
    endloop
  endfacet
  facet normal 0 0 1
    outer loop
      vertex 8.93918 1 0.75
      vertex 7.35589 1.46318 0.75
      vertex 7.4246 1 0.75
    endloop
  endfacet
  facet normal 0 0 1
    outer loop
      vertex 15.8598 -19.3253 0.75
      vertex 4.75795 -5.79758 0.75
      vertex 13.8893 -20.7867 0.75
    endloop
  endfacet
  facet normal 0 0 1
    outer loop
      vertex 8.95666 0.882154 0.75
      vertex 9 0 0.75
      vertex 25 0 0.75
    endloop
  endfacet
  facet normal 0 0 1
    outer loop
      vertex 4.16678 -6.23602 0.75
      vertex 11.7849 -22.048 0.75
      vertex 13.8893 -20.7867 0.75
    endloop
  endfacet
  facet normal 0 0 1
    outer loop
      vertex 9.56709 -23.097 0.75
      vertex 1 -8.93918 0.75
      vertex 7.25712 -23.9235 0.75
    endloop
  endfacet
  facet normal 0 -0 1
    outer loop
      vertex 2.45043 -24.8796 0.75
      vertex 4.87726 -24.5196 0.75
      vertex 1 -8.93918 0.75
    endloop
  endfacet
  facet normal 0 0 1
    outer loop
      vertex 8.95666 -0.882154 0.75
      vertex 8.93918 -1 0.75
      vertex 24.8796 -2.45043 0.75
    endloop
  endfacet
  facet normal 0 0 1
    outer loop
      vertex 1 -8.93918 0.75
      vertex 4.87726 -24.5196 0.75
      vertex 7.25712 -23.9235 0.75
    endloop
  endfacet
  facet normal 0 0 1
    outer loop
      vertex 8.93918 -1 0.75
      vertex 6.61441 -3.53548 0.75
      vertex 22.048 -11.7849 0.75
    endloop
  endfacet
  facet normal 0 0 1
    outer loop
      vertex 8.93918 -1 0.75
      vertex 7.35589 -1.46318 0.75
      vertex 7.17705 -2.17714 0.75
    endloop
  endfacet
  facet normal 0 0 1
    outer loop
      vertex 7.35589 -1.46318 0.75
      vertex 8.93918 -1 0.75
      vertex 7.4246 -1 0.75
    endloop
  endfacet
  facet normal 0 0 1
    outer loop
      vertex 1.46318 -7.35589 0.75
      vertex 1 -7.4246 0.75
      vertex 1 -8.93918 0.75
    endloop
  endfacet
  facet normal 0 -0 1
    outer loop
      vertex -4.87726 -24.5196 0.75
      vertex -1 -8.93918 0.75
      vertex -7.25712 -23.9235 0.75
    endloop
  endfacet
  facet normal -0 0 1
    outer loop
      vertex 7.17705 -2.17714 0.75
      vertex 6.9291 -2.87013 0.75
      vertex 8.93918 -1 0.75
    endloop
  endfacet
  facet normal -0 0 1
    outer loop
      vertex -4.87726 -24.5196 0.75
      vertex -2.45043 -24.8796 0.75
      vertex -1 -8.93918 0.75
    endloop
  endfacet
  facet normal 0 0 1
    outer loop
      vertex 22.048 -11.7849 0.75
      vertex 6.61441 -3.53548 0.75
      vertex 6.23602 -4.16678 0.75
    endloop
  endfacet
  facet normal 0 0 1
    outer loop
      vertex 6.61441 -3.53548 0.75
      vertex 8.93918 -1 0.75
      vertex 6.9291 -2.87013 0.75
    endloop
  endfacet
  facet normal 0 0 1
    outer loop
      vertex -1 -8.93918 0.75
      vertex -9.56709 -23.097 0.75
      vertex -7.25712 -23.9235 0.75
    endloop
  endfacet
  facet normal 0 0 1
    outer loop
      vertex 6.23602 -4.16678 0.75
      vertex 5.79758 -4.75795 0.75
      vertex 20.7867 -13.8893 0.75
    endloop
  endfacet
  facet normal 0 0 1
    outer loop
      vertex 5.79758 -4.75795 0.75
      vertex 5.3033 -5.3033 0.75
      vertex 17.6777 -17.6777 0.75
    endloop
  endfacet
  facet normal -0 0 1
    outer loop
      vertex -11.7849 -22.048 0.75
      vertex -9.56709 -23.097 0.75
      vertex -1 -8.93918 0.75
    endloop
  endfacet
  facet normal 0 0 1
    outer loop
      vertex 5.3033 -5.3033 0.75
      vertex 4.75795 -5.79758 0.75
      vertex 17.6777 -17.6777 0.75
    endloop
  endfacet
  facet normal 0 0 1
    outer loop
      vertex 4.75795 -5.79758 0.75
      vertex 4.16678 -6.23602 0.75
      vertex 13.8893 -20.7867 0.75
    endloop
  endfacet
  facet normal -0 0 1
    outer loop
      vertex -13.8893 -20.7867 0.75
      vertex -11.7849 -22.048 0.75
      vertex -3.53548 -6.61441 0.75
    endloop
  endfacet
  facet normal 0 0 1
    outer loop
      vertex 4.16678 -6.23602 0.75
      vertex 3.53548 -6.61441 0.75
      vertex 11.7849 -22.048 0.75
    endloop
  endfacet
  facet normal 0 0 1
    outer loop
      vertex 3.53548 -6.61441 0.75
      vertex 1 -8.93918 0.75
      vertex 11.7849 -22.048 0.75
    endloop
  endfacet
  facet normal -0 0 1
    outer loop
      vertex 2.87013 -6.9291 0.75
      vertex 1 -8.93918 0.75
      vertex 3.53548 -6.61441 0.75
    endloop
  endfacet
  facet normal -0 0 1
    outer loop
      vertex -15.8598 -19.3253 0.75
      vertex -13.8893 -20.7867 0.75
      vertex -4.75795 -5.79758 0.75
    endloop
  endfacet
  facet normal -0 0 1
    outer loop
      vertex 2.17714 -7.17705 0.75
      vertex 1 -8.93918 0.75
      vertex 2.87013 -6.9291 0.75
    endloop
  endfacet
  facet normal 0 0 1
    outer loop
      vertex -11.7849 -22.048 0.75
      vertex -1 -8.93918 0.75
      vertex -3.53548 -6.61441 0.75
    endloop
  endfacet
  facet normal -0 0 1
    outer loop
      vertex 1.46318 -7.35589 0.75
      vertex 1 -8.93918 0.75
      vertex 2.17714 -7.17705 0.75
    endloop
  endfacet
  facet normal -0 0 1
    outer loop
      vertex -17.6777 -17.6777 0.75
      vertex -15.8598 -19.3253 0.75
      vertex -5.3033 -5.3033 0.75
    endloop
  endfacet
  facet normal 0 0 1
    outer loop
      vertex 2.45043 -24.8796 0.75
      vertex -1.65327e-15 -9 0.75
      vertex -4.59243e-15 -25 0.75
    endloop
  endfacet
  facet normal 0 0 1
    outer loop
      vertex -0.882154 -8.95666 0.75
      vertex -2.45043 -24.8796 0.75
      vertex -4.59243e-15 -25 0.75
    endloop
  endfacet
  facet normal -0 0 1
    outer loop
      vertex 0.882154 -8.95666 0.75
      vertex 2.45043 -24.8796 0.75
      vertex 1 -8.93918 0.75
    endloop
  endfacet
  facet normal -0 0 1
    outer loop
      vertex -1.65327e-15 -9 0.75
      vertex 2.45043 -24.8796 0.75
      vertex 0.882154 -8.95666 0.75
    endloop
  endfacet
  facet normal 0 0 1
    outer loop
      vertex -0.882154 -8.95666 0.75
      vertex -4.59243e-15 -25 0.75
      vertex -1.65327e-15 -9 0.75
    endloop
  endfacet
  facet normal 0 0 1
    outer loop
      vertex -0.882154 -8.95666 0.75
      vertex -1 -8.93918 0.75
      vertex -2.45043 -24.8796 0.75
    endloop
  endfacet
  facet normal 0 0 1
    outer loop
      vertex -1.46318 -7.35589 0.75
      vertex -1 -8.93918 0.75
      vertex -1 -7.4246 0.75
    endloop
  endfacet
  facet normal 0 0 1
    outer loop
      vertex -1.46318 -7.35589 0.75
      vertex -2.17714 -7.17705 0.75
      vertex -1 -8.93918 0.75
    endloop
  endfacet
  facet normal 0 0 1
    outer loop
      vertex -5.3033 -5.3033 0.75
      vertex -19.3253 -15.8598 0.75
      vertex -17.6777 -17.6777 0.75
    endloop
  endfacet
  facet normal 0 0 1
    outer loop
      vertex -2.17714 -7.17705 0.75
      vertex -2.87013 -6.9291 0.75
      vertex -1 -8.93918 0.75
    endloop
  endfacet
  facet normal 0 0 1
    outer loop
      vertex -2.87013 -6.9291 0.75
      vertex -3.53548 -6.61441 0.75
      vertex -1 -8.93918 0.75
    endloop
  endfacet
  facet normal 0 0 1
    outer loop
      vertex -3.53548 -6.61441 0.75
      vertex -4.16678 -6.23602 0.75
      vertex -13.8893 -20.7867 0.75
    endloop
  endfacet
  facet normal 0 0 1
    outer loop
      vertex -6.23602 -4.16678 0.75
      vertex -20.7867 -13.8893 0.75
      vertex -19.3253 -15.8598 0.75
    endloop
  endfacet
  facet normal 0 0 1
    outer loop
      vertex -4.16678 -6.23602 0.75
      vertex -4.75795 -5.79758 0.75
      vertex -13.8893 -20.7867 0.75
    endloop
  endfacet
  facet normal 0 0 1
    outer loop
      vertex -4.75795 -5.79758 0.75
      vertex -5.3033 -5.3033 0.75
      vertex -15.8598 -19.3253 0.75
    endloop
  endfacet
  facet normal 0 0 1
    outer loop
      vertex -5.3033 -5.3033 0.75
      vertex -5.79758 -4.75795 0.75
      vertex -19.3253 -15.8598 0.75
    endloop
  endfacet
  facet normal 0 0 1
    outer loop
      vertex -6.23602 -4.16678 0.75
      vertex -22.048 -11.7849 0.75
      vertex -20.7867 -13.8893 0.75
    endloop
  endfacet
  facet normal 0 0 1
    outer loop
      vertex -6.23602 -4.16678 0.75
      vertex -19.3253 -15.8598 0.75
      vertex -5.79758 -4.75795 0.75
    endloop
  endfacet
  facet normal 0 0 1
    outer loop
      vertex -6.61441 -3.53548 0.75
      vertex -22.048 -11.7849 0.75
      vertex -6.23602 -4.16678 0.75
    endloop
  endfacet
  facet normal 0 0 1
    outer loop
      vertex -6.9291 -2.87013 0.75
      vertex -8.93918 -1 0.75
      vertex -6.61441 -3.53548 0.75
    endloop
  endfacet
  facet normal 0 0 1
    outer loop
      vertex -7.17705 -2.17714 0.75
      vertex -8.93918 -1 0.75
      vertex -6.9291 -2.87013 0.75
    endloop
  endfacet
  facet normal 0 0 1
    outer loop
      vertex -7.35589 -1.46318 0.75
      vertex -8.93918 -1 0.75
      vertex -7.17705 -2.17714 0.75
    endloop
  endfacet
  facet normal 0 0 1
    outer loop
      vertex -7.4246 -1 0.75
      vertex -8.93918 -1 0.75
      vertex -7.35589 -1.46318 0.75
    endloop
  endfacet
  facet normal 0 0 1
    outer loop
      vertex -6.61441 -3.53548 0.75
      vertex -8.93918 -1 0.75
      vertex -22.048 -11.7849 0.75
    endloop
  endfacet
  facet normal 0 0 1
    outer loop
      vertex -8.93918 -1 0.75
      vertex -23.097 -9.56709 0.75
      vertex -22.048 -11.7849 0.75
    endloop
  endfacet
  facet normal -0.989177 0.14673 0
    outer loop
      vertex -24.8796 2.45043 0.75
      vertex -24.5196 4.87726 -0.75
      vertex -24.8796 2.45043 -0.75
    endloop
  endfacet
  facet normal -0.989177 0.14673 0
    outer loop
      vertex -24.8796 2.45043 0.75
      vertex -24.5196 4.87726 0.75
      vertex -24.5196 4.87726 -0.75
    endloop
  endfacet
  facet normal -0.514103 -0.857729 0
    outer loop
      vertex -11.7849 -22.048 -0.75
      vertex -13.8893 -20.7867 0.75
      vertex -13.8893 -20.7867 -0.75
    endloop
  endfacet
  facet normal -0.514103 -0.857729 0
    outer loop
      vertex -11.7849 -22.048 -0.75
      vertex -11.7849 -22.048 0.75
      vertex -13.8893 -20.7867 0.75
    endloop
  endfacet
  facet normal -0.427555 -0.903989 0
    outer loop
      vertex -9.56709 -23.097 -0.75
      vertex -11.7849 -22.048 0.75
      vertex -11.7849 -22.048 -0.75
    endloop
  endfacet
  facet normal -0.427555 -0.903989 0
    outer loop
      vertex -9.56709 -23.097 -0.75
      vertex -9.56709 -23.097 0.75
      vertex -11.7849 -22.048 0.75
    endloop
  endfacet
  facet normal -0.24298 -0.970031 0
    outer loop
      vertex -4.87726 -24.5196 -0.75
      vertex -7.25712 -23.9235 0.75
      vertex -7.25712 -23.9235 -0.75
    endloop
  endfacet
  facet normal -0.24298 -0.970031 0
    outer loop
      vertex -4.87726 -24.5196 -0.75
      vertex -4.87726 -24.5196 0.75
      vertex -7.25712 -23.9235 0.75
    endloop
  endfacet
  facet normal -0.14673 -0.989177 0
    outer loop
      vertex -2.45043 -24.8796 -0.75
      vertex -4.87726 -24.5196 0.75
      vertex -4.87726 -24.5196 -0.75
    endloop
  endfacet
  facet normal -0.14673 -0.989177 0
    outer loop
      vertex -2.45043 -24.8796 -0.75
      vertex -2.45043 -24.8796 0.75
      vertex -4.87726 -24.5196 0.75
    endloop
  endfacet
  facet normal 0.857729 0.514103 0
    outer loop
      vertex 22.048 11.7849 0.75
      vertex 22.048 11.7849 -0.75
      vertex 20.7867 13.8893 -0.75
    endloop
  endfacet
  facet normal 0.857729 0.514103 0
    outer loop
      vertex 20.7867 13.8893 0.75
      vertex 22.048 11.7849 0.75
      vertex 20.7867 13.8893 -0.75
    endloop
  endfacet
  facet normal 0.740951 0.671559 0
    outer loop
      vertex 19.3253 15.8598 0.75
      vertex 19.3253 15.8598 -0.75
      vertex 17.6777 17.6777 -0.75
    endloop
  endfacet
  facet normal 0.740951 0.671559 0
    outer loop
      vertex 17.6777 17.6777 0.75
      vertex 19.3253 15.8598 0.75
      vertex 17.6777 17.6777 -0.75
    endloop
  endfacet
  facet normal 0.803208 0.595699 0
    outer loop
      vertex 20.7867 13.8893 0.75
      vertex 20.7867 13.8893 -0.75
      vertex 19.3253 15.8598 -0.75
    endloop
  endfacet
  facet normal 0.803208 0.595699 0
    outer loop
      vertex 19.3253 15.8598 0.75
      vertex 20.7867 13.8893 0.75
      vertex 19.3253 15.8598 -0.75
    endloop
  endfacet
  facet normal 0.998795 0.0490677 0
    outer loop
      vertex 25 0 0.75
      vertex 25 0 -0.75
      vertex 24.8796 2.45043 -0.75
    endloop
  endfacet
  facet normal 0.998795 0.0490677 0
    outer loop
      vertex 24.8796 2.45043 0.75
      vertex 25 0 0.75
      vertex 24.8796 2.45043 -0.75
    endloop
  endfacet
  facet normal -0.24298 0.970031 0
    outer loop
      vertex -7.25712 23.9235 0.75
      vertex -4.87726 24.5196 -0.75
      vertex -7.25712 23.9235 -0.75
    endloop
  endfacet
  facet normal -0.24298 0.970031 0
    outer loop
      vertex -7.25712 23.9235 0.75
      vertex -4.87726 24.5196 0.75
      vertex -4.87726 24.5196 -0.75
    endloop
  endfacet
  facet normal 0.903989 0.427555 0
    outer loop
      vertex 23.097 9.56709 0.75
      vertex 23.097 9.56709 -0.75
      vertex 22.048 11.7849 -0.75
    endloop
  endfacet
  facet normal 0.903989 0.427555 0
    outer loop
      vertex 22.048 11.7849 0.75
      vertex 23.097 9.56709 0.75
      vertex 22.048 11.7849 -0.75
    endloop
  endfacet
  facet normal 0 1 -0
    outer loop
      vertex -7.4246 -1 -0.75
      vertex -8.93918 -1 0.75
      vertex -7.4246 -1 0.75
    endloop
  endfacet
  facet normal 0 1 0
    outer loop
      vertex -7.4246 -1 -0.75
      vertex -8.93918 -1 -0.75
      vertex -8.93918 -1 0.75
    endloop
  endfacet
  facet normal 0 1 -0
    outer loop
      vertex 8.93918 -1 -0.75
      vertex 7.4246 -1 0.75
      vertex 8.93918 -1 0.75
    endloop
  endfacet
  facet normal 0 1 0
    outer loop
      vertex 8.93918 -1 -0.75
      vertex 7.4246 -1 -0.75
      vertex 7.4246 -1 0.75
    endloop
  endfacet
  facet normal 0 -1 0
    outer loop
      vertex -8.93918 1 0.75
      vertex -7.4246 1 -0.75
      vertex -7.4246 1 0.75
    endloop
  endfacet
  facet normal 0 -1 0
    outer loop
      vertex -8.93918 1 0.75
      vertex -8.93918 1 -0.75
      vertex -7.4246 1 -0.75
    endloop
  endfacet
  facet normal 0 -1 0
    outer loop
      vertex 7.4246 1 0.75
      vertex 8.93918 1 -0.75
      vertex 8.93918 1 0.75
    endloop
  endfacet
  facet normal 0 -1 0
    outer loop
      vertex 7.4246 1 0.75
      vertex 7.4246 1 -0.75
      vertex 8.93918 1 -0.75
    endloop
  endfacet
  facet normal 1 -1.46604e-16 0
    outer loop
      vertex -1 -8.93918 0.75
      vertex -1 -7.4246 -0.75
      vertex -1 -7.4246 0.75
    endloop
  endfacet
  facet normal 1 -1.46604e-16 0
    outer loop
      vertex -1 -8.93918 0.75
      vertex -1 -8.93918 -0.75
      vertex -1 -7.4246 -0.75
    endloop
  endfacet
  facet normal 1 -2.19906e-16 0
    outer loop
      vertex -1 7.4246 0.75
      vertex -1 8.93918 -0.75
      vertex -1 8.93918 0.75
    endloop
  endfacet
  facet normal 1 -2.19906e-16 0
    outer loop
      vertex -1 7.4246 0.75
      vertex -1 7.4246 -0.75
      vertex -1 8.93918 -0.75
    endloop
  endfacet
  facet normal -1 2.19906e-16 0
    outer loop
      vertex 1 -7.4246 -0.75
      vertex 1 -8.93918 0.75
      vertex 1 -7.4246 0.75
    endloop
  endfacet
  facet normal -1 2.19906e-16 0
    outer loop
      vertex 1 -7.4246 -0.75
      vertex 1 -8.93918 -0.75
      vertex 1 -8.93918 0.75
    endloop
  endfacet
  facet normal -1 1.46604e-16 0
    outer loop
      vertex 1 8.93918 -0.75
      vertex 1 7.4246 0.75
      vertex 1 8.93918 0.75
    endloop
  endfacet
  facet normal -1 1.46604e-16 0
    outer loop
      vertex 1 8.93918 -0.75
      vertex 1 7.4246 -0.75
      vertex 1 7.4246 0.75
    endloop
  endfacet
  facet normal 0.998795 0.0490677 -0
    outer loop
      vertex -9 1.10218e-15 -0.75
      vertex -9 1.10218e-15 0.75
      vertex -8.95666 -0.882154 0.75
    endloop
  endfacet
  facet normal 0.998795 0.0490677 -0
    outer loop
      vertex -8.95666 -0.882154 -0.75
      vertex -9 1.10218e-15 -0.75
      vertex -8.95666 -0.882154 0.75
    endloop
  endfacet
  facet normal 0.989177 -0.14673 0
    outer loop
      vertex -8.95666 0.882154 0.75
      vertex -8.93918 1 -0.75
      vertex -8.93918 1 0.75
    endloop
  endfacet
  facet normal 0.989177 -0.14673 0
    outer loop
      vertex -8.95666 0.882154 0.75
      vertex -8.95666 0.882154 -0.75
      vertex -8.93918 1 -0.75
    endloop
  endfacet
  facet normal 0.14673 0.989177 -0
    outer loop
      vertex -0.882154 -8.95666 -0.75
      vertex -1 -8.93918 0.75
      vertex -0.882154 -8.95666 0.75
    endloop
  endfacet
  facet normal 0.14673 0.989177 0
    outer loop
      vertex -0.882154 -8.95666 -0.75
      vertex -1 -8.93918 -0.75
      vertex -1 -8.93918 0.75
    endloop
  endfacet
  facet normal -0.989177 -0.14673 0
    outer loop
      vertex 8.93918 1 -0.75
      vertex 8.95666 0.882154 -0.75
      vertex 8.95666 0.882154 0.75
    endloop
  endfacet
  facet normal -0.989177 -0.14673 -0
    outer loop
      vertex 8.93918 1 0.75
      vertex 8.93918 1 -0.75
      vertex 8.95666 0.882154 0.75
    endloop
  endfacet
  facet normal -0.14673 -0.989177 0
    outer loop
      vertex 0.882154 8.95666 0.75
      vertex 1 8.93918 -0.75
      vertex 1 8.93918 0.75
    endloop
  endfacet
  facet normal -0.14673 -0.989177 -0
    outer loop
      vertex 0.882154 8.95666 0.75
      vertex 0.882154 8.95666 -0.75
      vertex 1 8.93918 -0.75
    endloop
  endfacet
  facet normal 0.0490677 0.998795 -0
    outer loop
      vertex -1.65327e-15 -9 -0.75
      vertex -0.882154 -8.95666 0.75
      vertex -1.65327e-15 -9 0.75
    endloop
  endfacet
  facet normal 0.0490677 0.998795 0
    outer loop
      vertex -1.65327e-15 -9 -0.75
      vertex -0.882154 -8.95666 -0.75
      vertex -0.882154 -8.95666 0.75
    endloop
  endfacet
  facet normal 0.989177 0.14673 -0
    outer loop
      vertex -8.95666 -0.882154 -0.75
      vertex -8.95666 -0.882154 0.75
      vertex -8.93918 -1 0.75
    endloop
  endfacet
  facet normal 0.989177 0.14673 -0
    outer loop
      vertex -8.93918 -1 -0.75
      vertex -8.95666 -0.882154 -0.75
      vertex -8.93918 -1 0.75
    endloop
  endfacet
  facet normal 0.998795 -0.0490677 0
    outer loop
      vertex -9 1.10218e-15 0.75
      vertex -8.95666 0.882154 -0.75
      vertex -8.95666 0.882154 0.75
    endloop
  endfacet
  facet normal 0.998795 -0.0490677 0
    outer loop
      vertex -9 1.10218e-15 0.75
      vertex -9 1.10218e-15 -0.75
      vertex -8.95666 0.882154 -0.75
    endloop
  endfacet
  facet normal -0.989177 0.14673 0
    outer loop
      vertex 8.95666 -0.882154 -0.75
      vertex 8.93918 -1 0.75
      vertex 8.95666 -0.882154 0.75
    endloop
  endfacet
  facet normal -0.989177 0.14673 0
    outer loop
      vertex 8.95666 -0.882154 -0.75
      vertex 8.93918 -1 -0.75
      vertex 8.93918 -1 0.75
    endloop
  endfacet
  facet normal -0.0490677 0.998795 0
    outer loop
      vertex 0.882154 -8.95666 -0.75
      vertex -1.65327e-15 -9 0.75
      vertex 0.882154 -8.95666 0.75
    endloop
  endfacet
  facet normal -0.0490677 0.998795 0
    outer loop
      vertex 0.882154 -8.95666 -0.75
      vertex -1.65327e-15 -9 -0.75
      vertex -1.65327e-15 -9 0.75
    endloop
  endfacet
  facet normal -0.998795 -0.0490677 0
    outer loop
      vertex 8.95666 0.882154 -0.75
      vertex 9 0 -0.75
      vertex 9 0 0.75
    endloop
  endfacet
  facet normal -0.998795 -0.0490677 -0
    outer loop
      vertex 8.95666 0.882154 0.75
      vertex 8.95666 0.882154 -0.75
      vertex 9 0 0.75
    endloop
  endfacet
  facet normal -0.0490677 -0.998795 0
    outer loop
      vertex 5.51091e-16 9 0.75
      vertex 0.882154 8.95666 -0.75
      vertex 0.882154 8.95666 0.75
    endloop
  endfacet
  facet normal -0.0490677 -0.998795 -0
    outer loop
      vertex 5.51091e-16 9 0.75
      vertex 5.51091e-16 9 -0.75
      vertex 0.882154 8.95666 -0.75
    endloop
  endfacet
  facet normal -0.998795 0.0490677 0
    outer loop
      vertex 9 0 -0.75
      vertex 8.95666 -0.882154 0.75
      vertex 9 0 0.75
    endloop
  endfacet
  facet normal -0.998795 0.0490677 0
    outer loop
      vertex 9 0 -0.75
      vertex 8.95666 -0.882154 -0.75
      vertex 8.95666 -0.882154 0.75
    endloop
  endfacet
  facet normal 0.14673 -0.989177 0
    outer loop
      vertex -1 8.93918 0.75
      vertex -0.882154 8.95666 -0.75
      vertex -0.882154 8.95666 0.75
    endloop
  endfacet
  facet normal 0.14673 -0.989177 0
    outer loop
      vertex -1 8.93918 0.75
      vertex -1 8.93918 -0.75
      vertex -0.882154 8.95666 -0.75
    endloop
  endfacet
  facet normal 0.0490677 -0.998795 0
    outer loop
      vertex -0.882154 8.95666 0.75
      vertex 5.51091e-16 9 -0.75
      vertex 5.51091e-16 9 0.75
    endloop
  endfacet
  facet normal 0.0490677 -0.998795 0
    outer loop
      vertex -0.882154 8.95666 0.75
      vertex -0.882154 8.95666 -0.75
      vertex 5.51091e-16 9 -0.75
    endloop
  endfacet
  facet normal -0.14673 0.989177 0
    outer loop
      vertex 1 -8.93918 -0.75
      vertex 0.882154 -8.95666 0.75
      vertex 1 -8.93918 0.75
    endloop
  endfacet
  facet normal -0.14673 0.989177 0
    outer loop
      vertex 1 -8.93918 -0.75
      vertex 0.882154 -8.95666 -0.75
      vertex 0.882154 -8.95666 0.75
    endloop
  endfacet
  facet normal -0.14673 0.989177 0
    outer loop
      vertex 1.46318 -7.35589 -0.75
      vertex 1 -7.4246 0.75
      vertex 1.46318 -7.35589 0.75
    endloop
  endfacet
  facet normal -0.14673 0.989177 0
    outer loop
      vertex 1.46318 -7.35589 -0.75
      vertex 1 -7.4246 -0.75
      vertex 1 -7.4246 0.75
    endloop
  endfacet
  facet normal -0.671559 -0.740951 0
    outer loop
      vertex 4.75795 5.79758 0.75
      vertex 5.3033 5.3033 -0.75
      vertex 5.3033 5.3033 0.75
    endloop
  endfacet
  facet normal -0.671559 -0.740951 -0
    outer loop
      vertex 4.75795 5.79758 0.75
      vertex 4.75795 5.79758 -0.75
      vertex 5.3033 5.3033 -0.75
    endloop
  endfacet
  facet normal 0.970031 -0.24298 0
    outer loop
      vertex -7.35589 1.46318 0.75
      vertex -7.17705 2.17714 -0.75
      vertex -7.17705 2.17714 0.75
    endloop
  endfacet
  facet normal 0.970031 -0.24298 0
    outer loop
      vertex -7.35589 1.46318 0.75
      vertex -7.35589 1.46318 -0.75
      vertex -7.17705 2.17714 -0.75
    endloop
  endfacet
  facet normal -0.427555 0.903989 0
    outer loop
      vertex 3.53548 -6.61441 -0.75
      vertex 2.87013 -6.9291 0.75
      vertex 3.53548 -6.61441 0.75
    endloop
  endfacet
  facet normal -0.427555 0.903989 0
    outer loop
      vertex 3.53548 -6.61441 -0.75
      vertex 2.87013 -6.9291 -0.75
      vertex 2.87013 -6.9291 0.75
    endloop
  endfacet
  facet normal -0.514103 0.857729 0
    outer loop
      vertex 4.16678 -6.23602 -0.75
      vertex 3.53548 -6.61441 0.75
      vertex 4.16678 -6.23602 0.75
    endloop
  endfacet
  facet normal -0.514103 0.857729 0
    outer loop
      vertex 4.16678 -6.23602 -0.75
      vertex 3.53548 -6.61441 -0.75
      vertex 3.53548 -6.61441 0.75
    endloop
  endfacet
  facet normal -0.803208 0.595699 0
    outer loop
      vertex 6.23602 -4.16678 -0.75
      vertex 5.79758 -4.75795 0.75
      vertex 6.23602 -4.16678 0.75
    endloop
  endfacet
  facet normal -0.803208 0.595699 0
    outer loop
      vertex 6.23602 -4.16678 -0.75
      vertex 5.79758 -4.75795 -0.75
      vertex 5.79758 -4.75795 0.75
    endloop
  endfacet
  facet normal -0.514103 -0.857729 0
    outer loop
      vertex 3.53548 6.61441 0.75
      vertex 4.16678 6.23602 -0.75
      vertex 4.16678 6.23602 0.75
    endloop
  endfacet
  facet normal -0.514103 -0.857729 -0
    outer loop
      vertex 3.53548 6.61441 0.75
      vertex 3.53548 6.61441 -0.75
      vertex 4.16678 6.23602 -0.75
    endloop
  endfacet
  facet normal 0.514103 -0.857729 0
    outer loop
      vertex -4.16678 6.23602 0.75
      vertex -3.53548 6.61441 -0.75
      vertex -3.53548 6.61441 0.75
    endloop
  endfacet
  facet normal 0.514103 -0.857729 0
    outer loop
      vertex -4.16678 6.23602 0.75
      vertex -4.16678 6.23602 -0.75
      vertex -3.53548 6.61441 -0.75
    endloop
  endfacet
  facet normal 0.941544 -0.33689 0
    outer loop
      vertex -7.17705 2.17714 0.75
      vertex -6.9291 2.87013 -0.75
      vertex -6.9291 2.87013 0.75
    endloop
  endfacet
  facet normal 0.941544 -0.33689 0
    outer loop
      vertex -7.17705 2.17714 0.75
      vertex -7.17705 2.17714 -0.75
      vertex -6.9291 2.87013 -0.75
    endloop
  endfacet
  facet normal -0.24298 0.970031 0
    outer loop
      vertex 2.17714 -7.17705 -0.75
      vertex 1.46318 -7.35589 0.75
      vertex 2.17714 -7.17705 0.75
    endloop
  endfacet
  facet normal -0.24298 0.970031 0
    outer loop
      vertex 2.17714 -7.17705 -0.75
      vertex 1.46318 -7.35589 -0.75
      vertex 1.46318 -7.35589 0.75
    endloop
  endfacet
  facet normal 0.33689 0.941544 -0
    outer loop
      vertex -2.17714 -7.17705 -0.75
      vertex -2.87013 -6.9291 0.75
      vertex -2.17714 -7.17705 0.75
    endloop
  endfacet
  facet normal 0.33689 0.941544 0
    outer loop
      vertex -2.17714 -7.17705 -0.75
      vertex -2.87013 -6.9291 -0.75
      vertex -2.87013 -6.9291 0.75
    endloop
  endfacet
  facet normal 0.427555 0.903989 -0
    outer loop
      vertex -2.87013 -6.9291 -0.75
      vertex -3.53548 -6.61441 0.75
      vertex -2.87013 -6.9291 0.75
    endloop
  endfacet
  facet normal 0.427555 0.903989 0
    outer loop
      vertex -2.87013 -6.9291 -0.75
      vertex -3.53548 -6.61441 -0.75
      vertex -3.53548 -6.61441 0.75
    endloop
  endfacet
  facet normal 0.671559 0.740951 -0
    outer loop
      vertex -4.75795 -5.79758 -0.75
      vertex -5.3033 -5.3033 0.75
      vertex -4.75795 -5.79758 0.75
    endloop
  endfacet
  facet normal 0.671559 0.740951 0
    outer loop
      vertex -4.75795 -5.79758 -0.75
      vertex -5.3033 -5.3033 -0.75
      vertex -5.3033 -5.3033 0.75
    endloop
  endfacet
  facet normal 0.903989 0.427555 -0
    outer loop
      vertex -6.9291 -2.87013 -0.75
      vertex -6.9291 -2.87013 0.75
      vertex -6.61441 -3.53548 0.75
    endloop
  endfacet
  facet normal 0.903989 0.427555 -0
    outer loop
      vertex -6.61441 -3.53548 -0.75
      vertex -6.9291 -2.87013 -0.75
      vertex -6.61441 -3.53548 0.75
    endloop
  endfacet
  facet normal 0.941544 0.33689 -0
    outer loop
      vertex -7.17705 -2.17714 -0.75
      vertex -7.17705 -2.17714 0.75
      vertex -6.9291 -2.87013 0.75
    endloop
  endfacet
  facet normal 0.941544 0.33689 -0
    outer loop
      vertex -6.9291 -2.87013 -0.75
      vertex -7.17705 -2.17714 -0.75
      vertex -6.9291 -2.87013 0.75
    endloop
  endfacet
  facet normal 0.970031 0.24298 -0
    outer loop
      vertex -7.35589 -1.46318 -0.75
      vertex -7.35589 -1.46318 0.75
      vertex -7.17705 -2.17714 0.75
    endloop
  endfacet
  facet normal 0.970031 0.24298 -0
    outer loop
      vertex -7.17705 -2.17714 -0.75
      vertex -7.35589 -1.46318 -0.75
      vertex -7.17705 -2.17714 0.75
    endloop
  endfacet
  facet normal 0.989177 0.14673 -0
    outer loop
      vertex -7.4246 -1 -0.75
      vertex -7.4246 -1 0.75
      vertex -7.35589 -1.46318 0.75
    endloop
  endfacet
  facet normal 0.989177 0.14673 -0
    outer loop
      vertex -7.35589 -1.46318 -0.75
      vertex -7.4246 -1 -0.75
      vertex -7.35589 -1.46318 0.75
    endloop
  endfacet
  facet normal -0.671559 0.740951 0
    outer loop
      vertex 5.3033 -5.3033 -0.75
      vertex 4.75795 -5.79758 0.75
      vertex 5.3033 -5.3033 0.75
    endloop
  endfacet
  facet normal -0.671559 0.740951 0
    outer loop
      vertex 5.3033 -5.3033 -0.75
      vertex 4.75795 -5.79758 -0.75
      vertex 4.75795 -5.79758 0.75
    endloop
  endfacet
  facet normal -0.941544 0.33689 0
    outer loop
      vertex 7.17705 -2.17714 -0.75
      vertex 6.9291 -2.87013 0.75
      vertex 7.17705 -2.17714 0.75
    endloop
  endfacet
  facet normal -0.941544 0.33689 0
    outer loop
      vertex 7.17705 -2.17714 -0.75
      vertex 6.9291 -2.87013 -0.75
      vertex 6.9291 -2.87013 0.75
    endloop
  endfacet
  facet normal -0.740951 0.671559 0
    outer loop
      vertex 5.79758 -4.75795 -0.75
      vertex 5.3033 -5.3033 0.75
      vertex 5.79758 -4.75795 0.75
    endloop
  endfacet
  facet normal -0.740951 0.671559 0
    outer loop
      vertex 5.79758 -4.75795 -0.75
      vertex 5.3033 -5.3033 -0.75
      vertex 5.3033 -5.3033 0.75
    endloop
  endfacet
  facet normal -0.970031 0.24298 0
    outer loop
      vertex 7.35589 -1.46318 -0.75
      vertex 7.17705 -2.17714 0.75
      vertex 7.35589 -1.46318 0.75
    endloop
  endfacet
  facet normal -0.970031 0.24298 0
    outer loop
      vertex 7.35589 -1.46318 -0.75
      vertex 7.17705 -2.17714 -0.75
      vertex 7.17705 -2.17714 0.75
    endloop
  endfacet
  facet normal -0.595699 -0.803208 0
    outer loop
      vertex 4.16678 6.23602 0.75
      vertex 4.75795 5.79758 -0.75
      vertex 4.75795 5.79758 0.75
    endloop
  endfacet
  facet normal -0.595699 -0.803208 -0
    outer loop
      vertex 4.16678 6.23602 0.75
      vertex 4.16678 6.23602 -0.75
      vertex 4.75795 5.79758 -0.75
    endloop
  endfacet
  facet normal 0.33689 -0.941544 0
    outer loop
      vertex -2.87013 6.9291 0.75
      vertex -2.17714 7.17705 -0.75
      vertex -2.17714 7.17705 0.75
    endloop
  endfacet
  facet normal 0.33689 -0.941544 0
    outer loop
      vertex -2.87013 6.9291 0.75
      vertex -2.87013 6.9291 -0.75
      vertex -2.17714 7.17705 -0.75
    endloop
  endfacet
  facet normal -0.427555 -0.903989 0
    outer loop
      vertex 2.87013 6.9291 0.75
      vertex 3.53548 6.61441 -0.75
      vertex 3.53548 6.61441 0.75
    endloop
  endfacet
  facet normal -0.427555 -0.903989 -0
    outer loop
      vertex 2.87013 6.9291 0.75
      vertex 2.87013 6.9291 -0.75
      vertex 3.53548 6.61441 -0.75
    endloop
  endfacet
  facet normal -0.14673 -0.989177 0
    outer loop
      vertex 1 7.4246 0.75
      vertex 1.46318 7.35589 -0.75
      vertex 1.46318 7.35589 0.75
    endloop
  endfacet
  facet normal -0.14673 -0.989177 -0
    outer loop
      vertex 1 7.4246 0.75
      vertex 1 7.4246 -0.75
      vertex 1.46318 7.35589 -0.75
    endloop
  endfacet
  facet normal -0.24298 -0.970031 0
    outer loop
      vertex 1.46318 7.35589 0.75
      vertex 2.17714 7.17705 -0.75
      vertex 2.17714 7.17705 0.75
    endloop
  endfacet
  facet normal -0.24298 -0.970031 -0
    outer loop
      vertex 1.46318 7.35589 0.75
      vertex 1.46318 7.35589 -0.75
      vertex 2.17714 7.17705 -0.75
    endloop
  endfacet
  facet normal 0.427555 -0.903989 0
    outer loop
      vertex -3.53548 6.61441 0.75
      vertex -2.87013 6.9291 -0.75
      vertex -2.87013 6.9291 0.75
    endloop
  endfacet
  facet normal 0.427555 -0.903989 0
    outer loop
      vertex -3.53548 6.61441 0.75
      vertex -3.53548 6.61441 -0.75
      vertex -2.87013 6.9291 -0.75
    endloop
  endfacet
  facet normal 0.595699 -0.803208 0
    outer loop
      vertex -4.75795 5.79758 0.75
      vertex -4.16678 6.23602 -0.75
      vertex -4.16678 6.23602 0.75
    endloop
  endfacet
  facet normal 0.595699 -0.803208 0
    outer loop
      vertex -4.75795 5.79758 0.75
      vertex -4.75795 5.79758 -0.75
      vertex -4.16678 6.23602 -0.75
    endloop
  endfacet
  facet normal 0.857729 -0.514103 0
    outer loop
      vertex -6.61441 3.53548 0.75
      vertex -6.23602 4.16678 -0.75
      vertex -6.23602 4.16678 0.75
    endloop
  endfacet
  facet normal 0.857729 -0.514103 0
    outer loop
      vertex -6.61441 3.53548 0.75
      vertex -6.61441 3.53548 -0.75
      vertex -6.23602 4.16678 -0.75
    endloop
  endfacet
  facet normal 0.903989 -0.427555 0
    outer loop
      vertex -6.9291 2.87013 0.75
      vertex -6.61441 3.53548 -0.75
      vertex -6.61441 3.53548 0.75
    endloop
  endfacet
  facet normal 0.903989 -0.427555 0
    outer loop
      vertex -6.9291 2.87013 0.75
      vertex -6.9291 2.87013 -0.75
      vertex -6.61441 3.53548 -0.75
    endloop
  endfacet
  facet normal 0.989177 -0.14673 0
    outer loop
      vertex -7.4246 1 0.75
      vertex -7.35589 1.46318 -0.75
      vertex -7.35589 1.46318 0.75
    endloop
  endfacet
  facet normal 0.989177 -0.14673 0
    outer loop
      vertex -7.4246 1 0.75
      vertex -7.4246 1 -0.75
      vertex -7.35589 1.46318 -0.75
    endloop
  endfacet
  facet normal 0.514103 0.857729 -0
    outer loop
      vertex -3.53548 -6.61441 -0.75
      vertex -4.16678 -6.23602 0.75
      vertex -3.53548 -6.61441 0.75
    endloop
  endfacet
  facet normal 0.514103 0.857729 0
    outer loop
      vertex -3.53548 -6.61441 -0.75
      vertex -4.16678 -6.23602 -0.75
      vertex -4.16678 -6.23602 0.75
    endloop
  endfacet
  facet normal 0.595699 0.803208 -0
    outer loop
      vertex -4.16678 -6.23602 -0.75
      vertex -4.75795 -5.79758 0.75
      vertex -4.16678 -6.23602 0.75
    endloop
  endfacet
  facet normal 0.595699 0.803208 0
    outer loop
      vertex -4.16678 -6.23602 -0.75
      vertex -4.75795 -5.79758 -0.75
      vertex -4.75795 -5.79758 0.75
    endloop
  endfacet
  facet normal 0.24298 0.970031 -0
    outer loop
      vertex -1.46318 -7.35589 -0.75
      vertex -2.17714 -7.17705 0.75
      vertex -1.46318 -7.35589 0.75
    endloop
  endfacet
  facet normal 0.24298 0.970031 0
    outer loop
      vertex -1.46318 -7.35589 -0.75
      vertex -2.17714 -7.17705 -0.75
      vertex -2.17714 -7.17705 0.75
    endloop
  endfacet
  facet normal 0.857729 0.514103 -0
    outer loop
      vertex -6.61441 -3.53548 -0.75
      vertex -6.61441 -3.53548 0.75
      vertex -6.23602 -4.16678 0.75
    endloop
  endfacet
  facet normal 0.857729 0.514103 -0
    outer loop
      vertex -6.23602 -4.16678 -0.75
      vertex -6.61441 -3.53548 -0.75
      vertex -6.23602 -4.16678 0.75
    endloop
  endfacet
  facet normal 0.803208 0.595699 -0
    outer loop
      vertex -6.23602 -4.16678 -0.75
      vertex -6.23602 -4.16678 0.75
      vertex -5.79758 -4.75795 0.75
    endloop
  endfacet
  facet normal 0.803208 0.595699 -0
    outer loop
      vertex -5.79758 -4.75795 -0.75
      vertex -6.23602 -4.16678 -0.75
      vertex -5.79758 -4.75795 0.75
    endloop
  endfacet
  facet normal 0.740951 0.671559 -0
    outer loop
      vertex -5.79758 -4.75795 -0.75
      vertex -5.79758 -4.75795 0.75
      vertex -5.3033 -5.3033 0.75
    endloop
  endfacet
  facet normal 0.740951 0.671559 -0
    outer loop
      vertex -5.3033 -5.3033 -0.75
      vertex -5.79758 -4.75795 -0.75
      vertex -5.3033 -5.3033 0.75
    endloop
  endfacet
  facet normal -0.941544 -0.33689 0
    outer loop
      vertex 6.9291 2.87013 -0.75
      vertex 7.17705 2.17714 -0.75
      vertex 7.17705 2.17714 0.75
    endloop
  endfacet
  facet normal -0.941544 -0.33689 -0
    outer loop
      vertex 6.9291 2.87013 0.75
      vertex 6.9291 2.87013 -0.75
      vertex 7.17705 2.17714 0.75
    endloop
  endfacet
  facet normal -0.970031 -0.24298 0
    outer loop
      vertex 7.17705 2.17714 -0.75
      vertex 7.35589 1.46318 -0.75
      vertex 7.35589 1.46318 0.75
    endloop
  endfacet
  facet normal -0.970031 -0.24298 -0
    outer loop
      vertex 7.17705 2.17714 0.75
      vertex 7.17705 2.17714 -0.75
      vertex 7.35589 1.46318 0.75
    endloop
  endfacet
  facet normal -0.595699 0.803208 0
    outer loop
      vertex 4.75795 -5.79758 -0.75
      vertex 4.16678 -6.23602 0.75
      vertex 4.75795 -5.79758 0.75
    endloop
  endfacet
  facet normal -0.595699 0.803208 0
    outer loop
      vertex 4.75795 -5.79758 -0.75
      vertex 4.16678 -6.23602 -0.75
      vertex 4.16678 -6.23602 0.75
    endloop
  endfacet
  facet normal -0.857729 0.514103 0
    outer loop
      vertex 6.61441 -3.53548 -0.75
      vertex 6.23602 -4.16678 0.75
      vertex 6.61441 -3.53548 0.75
    endloop
  endfacet
  facet normal -0.857729 0.514103 0
    outer loop
      vertex 6.61441 -3.53548 -0.75
      vertex 6.23602 -4.16678 -0.75
      vertex 6.23602 -4.16678 0.75
    endloop
  endfacet
  facet normal 0.24298 -0.970031 0
    outer loop
      vertex -2.17714 7.17705 0.75
      vertex -1.46318 7.35589 -0.75
      vertex -1.46318 7.35589 0.75
    endloop
  endfacet
  facet normal 0.24298 -0.970031 0
    outer loop
      vertex -2.17714 7.17705 0.75
      vertex -2.17714 7.17705 -0.75
      vertex -1.46318 7.35589 -0.75
    endloop
  endfacet
  facet normal 0.14673 -0.989177 0
    outer loop
      vertex -1.46318 7.35589 0.75
      vertex -1 7.4246 -0.75
      vertex -1 7.4246 0.75
    endloop
  endfacet
  facet normal 0.14673 -0.989177 0
    outer loop
      vertex -1.46318 7.35589 0.75
      vertex -1.46318 7.35589 -0.75
      vertex -1 7.4246 -0.75
    endloop
  endfacet
  facet normal -0.33689 -0.941544 0
    outer loop
      vertex 2.17714 7.17705 0.75
      vertex 2.87013 6.9291 -0.75
      vertex 2.87013 6.9291 0.75
    endloop
  endfacet
  facet normal -0.33689 -0.941544 -0
    outer loop
      vertex 2.17714 7.17705 0.75
      vertex 2.17714 7.17705 -0.75
      vertex 2.87013 6.9291 -0.75
    endloop
  endfacet
  facet normal 0.803208 -0.595699 0
    outer loop
      vertex -6.23602 4.16678 0.75
      vertex -5.79758 4.75795 -0.75
      vertex -5.79758 4.75795 0.75
    endloop
  endfacet
  facet normal 0.803208 -0.595699 0
    outer loop
      vertex -6.23602 4.16678 0.75
      vertex -6.23602 4.16678 -0.75
      vertex -5.79758 4.75795 -0.75
    endloop
  endfacet
  facet normal 0.740951 -0.671559 0
    outer loop
      vertex -5.79758 4.75795 0.75
      vertex -5.3033 5.3033 -0.75
      vertex -5.3033 5.3033 0.75
    endloop
  endfacet
  facet normal 0.740951 -0.671559 0
    outer loop
      vertex -5.79758 4.75795 0.75
      vertex -5.79758 4.75795 -0.75
      vertex -5.3033 5.3033 -0.75
    endloop
  endfacet
  facet normal 0.671559 -0.740951 0
    outer loop
      vertex -5.3033 5.3033 0.75
      vertex -4.75795 5.79758 -0.75
      vertex -4.75795 5.79758 0.75
    endloop
  endfacet
  facet normal 0.671559 -0.740951 0
    outer loop
      vertex -5.3033 5.3033 0.75
      vertex -5.3033 5.3033 -0.75
      vertex -4.75795 5.79758 -0.75
    endloop
  endfacet
  facet normal -0.33689 0.941544 0
    outer loop
      vertex 2.87013 -6.9291 -0.75
      vertex 2.17714 -7.17705 0.75
      vertex 2.87013 -6.9291 0.75
    endloop
  endfacet
  facet normal -0.33689 0.941544 0
    outer loop
      vertex 2.87013 -6.9291 -0.75
      vertex 2.17714 -7.17705 -0.75
      vertex 2.17714 -7.17705 0.75
    endloop
  endfacet
  facet normal 0.14673 0.989177 -0
    outer loop
      vertex -1 -7.4246 -0.75
      vertex -1.46318 -7.35589 0.75
      vertex -1 -7.4246 0.75
    endloop
  endfacet
  facet normal 0.14673 0.989177 0
    outer loop
      vertex -1 -7.4246 -0.75
      vertex -1.46318 -7.35589 -0.75
      vertex -1.46318 -7.35589 0.75
    endloop
  endfacet
  facet normal -0.857729 -0.514103 0
    outer loop
      vertex 6.23602 4.16678 -0.75
      vertex 6.61441 3.53548 -0.75
      vertex 6.61441 3.53548 0.75
    endloop
  endfacet
  facet normal -0.857729 -0.514103 -0
    outer loop
      vertex 6.23602 4.16678 0.75
      vertex 6.23602 4.16678 -0.75
      vertex 6.61441 3.53548 0.75
    endloop
  endfacet
  facet normal -0.740951 -0.671559 0
    outer loop
      vertex 5.3033 5.3033 -0.75
      vertex 5.79758 4.75795 -0.75
      vertex 5.79758 4.75795 0.75
    endloop
  endfacet
  facet normal -0.740951 -0.671559 -0
    outer loop
      vertex 5.3033 5.3033 0.75
      vertex 5.3033 5.3033 -0.75
      vertex 5.79758 4.75795 0.75
    endloop
  endfacet
  facet normal -0.803208 -0.595699 0
    outer loop
      vertex 5.79758 4.75795 -0.75
      vertex 6.23602 4.16678 -0.75
      vertex 6.23602 4.16678 0.75
    endloop
  endfacet
  facet normal -0.803208 -0.595699 -0
    outer loop
      vertex 5.79758 4.75795 0.75
      vertex 5.79758 4.75795 -0.75
      vertex 6.23602 4.16678 0.75
    endloop
  endfacet
  facet normal -0.989177 -0.14673 0
    outer loop
      vertex 7.35589 1.46318 -0.75
      vertex 7.4246 1 -0.75
      vertex 7.4246 1 0.75
    endloop
  endfacet
  facet normal -0.989177 -0.14673 -0
    outer loop
      vertex 7.35589 1.46318 0.75
      vertex 7.35589 1.46318 -0.75
      vertex 7.4246 1 0.75
    endloop
  endfacet
  facet normal -0.903989 0.427555 0
    outer loop
      vertex 6.9291 -2.87013 -0.75
      vertex 6.61441 -3.53548 0.75
      vertex 6.9291 -2.87013 0.75
    endloop
  endfacet
  facet normal -0.903989 0.427555 0
    outer loop
      vertex 6.9291 -2.87013 -0.75
      vertex 6.61441 -3.53548 -0.75
      vertex 6.61441 -3.53548 0.75
    endloop
  endfacet
  facet normal -0.989177 0.14673 0
    outer loop
      vertex 7.4246 -1 -0.75
      vertex 7.35589 -1.46318 0.75
      vertex 7.4246 -1 0.75
    endloop
  endfacet
  facet normal -0.989177 0.14673 0
    outer loop
      vertex 7.4246 -1 -0.75
      vertex 7.35589 -1.46318 -0.75
      vertex 7.35589 -1.46318 0.75
    endloop
  endfacet
  facet normal -0.903989 -0.427555 0
    outer loop
      vertex 6.61441 3.53548 -0.75
      vertex 6.9291 2.87013 -0.75
      vertex 6.9291 2.87013 0.75
    endloop
  endfacet
  facet normal -0.903989 -0.427555 -0
    outer loop
      vertex 6.61441 3.53548 0.75
      vertex 6.61441 3.53548 -0.75
      vertex 6.9291 2.87013 0.75
    endloop
  endfacet
endsolid OpenSCAD_Model
