solid OpenSCAD_Model
  facet normal 0 0 -1
    outer loop
      vertex -1 0 2.7
      vertex -0.998795 0.049068 2.7
      vertex -0.998795 -0.049068 2.7
    endloop
  endfacet
  facet normal 0 0 -1
    outer loop
      vertex -0.998795 -0.049068 2.7
      vertex -0.998795 0.049068 2.7
      vertex -0.995185 0.098017 2.7
    endloop
  endfacet
  facet normal 0 0 -1
    outer loop
      vertex -0.998795 -0.049068 2.7
      vertex -0.995185 0.098017 2.7
      vertex -0.989177 0.14673 2.7
    endloop
  endfacet
  facet normal 0 0 -1
    outer loop
      vertex -0.998795 -0.049068 2.7
      vertex -0.989177 0.14673 2.7
      vertex -0.980785 0.19509 2.7
    endloop
  endfacet
  facet normal 0 0 -1
    outer loop
      vertex -0.998795 -0.049068 2.7
      vertex -0.980785 0.19509 2.7
      vertex -0.970031 0.24298 2.7
    endloop
  endfacet
  facet normal 0 0 -1
    outer loop
      vertex -0.998795 -0.049068 2.7
      vertex -0.970031 0.24298 2.7
      vertex -0.95694 0.290285 2.7
    endloop
  endfacet
  facet normal 0 0 -1
    outer loop
      vertex -0.998795 -0.049068 2.7
      vertex -0.95694 0.290285 2.7
      vertex -0.941544 0.33689 2.7
    endloop
  endfacet
  facet normal 0 0 -1
    outer loop
      vertex -0.998795 -0.049068 2.7
      vertex -0.941544 0.33689 2.7
      vertex -0.92388 0.382683 2.7
    endloop
  endfacet
  facet normal 0 0 -1
    outer loop
      vertex -0.998795 -0.049068 2.7
      vertex -0.92388 0.382683 2.7
      vertex -0.903989 0.427555 2.7
    endloop
  endfacet
  facet normal 0 0 -1
    outer loop
      vertex -0.998795 -0.049068 2.7
      vertex -0.903989 0.427555 2.7
      vertex -0.881921 0.471397 2.7
    endloop
  endfacet
  facet normal 0 0 -1
    outer loop
      vertex -0.998795 -0.049068 2.7
      vertex -0.881921 0.471397 2.7
      vertex -0.857729 0.514103 2.7
    endloop
  endfacet
  facet normal 0 0 -1
    outer loop
      vertex -0.998795 -0.049068 2.7
      vertex -0.857729 0.514103 2.7
      vertex -0.83147 0.55557 2.7
    endloop
  endfacet
  facet normal 0 0 -1
    outer loop
      vertex -0.998795 -0.049068 2.7
      vertex -0.83147 0.55557 2.7
      vertex -0.803208 0.595699 2.7
    endloop
  endfacet
  facet normal 0 0 -1
    outer loop
      vertex -0.998795 -0.049068 2.7
      vertex -0.803208 0.595699 2.7
      vertex -0.77301 0.634393 2.7
    endloop
  endfacet
  facet normal 0 0 -1
    outer loop
      vertex -0.998795 -0.049068 2.7
      vertex -0.77301 0.634393 2.7
      vertex -0.740951 0.671559 2.7
    endloop
  endfacet
  facet normal 0 0 -1
    outer loop
      vertex -0.998795 -0.049068 2.7
      vertex -0.740951 0.671559 2.7
      vertex -0.707107 0.707107 2.7
    endloop
  endfacet
  facet normal 0 0 -1
    outer loop
      vertex -0.998795 -0.049068 2.7
      vertex -0.707107 0.707107 2.7
      vertex -0.671559 0.740951 2.7
    endloop
  endfacet
  facet normal 0 0 -1
    outer loop
      vertex -0.998795 -0.049068 2.7
      vertex -0.671559 0.740951 2.7
      vertex -0.634393 0.77301 2.7
    endloop
  endfacet
  facet normal 0 0 -1
    outer loop
      vertex -0.998795 -0.049068 2.7
      vertex -0.634393 0.77301 2.7
      vertex -0.595699 0.803208 2.7
    endloop
  endfacet
  facet normal 0 0 -1
    outer loop
      vertex -0.998795 -0.049068 2.7
      vertex -0.595699 0.803208 2.7
      vertex -0.55557 0.83147 2.7
    endloop
  endfacet
  facet normal 0 0 -1
    outer loop
      vertex -0.998795 -0.049068 2.7
      vertex -0.55557 0.83147 2.7
      vertex -0.514103 0.857729 2.7
    endloop
  endfacet
  facet normal 0 0 -1
    outer loop
      vertex -0.998795 -0.049068 2.7
      vertex -0.514103 0.857729 2.7
      vertex -0.471397 0.881921 2.7
    endloop
  endfacet
  facet normal 0 0 -1
    outer loop
      vertex -0.998795 -0.049068 2.7
      vertex -0.471397 0.881921 2.7
      vertex -0.427555 0.903989 2.7
    endloop
  endfacet
  facet normal 0 0 -1
    outer loop
      vertex -0.998795 -0.049068 2.7
      vertex -0.427555 0.903989 2.7
      vertex -0.382683 0.92388 2.7
    endloop
  endfacet
  facet normal 0 0 -1
    outer loop
      vertex -0.998795 -0.049068 2.7
      vertex -0.382683 0.92388 2.7
      vertex -0.33689 0.941544 2.7
    endloop
  endfacet
  facet normal 0 0 -1
    outer loop
      vertex -0.998795 -0.049068 2.7
      vertex -0.33689 0.941544 2.7
      vertex -0.290285 0.95694 2.7
    endloop
  endfacet
  facet normal 0 0 -1
    outer loop
      vertex -0.998795 -0.049068 2.7
      vertex -0.290285 0.95694 2.7
      vertex -0.24298 0.970031 2.7
    endloop
  endfacet
  facet normal 0 0 -1
    outer loop
      vertex -0.998795 -0.049068 2.7
      vertex -0.24298 0.970031 2.7
      vertex -0.19509 0.980785 2.7
    endloop
  endfacet
  facet normal 0 0 -1
    outer loop
      vertex -0.998795 -0.049068 2.7
      vertex -0.19509 0.980785 2.7
      vertex -0.14673 0.989177 2.7
    endloop
  endfacet
  facet normal 0 0 -1
    outer loop
      vertex -0.998795 -0.049068 2.7
      vertex -0.14673 0.989177 2.7
      vertex -0.098017 0.995185 2.7
    endloop
  endfacet
  facet normal 0 0 -1
    outer loop
      vertex -0.998795 -0.049068 2.7
      vertex -0.098017 0.995185 2.7
      vertex -0.049068 0.998795 2.7
    endloop
  endfacet
  facet normal 0 0 -1
    outer loop
      vertex -0.998795 -0.049068 2.7
      vertex -0.049068 0.998795 2.7
      vertex 0 1 2.7
    endloop
  endfacet
  facet normal 0 0 -1
    outer loop
      vertex -0.998795 -0.049068 2.7
      vertex 0 1 2.7
      vertex 0.049068 0.998795 2.7
    endloop
  endfacet
  facet normal 0 0 -1
    outer loop
      vertex -0.998795 -0.049068 2.7
      vertex 0.049068 0.998795 2.7
      vertex 0.098017 0.995185 2.7
    endloop
  endfacet
  facet normal 0 0 -1
    outer loop
      vertex -0.998795 -0.049068 2.7
      vertex 0.098017 0.995185 2.7
      vertex 0.14673 0.989177 2.7
    endloop
  endfacet
  facet normal 0 0 -1
    outer loop
      vertex -0.998795 -0.049068 2.7
      vertex 0.14673 0.989177 2.7
      vertex 0.19509 0.980785 2.7
    endloop
  endfacet
  facet normal 0 0 -1
    outer loop
      vertex -0.998795 -0.049068 2.7
      vertex 0.19509 0.980785 2.7
      vertex 0.24298 0.970031 2.7
    endloop
  endfacet
  facet normal 0 0 -1
    outer loop
      vertex -0.998795 -0.049068 2.7
      vertex 0.24298 0.970031 2.7
      vertex 0.290285 0.95694 2.7
    endloop
  endfacet
  facet normal 0 0 -1
    outer loop
      vertex -0.998795 -0.049068 2.7
      vertex 0.290285 0.95694 2.7
      vertex 0.33689 0.941544 2.7
    endloop
  endfacet
  facet normal 0 0 -1
    outer loop
      vertex -0.998795 -0.049068 2.7
      vertex 0.33689 0.941544 2.7
      vertex 0.382683 0.92388 2.7
    endloop
  endfacet
  facet normal 0 0 -1
    outer loop
      vertex -0.998795 -0.049068 2.7
      vertex 0.382683 0.92388 2.7
      vertex 0.427555 0.903989 2.7
    endloop
  endfacet
  facet normal 0 0 -1
    outer loop
      vertex -0.998795 -0.049068 2.7
      vertex 0.427555 0.903989 2.7
      vertex 0.471397 0.881921 2.7
    endloop
  endfacet
  facet normal 0 0 -1
    outer loop
      vertex -0.998795 -0.049068 2.7
      vertex 0.471397 0.881921 2.7
      vertex 0.514103 0.857729 2.7
    endloop
  endfacet
  facet normal 0 0 -1
    outer loop
      vertex -0.998795 -0.049068 2.7
      vertex 0.514103 0.857729 2.7
      vertex 0.55557 0.83147 2.7
    endloop
  endfacet
  facet normal 0 0 -1
    outer loop
      vertex -0.998795 -0.049068 2.7
      vertex 0.55557 0.83147 2.7
      vertex 0.595699 0.803208 2.7
    endloop
  endfacet
  facet normal 0 0 -1
    outer loop
      vertex -0.998795 -0.049068 2.7
      vertex 0.595699 0.803208 2.7
      vertex 0.634393 0.77301 2.7
    endloop
  endfacet
  facet normal 0 0 -1
    outer loop
      vertex -0.998795 -0.049068 2.7
      vertex 0.634393 0.77301 2.7
      vertex 0.671559 0.740951 2.7
    endloop
  endfacet
  facet normal 0 0 -1
    outer loop
      vertex -0.998795 -0.049068 2.7
      vertex 0.671559 0.740951 2.7
      vertex 0.707107 0.707107 2.7
    endloop
  endfacet
  facet normal 0 0 -1
    outer loop
      vertex -0.998795 -0.049068 2.7
      vertex 0.707107 0.707107 2.7
      vertex 0.740951 0.671559 2.7
    endloop
  endfacet
  facet normal 0 0 -1
    outer loop
      vertex -0.998795 -0.049068 2.7
      vertex 0.740951 0.671559 2.7
      vertex 0.77301 0.634393 2.7
    endloop
  endfacet
  facet normal 0 0 -1
    outer loop
      vertex -0.998795 -0.049068 2.7
      vertex 0.77301 0.634393 2.7
      vertex 0.803208 0.595699 2.7
    endloop
  endfacet
  facet normal 0 0 -1
    outer loop
      vertex -0.998795 -0.049068 2.7
      vertex 0.803208 0.595699 2.7
      vertex 0.83147 0.55557 2.7
    endloop
  endfacet
  facet normal 0 0 -1
    outer loop
      vertex -0.998795 -0.049068 2.7
      vertex 0.83147 0.55557 2.7
      vertex 0.857729 0.514103 2.7
    endloop
  endfacet
  facet normal 0 0 -1
    outer loop
      vertex -0.998795 -0.049068 2.7
      vertex 0.857729 0.514103 2.7
      vertex 0.881921 0.471397 2.7
    endloop
  endfacet
  facet normal 0 0 -1
    outer loop
      vertex -0.998795 -0.049068 2.7
      vertex 0.881921 0.471397 2.7
      vertex 0.903989 0.427555 2.7
    endloop
  endfacet
  facet normal 0 0 -1
    outer loop
      vertex -0.998795 -0.049068 2.7
      vertex 0.903989 0.427555 2.7
      vertex 0.92388 0.382683 2.7
    endloop
  endfacet
  facet normal 0 0 -1
    outer loop
      vertex -0.998795 -0.049068 2.7
      vertex 0.92388 0.382683 2.7
      vertex 0.941544 0.33689 2.7
    endloop
  endfacet
  facet normal 0 0 -1
    outer loop
      vertex -0.998795 -0.049068 2.7
      vertex 0.941544 0.33689 2.7
      vertex 0.95694 0.290285 2.7
    endloop
  endfacet
  facet normal 0 0 -1
    outer loop
      vertex -0.998795 -0.049068 2.7
      vertex 0.95694 0.290285 2.7
      vertex 0.970031 0.24298 2.7
    endloop
  endfacet
  facet normal 0 0 -1
    outer loop
      vertex -0.998795 -0.049068 2.7
      vertex 0.970031 0.24298 2.7
      vertex 0.980785 0.19509 2.7
    endloop
  endfacet
  facet normal 0 0 -1
    outer loop
      vertex -0.998795 -0.049068 2.7
      vertex 0.980785 0.19509 2.7
      vertex 0.989177 0.14673 2.7
    endloop
  endfacet
  facet normal 0 0 -1
    outer loop
      vertex -0.998795 -0.049068 2.7
      vertex 0.989177 0.14673 2.7
      vertex 0.995185 0.098017 2.7
    endloop
  endfacet
  facet normal 0 0 -1
    outer loop
      vertex -0.998795 -0.049068 2.7
      vertex 0.995185 0.098017 2.7
      vertex 0.998795 0.049068 2.7
    endloop
  endfacet
  facet normal 0 0 -1
    outer loop
      vertex -0.998795 -0.049068 2.7
      vertex 0.998795 0.049068 2.7
      vertex 1 0 2.7
    endloop
  endfacet
  facet normal 0 0 -1
    outer loop
      vertex -0.998795 -0.049068 2.7
      vertex 1 0 2.7
      vertex 0.998795 -0.049068 2.7
    endloop
  endfacet
  facet normal 0 0 -1
    outer loop
      vertex -0.998795 -0.049068 2.7
      vertex 0.998795 -0.049068 2.7
      vertex 0.995185 -0.098017 2.7
    endloop
  endfacet
  facet normal 0 0 -1
    outer loop
      vertex -0.998795 -0.049068 2.7
      vertex 0.995185 -0.098017 2.7
      vertex 0.989177 -0.14673 2.7
    endloop
  endfacet
  facet normal 0 0 -1
    outer loop
      vertex -0.998795 -0.049068 2.7
      vertex 0.989177 -0.14673 2.7
      vertex 0.980785 -0.19509 2.7
    endloop
  endfacet
  facet normal 0 0 -1
    outer loop
      vertex -0.998795 -0.049068 2.7
      vertex 0.980785 -0.19509 2.7
      vertex 0.970031 -0.24298 2.7
    endloop
  endfacet
  facet normal 0 0 -1
    outer loop
      vertex -0.998795 -0.049068 2.7
      vertex 0.970031 -0.24298 2.7
      vertex 0.95694 -0.290285 2.7
    endloop
  endfacet
  facet normal 0 0 -1
    outer loop
      vertex -0.998795 -0.049068 2.7
      vertex 0.95694 -0.290285 2.7
      vertex 0.941544 -0.33689 2.7
    endloop
  endfacet
  facet normal 0 0 -1
    outer loop
      vertex -0.998795 -0.049068 2.7
      vertex 0.941544 -0.33689 2.7
      vertex 0.92388 -0.382683 2.7
    endloop
  endfacet
  facet normal 0 0 -1
    outer loop
      vertex -0.998795 -0.049068 2.7
      vertex 0.92388 -0.382683 2.7
      vertex 0.903989 -0.427555 2.7
    endloop
  endfacet
  facet normal 0 0 -1
    outer loop
      vertex -0.998795 -0.049068 2.7
      vertex 0.903989 -0.427555 2.7
      vertex 0.881921 -0.471397 2.7
    endloop
  endfacet
  facet normal 0 0 -1
    outer loop
      vertex -0.998795 -0.049068 2.7
      vertex 0.881921 -0.471397 2.7
      vertex 0.857729 -0.514103 2.7
    endloop
  endfacet
  facet normal 0 0 -1
    outer loop
      vertex -0.998795 -0.049068 2.7
      vertex 0.857729 -0.514103 2.7
      vertex 0.83147 -0.55557 2.7
    endloop
  endfacet
  facet normal 0 0 -1
    outer loop
      vertex -0.998795 -0.049068 2.7
      vertex 0.83147 -0.55557 2.7
      vertex 0.803208 -0.595699 2.7
    endloop
  endfacet
  facet normal 0 0 -1
    outer loop
      vertex -0.998795 -0.049068 2.7
      vertex 0.803208 -0.595699 2.7
      vertex 0.77301 -0.634393 2.7
    endloop
  endfacet
  facet normal 0 0 -1
    outer loop
      vertex -0.998795 -0.049068 2.7
      vertex 0.77301 -0.634393 2.7
      vertex 0.740951 -0.671559 2.7
    endloop
  endfacet
  facet normal 0 0 -1
    outer loop
      vertex -0.998795 -0.049068 2.7
      vertex 0.740951 -0.671559 2.7
      vertex 0.707107 -0.707107 2.7
    endloop
  endfacet
  facet normal 0 0 -1
    outer loop
      vertex -0.998795 -0.049068 2.7
      vertex 0.707107 -0.707107 2.7
      vertex 0.671559 -0.740951 2.7
    endloop
  endfacet
  facet normal 0 0 -1
    outer loop
      vertex -0.998795 -0.049068 2.7
      vertex 0.671559 -0.740951 2.7
      vertex 0.634393 -0.77301 2.7
    endloop
  endfacet
  facet normal 0 0 -1
    outer loop
      vertex -0.998795 -0.049068 2.7
      vertex 0.634393 -0.77301 2.7
      vertex 0.595699 -0.803208 2.7
    endloop
  endfacet
  facet normal 0 0 -1
    outer loop
      vertex -0.998795 -0.049068 2.7
      vertex 0.595699 -0.803208 2.7
      vertex 0.55557 -0.83147 2.7
    endloop
  endfacet
  facet normal 0 0 -1
    outer loop
      vertex -0.998795 -0.049068 2.7
      vertex 0.55557 -0.83147 2.7
      vertex 0.514103 -0.857729 2.7
    endloop
  endfacet
  facet normal 0 0 -1
    outer loop
      vertex -0.998795 -0.049068 2.7
      vertex 0.514103 -0.857729 2.7
      vertex 0.471397 -0.881921 2.7
    endloop
  endfacet
  facet normal 0 0 -1
    outer loop
      vertex -0.998795 -0.049068 2.7
      vertex 0.471397 -0.881921 2.7
      vertex 0.427555 -0.903989 2.7
    endloop
  endfacet
  facet normal 0 0 -1
    outer loop
      vertex -0.998795 -0.049068 2.7
      vertex 0.427555 -0.903989 2.7
      vertex 0.382683 -0.92388 2.7
    endloop
  endfacet
  facet normal 0 0 -1
    outer loop
      vertex -0.998795 -0.049068 2.7
      vertex 0.382683 -0.92388 2.7
      vertex 0.33689 -0.941544 2.7
    endloop
  endfacet
  facet normal 0 0 -1
    outer loop
      vertex -0.998795 -0.049068 2.7
      vertex 0.33689 -0.941544 2.7
      vertex 0.290285 -0.95694 2.7
    endloop
  endfacet
  facet normal 0 0 -1
    outer loop
      vertex -0.998795 -0.049068 2.7
      vertex 0.290285 -0.95694 2.7
      vertex 0.24298 -0.970031 2.7
    endloop
  endfacet
  facet normal 0 0 -1
    outer loop
      vertex -0.998795 -0.049068 2.7
      vertex 0.24298 -0.970031 2.7
      vertex 0.19509 -0.980785 2.7
    endloop
  endfacet
  facet normal 0 0 -1
    outer loop
      vertex -0.998795 -0.049068 2.7
      vertex 0.19509 -0.980785 2.7
      vertex 0.14673 -0.989177 2.7
    endloop
  endfacet
  facet normal 0 0 -1
    outer loop
      vertex -0.998795 -0.049068 2.7
      vertex 0.14673 -0.989177 2.7
      vertex 0.098017 -0.995185 2.7
    endloop
  endfacet
  facet normal 0 0 -1
    outer loop
      vertex -0.998795 -0.049068 2.7
      vertex 0.098017 -0.995185 2.7
      vertex 0.049068 -0.998795 2.7
    endloop
  endfacet
  facet normal 0 0 -1
    outer loop
      vertex -0.998795 -0.049068 2.7
      vertex 0.049068 -0.998795 2.7
      vertex 0 -1 2.7
    endloop
  endfacet
  facet normal 0 0 -1
    outer loop
      vertex -0.998795 -0.049068 2.7
      vertex 0 -1 2.7
      vertex -0.049068 -0.998795 2.7
    endloop
  endfacet
  facet normal 0 0 -1
    outer loop
      vertex -0.998795 -0.049068 2.7
      vertex -0.049068 -0.998795 2.7
      vertex -0.098017 -0.995185 2.7
    endloop
  endfacet
  facet normal 0 0 -1
    outer loop
      vertex -0.998795 -0.049068 2.7
      vertex -0.098017 -0.995185 2.7
      vertex -0.14673 -0.989177 2.7
    endloop
  endfacet
  facet normal 0 0 -1
    outer loop
      vertex -0.998795 -0.049068 2.7
      vertex -0.14673 -0.989177 2.7
      vertex -0.19509 -0.980785 2.7
    endloop
  endfacet
  facet normal 0 0 -1
    outer loop
      vertex -0.998795 -0.049068 2.7
      vertex -0.19509 -0.980785 2.7
      vertex -0.24298 -0.970031 2.7
    endloop
  endfacet
  facet normal 0 0 -1
    outer loop
      vertex -0.998795 -0.049068 2.7
      vertex -0.24298 -0.970031 2.7
      vertex -0.290285 -0.95694 2.7
    endloop
  endfacet
  facet normal 0 0 -1
    outer loop
      vertex -0.998795 -0.049068 2.7
      vertex -0.290285 -0.95694 2.7
      vertex -0.33689 -0.941544 2.7
    endloop
  endfacet
  facet normal 0 0 -1
    outer loop
      vertex -0.998795 -0.049068 2.7
      vertex -0.33689 -0.941544 2.7
      vertex -0.382683 -0.92388 2.7
    endloop
  endfacet
  facet normal 0 0 -1
    outer loop
      vertex -0.998795 -0.049068 2.7
      vertex -0.382683 -0.92388 2.7
      vertex -0.427555 -0.903989 2.7
    endloop
  endfacet
  facet normal 0 0 -1
    outer loop
      vertex -0.998795 -0.049068 2.7
      vertex -0.427555 -0.903989 2.7
      vertex -0.471397 -0.881921 2.7
    endloop
  endfacet
  facet normal 0 0 -1
    outer loop
      vertex -0.998795 -0.049068 2.7
      vertex -0.471397 -0.881921 2.7
      vertex -0.514103 -0.857729 2.7
    endloop
  endfacet
  facet normal 0 0 -1
    outer loop
      vertex -0.998795 -0.049068 2.7
      vertex -0.514103 -0.857729 2.7
      vertex -0.55557 -0.83147 2.7
    endloop
  endfacet
  facet normal 0 0 -1
    outer loop
      vertex -0.998795 -0.049068 2.7
      vertex -0.55557 -0.83147 2.7
      vertex -0.595699 -0.803208 2.7
    endloop
  endfacet
  facet normal 0 0 -1
    outer loop
      vertex -0.998795 -0.049068 2.7
      vertex -0.595699 -0.803208 2.7
      vertex -0.634393 -0.77301 2.7
    endloop
  endfacet
  facet normal 0 0 -1
    outer loop
      vertex -0.998795 -0.049068 2.7
      vertex -0.634393 -0.77301 2.7
      vertex -0.671559 -0.740951 2.7
    endloop
  endfacet
  facet normal 0 0 -1
    outer loop
      vertex -0.998795 -0.049068 2.7
      vertex -0.671559 -0.740951 2.7
      vertex -0.707107 -0.707107 2.7
    endloop
  endfacet
  facet normal 0 0 -1
    outer loop
      vertex -0.998795 -0.049068 2.7
      vertex -0.707107 -0.707107 2.7
      vertex -0.740951 -0.671559 2.7
    endloop
  endfacet
  facet normal 0 0 -1
    outer loop
      vertex -0.998795 -0.049068 2.7
      vertex -0.740951 -0.671559 2.7
      vertex -0.77301 -0.634393 2.7
    endloop
  endfacet
  facet normal 0 0 -1
    outer loop
      vertex -0.998795 -0.049068 2.7
      vertex -0.77301 -0.634393 2.7
      vertex -0.803208 -0.595699 2.7
    endloop
  endfacet
  facet normal 0 0 -1
    outer loop
      vertex -0.998795 -0.049068 2.7
      vertex -0.803208 -0.595699 2.7
      vertex -0.83147 -0.55557 2.7
    endloop
  endfacet
  facet normal 0 0 -1
    outer loop
      vertex -0.998795 -0.049068 2.7
      vertex -0.83147 -0.55557 2.7
      vertex -0.857729 -0.514103 2.7
    endloop
  endfacet
  facet normal 0 0 -1
    outer loop
      vertex -0.998795 -0.049068 2.7
      vertex -0.857729 -0.514103 2.7
      vertex -0.881921 -0.471397 2.7
    endloop
  endfacet
  facet normal 0 0 -1
    outer loop
      vertex -0.998795 -0.049068 2.7
      vertex -0.881921 -0.471397 2.7
      vertex -0.903989 -0.427555 2.7
    endloop
  endfacet
  facet normal 0 0 -1
    outer loop
      vertex -0.998795 -0.049068 2.7
      vertex -0.903989 -0.427555 2.7
      vertex -0.92388 -0.382683 2.7
    endloop
  endfacet
  facet normal 0 0 -1
    outer loop
      vertex -0.998795 -0.049068 2.7
      vertex -0.92388 -0.382683 2.7
      vertex -0.941544 -0.33689 2.7
    endloop
  endfacet
  facet normal 0 0 -1
    outer loop
      vertex -0.998795 -0.049068 2.7
      vertex -0.941544 -0.33689 2.7
      vertex -0.95694 -0.290285 2.7
    endloop
  endfacet
  facet normal 0 0 -1
    outer loop
      vertex -0.998795 -0.049068 2.7
      vertex -0.95694 -0.290285 2.7
      vertex -0.970031 -0.24298 2.7
    endloop
  endfacet
  facet normal 0 0 -1
    outer loop
      vertex -0.998795 -0.049068 2.7
      vertex -0.970031 -0.24298 2.7
      vertex -0.980785 -0.19509 2.7
    endloop
  endfacet
  facet normal 0 0 -1
    outer loop
      vertex -0.998795 -0.049068 2.7
      vertex -0.980785 -0.19509 2.7
      vertex -0.989177 -0.14673 2.7
    endloop
  endfacet
  facet normal 0 0 -1
    outer loop
      vertex -0.998795 -0.049068 2.7
      vertex -0.989177 -0.14673 2.7
      vertex -0.995185 -0.098017 2.7
    endloop
  endfacet
  facet normal -0.999699 0.0245504 0
    outer loop
      vertex -1 0 2.7
      vertex -1 0 12.85
      vertex -0.998795 0.049068 2.7
    endloop
  endfacet
  facet normal -0.999699 0.0245504 0
    outer loop
      vertex -0.998795 0.049068 2.7
      vertex -1 0 12.85
      vertex -0.998795 0.049068 12.85
    endloop
  endfacet
  facet normal -0.999699 -0.0245504 0
    outer loop
      vertex -1 0 2.7
      vertex -0.998795 -0.049068 2.7
      vertex -1 0 12.85
    endloop
  endfacet
  facet normal -0.999699 -0.0245504 0
    outer loop
      vertex -1 0 12.85
      vertex -0.998795 -0.049068 2.7
      vertex -0.998795 -0.049068 12.85
    endloop
  endfacet
  facet normal -0.997291 -0.0735505 0
    outer loop
      vertex -0.998795 -0.049068 2.7
      vertex -0.995185 -0.098017 2.7
      vertex -0.998795 -0.049068 12.85
    endloop
  endfacet
  facet normal -0.997291 -0.0735505 0
    outer loop
      vertex -0.998795 -0.049068 12.85
      vertex -0.995185 -0.098017 2.7
      vertex -0.995185 -0.098017 12.85
    endloop
  endfacet
  facet normal -0.99248 -0.122407 0
    outer loop
      vertex -0.995185 -0.098017 2.7
      vertex -0.989177 -0.14673 2.7
      vertex -0.995185 -0.098017 12.85
    endloop
  endfacet
  facet normal -0.99248 -0.122407 0
    outer loop
      vertex -0.995185 -0.098017 12.85
      vertex -0.989177 -0.14673 2.7
      vertex -0.989177 -0.14673 12.85
    endloop
  endfacet
  facet normal -0.985275 -0.170977 0
    outer loop
      vertex -0.989177 -0.14673 2.7
      vertex -0.980785 -0.19509 2.7
      vertex -0.989177 -0.14673 12.85
    endloop
  endfacet
  facet normal -0.985275 -0.170977 0
    outer loop
      vertex -0.989177 -0.14673 12.85
      vertex -0.980785 -0.19509 2.7
      vertex -0.980785 -0.19509 12.85
    endloop
  endfacet
  facet normal -0.975702 -0.2191 0
    outer loop
      vertex -0.980785 -0.19509 2.7
      vertex -0.970031 -0.24298 2.7
      vertex -0.980785 -0.19509 12.85
    endloop
  endfacet
  facet normal -0.975702 -0.2191 0
    outer loop
      vertex -0.980785 -0.19509 12.85
      vertex -0.970031 -0.24298 2.7
      vertex -0.970031 -0.24298 12.85
    endloop
  endfacet
  facet normal -0.963776 -0.266712 0
    outer loop
      vertex -0.970031 -0.24298 2.7
      vertex -0.95694 -0.290285 2.7
      vertex -0.970031 -0.24298 12.85
    endloop
  endfacet
  facet normal -0.963776 -0.266712 0
    outer loop
      vertex -0.970031 -0.24298 12.85
      vertex -0.95694 -0.290285 2.7
      vertex -0.95694 -0.290285 12.85
    endloop
  endfacet
  facet normal -0.949529 -0.313678 0
    outer loop
      vertex -0.95694 -0.290285 2.7
      vertex -0.941544 -0.33689 2.7
      vertex -0.95694 -0.290285 12.85
    endloop
  endfacet
  facet normal -0.949529 -0.313678 0
    outer loop
      vertex -0.95694 -0.290285 12.85
      vertex -0.941544 -0.33689 2.7
      vertex -0.941544 -0.33689 12.85
    endloop
  endfacet
  facet normal -0.932995 -0.35989 0
    outer loop
      vertex -0.941544 -0.33689 2.7
      vertex -0.92388 -0.382683 2.7
      vertex -0.941544 -0.33689 12.85
    endloop
  endfacet
  facet normal -0.932995 -0.35989 0
    outer loop
      vertex -0.941544 -0.33689 12.85
      vertex -0.92388 -0.382683 2.7
      vertex -0.92388 -0.382683 12.85
    endloop
  endfacet
  facet normal -0.914205 -0.405252 0
    outer loop
      vertex -0.92388 -0.382683 2.7
      vertex -0.903989 -0.427555 2.7
      vertex -0.92388 -0.382683 12.85
    endloop
  endfacet
  facet normal -0.914205 -0.405252 0
    outer loop
      vertex -0.92388 -0.382683 12.85
      vertex -0.903989 -0.427555 2.7
      vertex -0.903989 -0.427555 12.85
    endloop
  endfacet
  facet normal -0.893226 -0.449608 0
    outer loop
      vertex -0.903989 -0.427555 2.7
      vertex -0.881921 -0.471397 2.7
      vertex -0.903989 -0.427555 12.85
    endloop
  endfacet
  facet normal -0.893226 -0.449608 0
    outer loop
      vertex -0.903989 -0.427555 12.85
      vertex -0.881921 -0.471397 2.7
      vertex -0.881921 -0.471397 12.85
    endloop
  endfacet
  facet normal -0.870093 -0.492888 0
    outer loop
      vertex -0.881921 -0.471397 2.7
      vertex -0.857729 -0.514103 2.7
      vertex -0.881921 -0.471397 12.85
    endloop
  endfacet
  facet normal -0.870093 -0.492888 0
    outer loop
      vertex -0.881921 -0.471397 12.85
      vertex -0.857729 -0.514103 2.7
      vertex -0.857729 -0.514103 12.85
    endloop
  endfacet
  facet normal -0.844851 -0.535002 0
    outer loop
      vertex -0.857729 -0.514103 2.7
      vertex -0.83147 -0.55557 2.7
      vertex -0.857729 -0.514103 12.85
    endloop
  endfacet
  facet normal -0.844851 -0.535002 0
    outer loop
      vertex -0.857729 -0.514103 12.85
      vertex -0.83147 -0.55557 2.7
      vertex -0.83147 -0.55557 12.85
    endloop
  endfacet
  facet normal -0.817585 -0.575808 0
    outer loop
      vertex -0.83147 -0.55557 2.7
      vertex -0.803208 -0.595699 2.7
      vertex -0.83147 -0.55557 12.85
    endloop
  endfacet
  facet normal -0.817585 -0.575808 0
    outer loop
      vertex -0.83147 -0.55557 12.85
      vertex -0.803208 -0.595699 2.7
      vertex -0.803208 -0.595699 12.85
    endloop
  endfacet
  facet normal -0.788337 -0.615243 0
    outer loop
      vertex -0.803208 -0.595699 2.7
      vertex -0.77301 -0.634393 2.7
      vertex -0.803208 -0.595699 12.85
    endloop
  endfacet
  facet normal -0.788337 -0.615243 0
    outer loop
      vertex -0.803208 -0.595699 12.85
      vertex -0.77301 -0.634393 2.7
      vertex -0.77301 -0.634393 12.85
    endloop
  endfacet
  facet normal -0.757215 -0.653166 0
    outer loop
      vertex -0.77301 -0.634393 2.7
      vertex -0.740951 -0.671559 2.7
      vertex -0.77301 -0.634393 12.85
    endloop
  endfacet
  facet normal -0.757215 -0.653166 0
    outer loop
      vertex -0.77301 -0.634393 12.85
      vertex -0.740951 -0.671559 2.7
      vertex -0.740951 -0.671559 12.85
    endloop
  endfacet
  facet normal -0.724252 -0.689535 0
    outer loop
      vertex -0.740951 -0.671559 2.7
      vertex -0.707107 -0.707107 2.7
      vertex -0.740951 -0.671559 12.85
    endloop
  endfacet
  facet normal -0.724252 -0.689535 0
    outer loop
      vertex -0.740951 -0.671559 12.85
      vertex -0.707107 -0.707107 2.7
      vertex -0.707107 -0.707107 12.85
    endloop
  endfacet
  facet normal -0.689535 -0.724252 0
    outer loop
      vertex -0.707107 -0.707107 12.85
      vertex -0.707107 -0.707107 2.7
      vertex -0.671559 -0.740951 2.7
    endloop
  endfacet
  facet normal -0.689535 -0.724252 0
    outer loop
      vertex -0.671559 -0.740951 12.85
      vertex -0.707107 -0.707107 12.85
      vertex -0.671559 -0.740951 2.7
    endloop
  endfacet
  facet normal -0.653166 -0.757215 0
    outer loop
      vertex -0.671559 -0.740951 12.85
      vertex -0.671559 -0.740951 2.7
      vertex -0.634393 -0.77301 2.7
    endloop
  endfacet
  facet normal -0.653166 -0.757215 0
    outer loop
      vertex -0.634393 -0.77301 12.85
      vertex -0.671559 -0.740951 12.85
      vertex -0.634393 -0.77301 2.7
    endloop
  endfacet
  facet normal -0.615243 -0.788337 0
    outer loop
      vertex -0.634393 -0.77301 12.85
      vertex -0.634393 -0.77301 2.7
      vertex -0.595699 -0.803208 2.7
    endloop
  endfacet
  facet normal -0.615243 -0.788337 0
    outer loop
      vertex -0.595699 -0.803208 12.85
      vertex -0.634393 -0.77301 12.85
      vertex -0.595699 -0.803208 2.7
    endloop
  endfacet
  facet normal -0.575808 -0.817585 0
    outer loop
      vertex -0.595699 -0.803208 12.85
      vertex -0.595699 -0.803208 2.7
      vertex -0.55557 -0.83147 2.7
    endloop
  endfacet
  facet normal -0.575808 -0.817585 0
    outer loop
      vertex -0.55557 -0.83147 12.85
      vertex -0.595699 -0.803208 12.85
      vertex -0.55557 -0.83147 2.7
    endloop
  endfacet
  facet normal -0.535002 -0.844851 0
    outer loop
      vertex -0.55557 -0.83147 12.85
      vertex -0.55557 -0.83147 2.7
      vertex -0.514103 -0.857729 2.7
    endloop
  endfacet
  facet normal -0.535002 -0.844851 0
    outer loop
      vertex -0.514103 -0.857729 12.85
      vertex -0.55557 -0.83147 12.85
      vertex -0.514103 -0.857729 2.7
    endloop
  endfacet
  facet normal -0.492888 -0.870093 0
    outer loop
      vertex -0.514103 -0.857729 12.85
      vertex -0.514103 -0.857729 2.7
      vertex -0.471397 -0.881921 2.7
    endloop
  endfacet
  facet normal -0.492888 -0.870093 0
    outer loop
      vertex -0.471397 -0.881921 12.85
      vertex -0.514103 -0.857729 12.85
      vertex -0.471397 -0.881921 2.7
    endloop
  endfacet
  facet normal -0.449608 -0.893226 0
    outer loop
      vertex -0.471397 -0.881921 12.85
      vertex -0.471397 -0.881921 2.7
      vertex -0.427555 -0.903989 2.7
    endloop
  endfacet
  facet normal -0.449608 -0.893226 0
    outer loop
      vertex -0.427555 -0.903989 12.85
      vertex -0.471397 -0.881921 12.85
      vertex -0.427555 -0.903989 2.7
    endloop
  endfacet
  facet normal -0.405252 -0.914205 0
    outer loop
      vertex -0.427555 -0.903989 12.85
      vertex -0.427555 -0.903989 2.7
      vertex -0.382683 -0.92388 2.7
    endloop
  endfacet
  facet normal -0.405252 -0.914205 0
    outer loop
      vertex -0.382683 -0.92388 12.85
      vertex -0.427555 -0.903989 12.85
      vertex -0.382683 -0.92388 2.7
    endloop
  endfacet
  facet normal -0.35989 -0.932995 0
    outer loop
      vertex -0.382683 -0.92388 12.85
      vertex -0.382683 -0.92388 2.7
      vertex -0.33689 -0.941544 2.7
    endloop
  endfacet
  facet normal -0.35989 -0.932995 0
    outer loop
      vertex -0.33689 -0.941544 12.85
      vertex -0.382683 -0.92388 12.85
      vertex -0.33689 -0.941544 2.7
    endloop
  endfacet
  facet normal -0.313678 -0.949529 0
    outer loop
      vertex -0.33689 -0.941544 12.85
      vertex -0.33689 -0.941544 2.7
      vertex -0.290285 -0.95694 2.7
    endloop
  endfacet
  facet normal -0.313678 -0.949529 0
    outer loop
      vertex -0.290285 -0.95694 12.85
      vertex -0.33689 -0.941544 12.85
      vertex -0.290285 -0.95694 2.7
    endloop
  endfacet
  facet normal -0.266712 -0.963776 0
    outer loop
      vertex -0.290285 -0.95694 12.85
      vertex -0.290285 -0.95694 2.7
      vertex -0.24298 -0.970031 2.7
    endloop
  endfacet
  facet normal -0.266712 -0.963776 0
    outer loop
      vertex -0.24298 -0.970031 12.85
      vertex -0.290285 -0.95694 12.85
      vertex -0.24298 -0.970031 2.7
    endloop
  endfacet
  facet normal -0.2191 -0.975702 0
    outer loop
      vertex -0.24298 -0.970031 12.85
      vertex -0.24298 -0.970031 2.7
      vertex -0.19509 -0.980785 2.7
    endloop
  endfacet
  facet normal -0.2191 -0.975702 0
    outer loop
      vertex -0.19509 -0.980785 12.85
      vertex -0.24298 -0.970031 12.85
      vertex -0.19509 -0.980785 2.7
    endloop
  endfacet
  facet normal -0.170977 -0.985275 0
    outer loop
      vertex -0.19509 -0.980785 12.85
      vertex -0.19509 -0.980785 2.7
      vertex -0.14673 -0.989177 2.7
    endloop
  endfacet
  facet normal -0.170977 -0.985275 0
    outer loop
      vertex -0.14673 -0.989177 12.85
      vertex -0.19509 -0.980785 12.85
      vertex -0.14673 -0.989177 2.7
    endloop
  endfacet
  facet normal -0.122407 -0.99248 0
    outer loop
      vertex -0.14673 -0.989177 12.85
      vertex -0.14673 -0.989177 2.7
      vertex -0.098017 -0.995185 2.7
    endloop
  endfacet
  facet normal -0.122407 -0.99248 0
    outer loop
      vertex -0.098017 -0.995185 12.85
      vertex -0.14673 -0.989177 12.85
      vertex -0.098017 -0.995185 2.7
    endloop
  endfacet
  facet normal -0.0735505 -0.997291 0
    outer loop
      vertex -0.098017 -0.995185 12.85
      vertex -0.098017 -0.995185 2.7
      vertex -0.049068 -0.998795 2.7
    endloop
  endfacet
  facet normal -0.0735505 -0.997291 0
    outer loop
      vertex -0.049068 -0.998795 12.85
      vertex -0.098017 -0.995185 12.85
      vertex -0.049068 -0.998795 2.7
    endloop
  endfacet
  facet normal -0.0245504 -0.999699 0
    outer loop
      vertex -0.049068 -0.998795 12.85
      vertex -0.049068 -0.998795 2.7
      vertex 0 -1 2.7
    endloop
  endfacet
  facet normal -0.0245504 -0.999699 0
    outer loop
      vertex 0 -1 12.85
      vertex -0.049068 -0.998795 12.85
      vertex 0 -1 2.7
    endloop
  endfacet
  facet normal 0.0245504 -0.999699 0
    outer loop
      vertex 0 -1 12.85
      vertex 0 -1 2.7
      vertex 0.049068 -0.998795 2.7
    endloop
  endfacet
  facet normal 0.0245504 -0.999699 0
    outer loop
      vertex 0.049068 -0.998795 12.85
      vertex 0 -1 12.85
      vertex 0.049068 -0.998795 2.7
    endloop
  endfacet
  facet normal 0.0735505 -0.997291 0
    outer loop
      vertex 0.049068 -0.998795 12.85
      vertex 0.049068 -0.998795 2.7
      vertex 0.098017 -0.995185 2.7
    endloop
  endfacet
  facet normal 0.0735505 -0.997291 0
    outer loop
      vertex 0.098017 -0.995185 12.85
      vertex 0.049068 -0.998795 12.85
      vertex 0.098017 -0.995185 2.7
    endloop
  endfacet
  facet normal 0.122407 -0.99248 0
    outer loop
      vertex 0.098017 -0.995185 12.85
      vertex 0.098017 -0.995185 2.7
      vertex 0.14673 -0.989177 2.7
    endloop
  endfacet
  facet normal 0.122407 -0.99248 0
    outer loop
      vertex 0.14673 -0.989177 12.85
      vertex 0.098017 -0.995185 12.85
      vertex 0.14673 -0.989177 2.7
    endloop
  endfacet
  facet normal 0.170977 -0.985275 0
    outer loop
      vertex 0.14673 -0.989177 12.85
      vertex 0.14673 -0.989177 2.7
      vertex 0.19509 -0.980785 2.7
    endloop
  endfacet
  facet normal 0.170977 -0.985275 0
    outer loop
      vertex 0.19509 -0.980785 12.85
      vertex 0.14673 -0.989177 12.85
      vertex 0.19509 -0.980785 2.7
    endloop
  endfacet
  facet normal 0.2191 -0.975702 0
    outer loop
      vertex 0.19509 -0.980785 12.85
      vertex 0.19509 -0.980785 2.7
      vertex 0.24298 -0.970031 2.7
    endloop
  endfacet
  facet normal 0.2191 -0.975702 0
    outer loop
      vertex 0.24298 -0.970031 12.85
      vertex 0.19509 -0.980785 12.85
      vertex 0.24298 -0.970031 2.7
    endloop
  endfacet
  facet normal 0.266712 -0.963776 0
    outer loop
      vertex 0.24298 -0.970031 12.85
      vertex 0.24298 -0.970031 2.7
      vertex 0.290285 -0.95694 2.7
    endloop
  endfacet
  facet normal 0.266712 -0.963776 0
    outer loop
      vertex 0.290285 -0.95694 12.85
      vertex 0.24298 -0.970031 12.85
      vertex 0.290285 -0.95694 2.7
    endloop
  endfacet
  facet normal 0.313678 -0.949529 0
    outer loop
      vertex 0.290285 -0.95694 12.85
      vertex 0.290285 -0.95694 2.7
      vertex 0.33689 -0.941544 2.7
    endloop
  endfacet
  facet normal 0.313678 -0.949529 0
    outer loop
      vertex 0.33689 -0.941544 12.85
      vertex 0.290285 -0.95694 12.85
      vertex 0.33689 -0.941544 2.7
    endloop
  endfacet
  facet normal 0.35989 -0.932995 0
    outer loop
      vertex 0.33689 -0.941544 12.85
      vertex 0.33689 -0.941544 2.7
      vertex 0.382683 -0.92388 2.7
    endloop
  endfacet
  facet normal 0.35989 -0.932995 0
    outer loop
      vertex 0.382683 -0.92388 12.85
      vertex 0.33689 -0.941544 12.85
      vertex 0.382683 -0.92388 2.7
    endloop
  endfacet
  facet normal 0.405252 -0.914205 0
    outer loop
      vertex 0.382683 -0.92388 12.85
      vertex 0.382683 -0.92388 2.7
      vertex 0.427555 -0.903989 2.7
    endloop
  endfacet
  facet normal 0.405252 -0.914205 0
    outer loop
      vertex 0.427555 -0.903989 12.85
      vertex 0.382683 -0.92388 12.85
      vertex 0.427555 -0.903989 2.7
    endloop
  endfacet
  facet normal 0.449608 -0.893226 0
    outer loop
      vertex 0.427555 -0.903989 12.85
      vertex 0.427555 -0.903989 2.7
      vertex 0.471397 -0.881921 2.7
    endloop
  endfacet
  facet normal 0.449608 -0.893226 0
    outer loop
      vertex 0.471397 -0.881921 12.85
      vertex 0.427555 -0.903989 12.85
      vertex 0.471397 -0.881921 2.7
    endloop
  endfacet
  facet normal 0.492888 -0.870093 0
    outer loop
      vertex 0.471397 -0.881921 12.85
      vertex 0.471397 -0.881921 2.7
      vertex 0.514103 -0.857729 2.7
    endloop
  endfacet
  facet normal 0.492888 -0.870093 0
    outer loop
      vertex 0.514103 -0.857729 12.85
      vertex 0.471397 -0.881921 12.85
      vertex 0.514103 -0.857729 2.7
    endloop
  endfacet
  facet normal 0.535002 -0.844851 0
    outer loop
      vertex 0.514103 -0.857729 12.85
      vertex 0.514103 -0.857729 2.7
      vertex 0.55557 -0.83147 2.7
    endloop
  endfacet
  facet normal 0.535002 -0.844851 0
    outer loop
      vertex 0.55557 -0.83147 12.85
      vertex 0.514103 -0.857729 12.85
      vertex 0.55557 -0.83147 2.7
    endloop
  endfacet
  facet normal 0.575808 -0.817585 0
    outer loop
      vertex 0.55557 -0.83147 12.85
      vertex 0.55557 -0.83147 2.7
      vertex 0.595699 -0.803208 2.7
    endloop
  endfacet
  facet normal 0.575808 -0.817585 0
    outer loop
      vertex 0.595699 -0.803208 12.85
      vertex 0.55557 -0.83147 12.85
      vertex 0.595699 -0.803208 2.7
    endloop
  endfacet
  facet normal 0.615243 -0.788337 0
    outer loop
      vertex 0.595699 -0.803208 12.85
      vertex 0.595699 -0.803208 2.7
      vertex 0.634393 -0.77301 2.7
    endloop
  endfacet
  facet normal 0.615243 -0.788337 0
    outer loop
      vertex 0.634393 -0.77301 12.85
      vertex 0.595699 -0.803208 12.85
      vertex 0.634393 -0.77301 2.7
    endloop
  endfacet
  facet normal 0.653166 -0.757215 0
    outer loop
      vertex 0.634393 -0.77301 12.85
      vertex 0.634393 -0.77301 2.7
      vertex 0.671559 -0.740951 2.7
    endloop
  endfacet
  facet normal 0.653166 -0.757215 0
    outer loop
      vertex 0.671559 -0.740951 12.85
      vertex 0.634393 -0.77301 12.85
      vertex 0.671559 -0.740951 2.7
    endloop
  endfacet
  facet normal 0.689535 -0.724252 0
    outer loop
      vertex 0.671559 -0.740951 12.85
      vertex 0.671559 -0.740951 2.7
      vertex 0.707107 -0.707107 2.7
    endloop
  endfacet
  facet normal 0.689535 -0.724252 0
    outer loop
      vertex 0.707107 -0.707107 12.85
      vertex 0.671559 -0.740951 12.85
      vertex 0.707107 -0.707107 2.7
    endloop
  endfacet
  facet normal 0.724252 -0.689535 0
    outer loop
      vertex 0.707107 -0.707107 12.85
      vertex 0.707107 -0.707107 2.7
      vertex 0.740951 -0.671559 2.7
    endloop
  endfacet
  facet normal 0.724252 -0.689535 0
    outer loop
      vertex 0.740951 -0.671559 12.85
      vertex 0.707107 -0.707107 12.85
      vertex 0.740951 -0.671559 2.7
    endloop
  endfacet
  facet normal 0.757215 -0.653166 0
    outer loop
      vertex 0.740951 -0.671559 12.85
      vertex 0.740951 -0.671559 2.7
      vertex 0.77301 -0.634393 2.7
    endloop
  endfacet
  facet normal 0.757215 -0.653166 0
    outer loop
      vertex 0.77301 -0.634393 12.85
      vertex 0.740951 -0.671559 12.85
      vertex 0.77301 -0.634393 2.7
    endloop
  endfacet
  facet normal 0.788337 -0.615243 0
    outer loop
      vertex 0.77301 -0.634393 12.85
      vertex 0.77301 -0.634393 2.7
      vertex 0.803208 -0.595699 2.7
    endloop
  endfacet
  facet normal 0.788337 -0.615243 0
    outer loop
      vertex 0.803208 -0.595699 12.85
      vertex 0.77301 -0.634393 12.85
      vertex 0.803208 -0.595699 2.7
    endloop
  endfacet
  facet normal 0.817585 -0.575808 0
    outer loop
      vertex 0.803208 -0.595699 12.85
      vertex 0.803208 -0.595699 2.7
      vertex 0.83147 -0.55557 2.7
    endloop
  endfacet
  facet normal 0.817585 -0.575808 0
    outer loop
      vertex 0.83147 -0.55557 12.85
      vertex 0.803208 -0.595699 12.85
      vertex 0.83147 -0.55557 2.7
    endloop
  endfacet
  facet normal 0.844851 -0.535002 0
    outer loop
      vertex 0.83147 -0.55557 12.85
      vertex 0.83147 -0.55557 2.7
      vertex 0.857729 -0.514103 2.7
    endloop
  endfacet
  facet normal 0.844851 -0.535002 0
    outer loop
      vertex 0.857729 -0.514103 12.85
      vertex 0.83147 -0.55557 12.85
      vertex 0.857729 -0.514103 2.7
    endloop
  endfacet
  facet normal 0.870093 -0.492888 0
    outer loop
      vertex 0.857729 -0.514103 12.85
      vertex 0.857729 -0.514103 2.7
      vertex 0.881921 -0.471397 2.7
    endloop
  endfacet
  facet normal 0.870093 -0.492888 0
    outer loop
      vertex 0.881921 -0.471397 12.85
      vertex 0.857729 -0.514103 12.85
      vertex 0.881921 -0.471397 2.7
    endloop
  endfacet
  facet normal 0.893226 -0.449608 0
    outer loop
      vertex 0.881921 -0.471397 12.85
      vertex 0.881921 -0.471397 2.7
      vertex 0.903989 -0.427555 2.7
    endloop
  endfacet
  facet normal 0.893226 -0.449608 0
    outer loop
      vertex 0.903989 -0.427555 12.85
      vertex 0.881921 -0.471397 12.85
      vertex 0.903989 -0.427555 2.7
    endloop
  endfacet
  facet normal 0.914205 -0.405252 0
    outer loop
      vertex 0.903989 -0.427555 12.85
      vertex 0.903989 -0.427555 2.7
      vertex 0.92388 -0.382683 2.7
    endloop
  endfacet
  facet normal 0.914205 -0.405252 0
    outer loop
      vertex 0.92388 -0.382683 12.85
      vertex 0.903989 -0.427555 12.85
      vertex 0.92388 -0.382683 2.7
    endloop
  endfacet
  facet normal 0.932995 -0.35989 0
    outer loop
      vertex 0.92388 -0.382683 12.85
      vertex 0.92388 -0.382683 2.7
      vertex 0.941544 -0.33689 2.7
    endloop
  endfacet
  facet normal 0.932995 -0.35989 0
    outer loop
      vertex 0.941544 -0.33689 12.85
      vertex 0.92388 -0.382683 12.85
      vertex 0.941544 -0.33689 2.7
    endloop
  endfacet
  facet normal 0.949529 -0.313678 0
    outer loop
      vertex 0.941544 -0.33689 12.85
      vertex 0.941544 -0.33689 2.7
      vertex 0.95694 -0.290285 2.7
    endloop
  endfacet
  facet normal 0.949529 -0.313678 0
    outer loop
      vertex 0.95694 -0.290285 12.85
      vertex 0.941544 -0.33689 12.85
      vertex 0.95694 -0.290285 2.7
    endloop
  endfacet
  facet normal 0.963776 -0.266712 0
    outer loop
      vertex 0.95694 -0.290285 12.85
      vertex 0.95694 -0.290285 2.7
      vertex 0.970031 -0.24298 2.7
    endloop
  endfacet
  facet normal 0.963776 -0.266712 0
    outer loop
      vertex 0.970031 -0.24298 12.85
      vertex 0.95694 -0.290285 12.85
      vertex 0.970031 -0.24298 2.7
    endloop
  endfacet
  facet normal 0.975702 -0.2191 0
    outer loop
      vertex 0.970031 -0.24298 12.85
      vertex 0.970031 -0.24298 2.7
      vertex 0.980785 -0.19509 2.7
    endloop
  endfacet
  facet normal 0.975702 -0.2191 0
    outer loop
      vertex 0.980785 -0.19509 12.85
      vertex 0.970031 -0.24298 12.85
      vertex 0.980785 -0.19509 2.7
    endloop
  endfacet
  facet normal 0.985275 -0.170977 0
    outer loop
      vertex 0.980785 -0.19509 12.85
      vertex 0.980785 -0.19509 2.7
      vertex 0.989177 -0.14673 2.7
    endloop
  endfacet
  facet normal 0.985275 -0.170977 0
    outer loop
      vertex 0.989177 -0.14673 12.85
      vertex 0.980785 -0.19509 12.85
      vertex 0.989177 -0.14673 2.7
    endloop
  endfacet
  facet normal 0.99248 -0.122407 0
    outer loop
      vertex 0.989177 -0.14673 12.85
      vertex 0.989177 -0.14673 2.7
      vertex 0.995185 -0.098017 2.7
    endloop
  endfacet
  facet normal 0.99248 -0.122407 0
    outer loop
      vertex 0.995185 -0.098017 12.85
      vertex 0.989177 -0.14673 12.85
      vertex 0.995185 -0.098017 2.7
    endloop
  endfacet
  facet normal 0.997291 -0.0735505 0
    outer loop
      vertex 0.995185 -0.098017 12.85
      vertex 0.995185 -0.098017 2.7
      vertex 0.998795 -0.049068 2.7
    endloop
  endfacet
  facet normal 0.997291 -0.0735505 0
    outer loop
      vertex 0.998795 -0.049068 12.85
      vertex 0.995185 -0.098017 12.85
      vertex 0.998795 -0.049068 2.7
    endloop
  endfacet
  facet normal 0.999699 -0.0245504 0
    outer loop
      vertex 0.998795 -0.049068 12.85
      vertex 0.998795 -0.049068 2.7
      vertex 1 0 2.7
    endloop
  endfacet
  facet normal 0.999699 -0.0245504 0
    outer loop
      vertex 1 0 12.85
      vertex 0.998795 -0.049068 12.85
      vertex 1 0 2.7
    endloop
  endfacet
  facet normal 0.999699 0.0245504 0
    outer loop
      vertex 1 0 2.7
      vertex 0.998795 0.049068 2.7
      vertex 0.998795 0.049068 12.85
    endloop
  endfacet
  facet normal 0.999699 0.0245504 0
    outer loop
      vertex 1 0 12.85
      vertex 1 0 2.7
      vertex 0.998795 0.049068 12.85
    endloop
  endfacet
  facet normal 0.997291 0.0735505 0
    outer loop
      vertex 0.998795 0.049068 2.7
      vertex 0.995185 0.098017 2.7
      vertex 0.995185 0.098017 12.85
    endloop
  endfacet
  facet normal 0.997291 0.0735505 0
    outer loop
      vertex 0.998795 0.049068 12.85
      vertex 0.998795 0.049068 2.7
      vertex 0.995185 0.098017 12.85
    endloop
  endfacet
  facet normal 0.99248 0.122407 0
    outer loop
      vertex 0.995185 0.098017 2.7
      vertex 0.989177 0.14673 2.7
      vertex 0.989177 0.14673 12.85
    endloop
  endfacet
  facet normal 0.99248 0.122407 0
    outer loop
      vertex 0.995185 0.098017 12.85
      vertex 0.995185 0.098017 2.7
      vertex 0.989177 0.14673 12.85
    endloop
  endfacet
  facet normal 0.985275 0.170977 0
    outer loop
      vertex 0.989177 0.14673 2.7
      vertex 0.980785 0.19509 2.7
      vertex 0.980785 0.19509 12.85
    endloop
  endfacet
  facet normal 0.985275 0.170977 0
    outer loop
      vertex 0.989177 0.14673 12.85
      vertex 0.989177 0.14673 2.7
      vertex 0.980785 0.19509 12.85
    endloop
  endfacet
  facet normal 0.975702 0.2191 0
    outer loop
      vertex 0.980785 0.19509 2.7
      vertex 0.970031 0.24298 2.7
      vertex 0.970031 0.24298 12.85
    endloop
  endfacet
  facet normal 0.975702 0.2191 0
    outer loop
      vertex 0.980785 0.19509 12.85
      vertex 0.980785 0.19509 2.7
      vertex 0.970031 0.24298 12.85
    endloop
  endfacet
  facet normal 0.963776 0.266712 0
    outer loop
      vertex 0.970031 0.24298 2.7
      vertex 0.95694 0.290285 2.7
      vertex 0.95694 0.290285 12.85
    endloop
  endfacet
  facet normal 0.963776 0.266712 0
    outer loop
      vertex 0.970031 0.24298 12.85
      vertex 0.970031 0.24298 2.7
      vertex 0.95694 0.290285 12.85
    endloop
  endfacet
  facet normal 0.949529 0.313678 0
    outer loop
      vertex 0.95694 0.290285 2.7
      vertex 0.941544 0.33689 2.7
      vertex 0.941544 0.33689 12.85
    endloop
  endfacet
  facet normal 0.949529 0.313678 0
    outer loop
      vertex 0.95694 0.290285 12.85
      vertex 0.95694 0.290285 2.7
      vertex 0.941544 0.33689 12.85
    endloop
  endfacet
  facet normal 0.932995 0.35989 0
    outer loop
      vertex 0.941544 0.33689 2.7
      vertex 0.92388 0.382683 2.7
      vertex 0.92388 0.382683 12.85
    endloop
  endfacet
  facet normal 0.932995 0.35989 0
    outer loop
      vertex 0.941544 0.33689 12.85
      vertex 0.941544 0.33689 2.7
      vertex 0.92388 0.382683 12.85
    endloop
  endfacet
  facet normal 0.914205 0.405252 0
    outer loop
      vertex 0.92388 0.382683 2.7
      vertex 0.903989 0.427555 2.7
      vertex 0.903989 0.427555 12.85
    endloop
  endfacet
  facet normal 0.914205 0.405252 0
    outer loop
      vertex 0.92388 0.382683 12.85
      vertex 0.92388 0.382683 2.7
      vertex 0.903989 0.427555 12.85
    endloop
  endfacet
  facet normal 0.893226 0.449608 0
    outer loop
      vertex 0.903989 0.427555 2.7
      vertex 0.881921 0.471397 2.7
      vertex 0.881921 0.471397 12.85
    endloop
  endfacet
  facet normal 0.893226 0.449608 0
    outer loop
      vertex 0.903989 0.427555 12.85
      vertex 0.903989 0.427555 2.7
      vertex 0.881921 0.471397 12.85
    endloop
  endfacet
  facet normal 0.870093 0.492888 0
    outer loop
      vertex 0.881921 0.471397 2.7
      vertex 0.857729 0.514103 2.7
      vertex 0.857729 0.514103 12.85
    endloop
  endfacet
  facet normal 0.870093 0.492888 0
    outer loop
      vertex 0.881921 0.471397 12.85
      vertex 0.881921 0.471397 2.7
      vertex 0.857729 0.514103 12.85
    endloop
  endfacet
  facet normal 0.844851 0.535002 0
    outer loop
      vertex 0.857729 0.514103 2.7
      vertex 0.83147 0.55557 2.7
      vertex 0.83147 0.55557 12.85
    endloop
  endfacet
  facet normal 0.844851 0.535002 0
    outer loop
      vertex 0.857729 0.514103 12.85
      vertex 0.857729 0.514103 2.7
      vertex 0.83147 0.55557 12.85
    endloop
  endfacet
  facet normal 0.817585 0.575808 0
    outer loop
      vertex 0.83147 0.55557 2.7
      vertex 0.803208 0.595699 2.7
      vertex 0.803208 0.595699 12.85
    endloop
  endfacet
  facet normal 0.817585 0.575808 0
    outer loop
      vertex 0.83147 0.55557 12.85
      vertex 0.83147 0.55557 2.7
      vertex 0.803208 0.595699 12.85
    endloop
  endfacet
  facet normal 0.788337 0.615243 0
    outer loop
      vertex 0.803208 0.595699 2.7
      vertex 0.77301 0.634393 2.7
      vertex 0.77301 0.634393 12.85
    endloop
  endfacet
  facet normal 0.788337 0.615243 0
    outer loop
      vertex 0.803208 0.595699 12.85
      vertex 0.803208 0.595699 2.7
      vertex 0.77301 0.634393 12.85
    endloop
  endfacet
  facet normal 0.757215 0.653166 0
    outer loop
      vertex 0.77301 0.634393 2.7
      vertex 0.740951 0.671559 2.7
      vertex 0.740951 0.671559 12.85
    endloop
  endfacet
  facet normal 0.757215 0.653166 0
    outer loop
      vertex 0.77301 0.634393 12.85
      vertex 0.77301 0.634393 2.7
      vertex 0.740951 0.671559 12.85
    endloop
  endfacet
  facet normal 0.724252 0.689535 0
    outer loop
      vertex 0.740951 0.671559 2.7
      vertex 0.707107 0.707107 2.7
      vertex 0.707107 0.707107 12.85
    endloop
  endfacet
  facet normal 0.724252 0.689535 0
    outer loop
      vertex 0.740951 0.671559 12.85
      vertex 0.740951 0.671559 2.7
      vertex 0.707107 0.707107 12.85
    endloop
  endfacet
  facet normal 0.689535 0.724252 0
    outer loop
      vertex 0.671559 0.740951 2.7
      vertex 0.671559 0.740951 12.85
      vertex 0.707107 0.707107 2.7
    endloop
  endfacet
  facet normal 0.689535 0.724252 0
    outer loop
      vertex 0.707107 0.707107 2.7
      vertex 0.671559 0.740951 12.85
      vertex 0.707107 0.707107 12.85
    endloop
  endfacet
  facet normal 0.653166 0.757215 0
    outer loop
      vertex 0.634393 0.77301 2.7
      vertex 0.634393 0.77301 12.85
      vertex 0.671559 0.740951 2.7
    endloop
  endfacet
  facet normal 0.653166 0.757215 0
    outer loop
      vertex 0.671559 0.740951 2.7
      vertex 0.634393 0.77301 12.85
      vertex 0.671559 0.740951 12.85
    endloop
  endfacet
  facet normal 0.615243 0.788337 0
    outer loop
      vertex 0.595699 0.803208 2.7
      vertex 0.595699 0.803208 12.85
      vertex 0.634393 0.77301 2.7
    endloop
  endfacet
  facet normal 0.615243 0.788337 0
    outer loop
      vertex 0.634393 0.77301 2.7
      vertex 0.595699 0.803208 12.85
      vertex 0.634393 0.77301 12.85
    endloop
  endfacet
  facet normal 0.575808 0.817585 0
    outer loop
      vertex 0.55557 0.83147 2.7
      vertex 0.55557 0.83147 12.85
      vertex 0.595699 0.803208 2.7
    endloop
  endfacet
  facet normal 0.575808 0.817585 0
    outer loop
      vertex 0.595699 0.803208 2.7
      vertex 0.55557 0.83147 12.85
      vertex 0.595699 0.803208 12.85
    endloop
  endfacet
  facet normal 0.535002 0.844851 0
    outer loop
      vertex 0.514103 0.857729 2.7
      vertex 0.514103 0.857729 12.85
      vertex 0.55557 0.83147 2.7
    endloop
  endfacet
  facet normal 0.535002 0.844851 0
    outer loop
      vertex 0.55557 0.83147 2.7
      vertex 0.514103 0.857729 12.85
      vertex 0.55557 0.83147 12.85
    endloop
  endfacet
  facet normal 0.492888 0.870093 0
    outer loop
      vertex 0.471397 0.881921 2.7
      vertex 0.471397 0.881921 12.85
      vertex 0.514103 0.857729 2.7
    endloop
  endfacet
  facet normal 0.492888 0.870093 0
    outer loop
      vertex 0.514103 0.857729 2.7
      vertex 0.471397 0.881921 12.85
      vertex 0.514103 0.857729 12.85
    endloop
  endfacet
  facet normal 0.449608 0.893226 0
    outer loop
      vertex 0.427555 0.903989 2.7
      vertex 0.427555 0.903989 12.85
      vertex 0.471397 0.881921 2.7
    endloop
  endfacet
  facet normal 0.449608 0.893226 0
    outer loop
      vertex 0.471397 0.881921 2.7
      vertex 0.427555 0.903989 12.85
      vertex 0.471397 0.881921 12.85
    endloop
  endfacet
  facet normal 0.405252 0.914205 0
    outer loop
      vertex 0.382683 0.92388 2.7
      vertex 0.382683 0.92388 12.85
      vertex 0.427555 0.903989 2.7
    endloop
  endfacet
  facet normal 0.405252 0.914205 0
    outer loop
      vertex 0.427555 0.903989 2.7
      vertex 0.382683 0.92388 12.85
      vertex 0.427555 0.903989 12.85
    endloop
  endfacet
  facet normal 0.35989 0.932995 0
    outer loop
      vertex 0.33689 0.941544 2.7
      vertex 0.33689 0.941544 12.85
      vertex 0.382683 0.92388 2.7
    endloop
  endfacet
  facet normal 0.35989 0.932995 0
    outer loop
      vertex 0.382683 0.92388 2.7
      vertex 0.33689 0.941544 12.85
      vertex 0.382683 0.92388 12.85
    endloop
  endfacet
  facet normal 0.313678 0.949529 0
    outer loop
      vertex 0.290285 0.95694 2.7
      vertex 0.290285 0.95694 12.85
      vertex 0.33689 0.941544 2.7
    endloop
  endfacet
  facet normal 0.313678 0.949529 0
    outer loop
      vertex 0.33689 0.941544 2.7
      vertex 0.290285 0.95694 12.85
      vertex 0.33689 0.941544 12.85
    endloop
  endfacet
  facet normal 0.266712 0.963776 0
    outer loop
      vertex 0.24298 0.970031 2.7
      vertex 0.24298 0.970031 12.85
      vertex 0.290285 0.95694 2.7
    endloop
  endfacet
  facet normal 0.266712 0.963776 0
    outer loop
      vertex 0.290285 0.95694 2.7
      vertex 0.24298 0.970031 12.85
      vertex 0.290285 0.95694 12.85
    endloop
  endfacet
  facet normal 0.2191 0.975702 0
    outer loop
      vertex 0.19509 0.980785 2.7
      vertex 0.19509 0.980785 12.85
      vertex 0.24298 0.970031 2.7
    endloop
  endfacet
  facet normal 0.2191 0.975702 0
    outer loop
      vertex 0.24298 0.970031 2.7
      vertex 0.19509 0.980785 12.85
      vertex 0.24298 0.970031 12.85
    endloop
  endfacet
  facet normal 0.170977 0.985275 0
    outer loop
      vertex 0.14673 0.989177 2.7
      vertex 0.14673 0.989177 12.85
      vertex 0.19509 0.980785 2.7
    endloop
  endfacet
  facet normal 0.170977 0.985275 0
    outer loop
      vertex 0.19509 0.980785 2.7
      vertex 0.14673 0.989177 12.85
      vertex 0.19509 0.980785 12.85
    endloop
  endfacet
  facet normal 0.122407 0.99248 0
    outer loop
      vertex 0.098017 0.995185 2.7
      vertex 0.098017 0.995185 12.85
      vertex 0.14673 0.989177 2.7
    endloop
  endfacet
  facet normal 0.122407 0.99248 0
    outer loop
      vertex 0.14673 0.989177 2.7
      vertex 0.098017 0.995185 12.85
      vertex 0.14673 0.989177 12.85
    endloop
  endfacet
  facet normal 0.0735505 0.997291 0
    outer loop
      vertex 0.049068 0.998795 2.7
      vertex 0.049068 0.998795 12.85
      vertex 0.098017 0.995185 2.7
    endloop
  endfacet
  facet normal 0.0735505 0.997291 0
    outer loop
      vertex 0.098017 0.995185 2.7
      vertex 0.049068 0.998795 12.85
      vertex 0.098017 0.995185 12.85
    endloop
  endfacet
  facet normal 0.0245504 0.999699 0
    outer loop
      vertex 0 1 2.7
      vertex 0 1 12.85
      vertex 0.049068 0.998795 2.7
    endloop
  endfacet
  facet normal 0.0245504 0.999699 0
    outer loop
      vertex 0.049068 0.998795 2.7
      vertex 0 1 12.85
      vertex 0.049068 0.998795 12.85
    endloop
  endfacet
  facet normal -0.0245504 0.999699 0
    outer loop
      vertex -0.049068 0.998795 2.7
      vertex -0.049068 0.998795 12.85
      vertex 0 1 2.7
    endloop
  endfacet
  facet normal -0.0245504 0.999699 0
    outer loop
      vertex 0 1 2.7
      vertex -0.049068 0.998795 12.85
      vertex 0 1 12.85
    endloop
  endfacet
  facet normal -0.0735505 0.997291 0
    outer loop
      vertex -0.098017 0.995185 2.7
      vertex -0.098017 0.995185 12.85
      vertex -0.049068 0.998795 2.7
    endloop
  endfacet
  facet normal -0.0735505 0.997291 0
    outer loop
      vertex -0.049068 0.998795 2.7
      vertex -0.098017 0.995185 12.85
      vertex -0.049068 0.998795 12.85
    endloop
  endfacet
  facet normal -0.122407 0.99248 0
    outer loop
      vertex -0.14673 0.989177 2.7
      vertex -0.14673 0.989177 12.85
      vertex -0.098017 0.995185 2.7
    endloop
  endfacet
  facet normal -0.122407 0.99248 0
    outer loop
      vertex -0.098017 0.995185 2.7
      vertex -0.14673 0.989177 12.85
      vertex -0.098017 0.995185 12.85
    endloop
  endfacet
  facet normal -0.170977 0.985275 0
    outer loop
      vertex -0.19509 0.980785 2.7
      vertex -0.19509 0.980785 12.85
      vertex -0.14673 0.989177 2.7
    endloop
  endfacet
  facet normal -0.170977 0.985275 0
    outer loop
      vertex -0.14673 0.989177 2.7
      vertex -0.19509 0.980785 12.85
      vertex -0.14673 0.989177 12.85
    endloop
  endfacet
  facet normal -0.2191 0.975702 0
    outer loop
      vertex -0.24298 0.970031 2.7
      vertex -0.24298 0.970031 12.85
      vertex -0.19509 0.980785 2.7
    endloop
  endfacet
  facet normal -0.2191 0.975702 0
    outer loop
      vertex -0.19509 0.980785 2.7
      vertex -0.24298 0.970031 12.85
      vertex -0.19509 0.980785 12.85
    endloop
  endfacet
  facet normal -0.266712 0.963776 0
    outer loop
      vertex -0.290285 0.95694 2.7
      vertex -0.290285 0.95694 12.85
      vertex -0.24298 0.970031 2.7
    endloop
  endfacet
  facet normal -0.266712 0.963776 0
    outer loop
      vertex -0.24298 0.970031 2.7
      vertex -0.290285 0.95694 12.85
      vertex -0.24298 0.970031 12.85
    endloop
  endfacet
  facet normal -0.313678 0.949529 0
    outer loop
      vertex -0.33689 0.941544 2.7
      vertex -0.33689 0.941544 12.85
      vertex -0.290285 0.95694 2.7
    endloop
  endfacet
  facet normal -0.313678 0.949529 0
    outer loop
      vertex -0.290285 0.95694 2.7
      vertex -0.33689 0.941544 12.85
      vertex -0.290285 0.95694 12.85
    endloop
  endfacet
  facet normal -0.35989 0.932995 0
    outer loop
      vertex -0.382683 0.92388 2.7
      vertex -0.382683 0.92388 12.85
      vertex -0.33689 0.941544 2.7
    endloop
  endfacet
  facet normal -0.35989 0.932995 0
    outer loop
      vertex -0.33689 0.941544 2.7
      vertex -0.382683 0.92388 12.85
      vertex -0.33689 0.941544 12.85
    endloop
  endfacet
  facet normal -0.405252 0.914205 0
    outer loop
      vertex -0.427555 0.903989 2.7
      vertex -0.427555 0.903989 12.85
      vertex -0.382683 0.92388 2.7
    endloop
  endfacet
  facet normal -0.405252 0.914205 0
    outer loop
      vertex -0.382683 0.92388 2.7
      vertex -0.427555 0.903989 12.85
      vertex -0.382683 0.92388 12.85
    endloop
  endfacet
  facet normal -0.449608 0.893226 0
    outer loop
      vertex -0.471397 0.881921 2.7
      vertex -0.471397 0.881921 12.85
      vertex -0.427555 0.903989 2.7
    endloop
  endfacet
  facet normal -0.449608 0.893226 0
    outer loop
      vertex -0.427555 0.903989 2.7
      vertex -0.471397 0.881921 12.85
      vertex -0.427555 0.903989 12.85
    endloop
  endfacet
  facet normal -0.492888 0.870093 0
    outer loop
      vertex -0.514103 0.857729 2.7
      vertex -0.514103 0.857729 12.85
      vertex -0.471397 0.881921 2.7
    endloop
  endfacet
  facet normal -0.492888 0.870093 0
    outer loop
      vertex -0.471397 0.881921 2.7
      vertex -0.514103 0.857729 12.85
      vertex -0.471397 0.881921 12.85
    endloop
  endfacet
  facet normal -0.535002 0.844851 0
    outer loop
      vertex -0.55557 0.83147 2.7
      vertex -0.55557 0.83147 12.85
      vertex -0.514103 0.857729 2.7
    endloop
  endfacet
  facet normal -0.535002 0.844851 0
    outer loop
      vertex -0.514103 0.857729 2.7
      vertex -0.55557 0.83147 12.85
      vertex -0.514103 0.857729 12.85
    endloop
  endfacet
  facet normal -0.575808 0.817585 0
    outer loop
      vertex -0.595699 0.803208 2.7
      vertex -0.595699 0.803208 12.85
      vertex -0.55557 0.83147 2.7
    endloop
  endfacet
  facet normal -0.575808 0.817585 0
    outer loop
      vertex -0.55557 0.83147 2.7
      vertex -0.595699 0.803208 12.85
      vertex -0.55557 0.83147 12.85
    endloop
  endfacet
  facet normal -0.615243 0.788337 0
    outer loop
      vertex -0.634393 0.77301 2.7
      vertex -0.634393 0.77301 12.85
      vertex -0.595699 0.803208 2.7
    endloop
  endfacet
  facet normal -0.615243 0.788337 0
    outer loop
      vertex -0.595699 0.803208 2.7
      vertex -0.634393 0.77301 12.85
      vertex -0.595699 0.803208 12.85
    endloop
  endfacet
  facet normal -0.653166 0.757215 0
    outer loop
      vertex -0.671559 0.740951 2.7
      vertex -0.671559 0.740951 12.85
      vertex -0.634393 0.77301 2.7
    endloop
  endfacet
  facet normal -0.653166 0.757215 0
    outer loop
      vertex -0.634393 0.77301 2.7
      vertex -0.671559 0.740951 12.85
      vertex -0.634393 0.77301 12.85
    endloop
  endfacet
  facet normal -0.689535 0.724252 0
    outer loop
      vertex -0.707107 0.707107 2.7
      vertex -0.707107 0.707107 12.85
      vertex -0.671559 0.740951 2.7
    endloop
  endfacet
  facet normal -0.689535 0.724252 0
    outer loop
      vertex -0.671559 0.740951 2.7
      vertex -0.707107 0.707107 12.85
      vertex -0.671559 0.740951 12.85
    endloop
  endfacet
  facet normal -0.724252 0.689535 0
    outer loop
      vertex -0.740951 0.671559 2.7
      vertex -0.740951 0.671559 12.85
      vertex -0.707107 0.707107 2.7
    endloop
  endfacet
  facet normal -0.724252 0.689535 0
    outer loop
      vertex -0.707107 0.707107 2.7
      vertex -0.740951 0.671559 12.85
      vertex -0.707107 0.707107 12.85
    endloop
  endfacet
  facet normal -0.757215 0.653166 0
    outer loop
      vertex -0.77301 0.634393 2.7
      vertex -0.77301 0.634393 12.85
      vertex -0.740951 0.671559 2.7
    endloop
  endfacet
  facet normal -0.757215 0.653166 0
    outer loop
      vertex -0.740951 0.671559 2.7
      vertex -0.77301 0.634393 12.85
      vertex -0.740951 0.671559 12.85
    endloop
  endfacet
  facet normal -0.788337 0.615243 0
    outer loop
      vertex -0.803208 0.595699 2.7
      vertex -0.803208 0.595699 12.85
      vertex -0.77301 0.634393 2.7
    endloop
  endfacet
  facet normal -0.788337 0.615243 0
    outer loop
      vertex -0.77301 0.634393 2.7
      vertex -0.803208 0.595699 12.85
      vertex -0.77301 0.634393 12.85
    endloop
  endfacet
  facet normal -0.817585 0.575808 0
    outer loop
      vertex -0.83147 0.55557 2.7
      vertex -0.83147 0.55557 12.85
      vertex -0.803208 0.595699 2.7
    endloop
  endfacet
  facet normal -0.817585 0.575808 0
    outer loop
      vertex -0.803208 0.595699 2.7
      vertex -0.83147 0.55557 12.85
      vertex -0.803208 0.595699 12.85
    endloop
  endfacet
  facet normal -0.844851 0.535002 0
    outer loop
      vertex -0.857729 0.514103 2.7
      vertex -0.857729 0.514103 12.85
      vertex -0.83147 0.55557 2.7
    endloop
  endfacet
  facet normal -0.844851 0.535002 0
    outer loop
      vertex -0.83147 0.55557 2.7
      vertex -0.857729 0.514103 12.85
      vertex -0.83147 0.55557 12.85
    endloop
  endfacet
  facet normal -0.870093 0.492888 0
    outer loop
      vertex -0.881921 0.471397 2.7
      vertex -0.881921 0.471397 12.85
      vertex -0.857729 0.514103 2.7
    endloop
  endfacet
  facet normal -0.870093 0.492888 0
    outer loop
      vertex -0.857729 0.514103 2.7
      vertex -0.881921 0.471397 12.85
      vertex -0.857729 0.514103 12.85
    endloop
  endfacet
  facet normal -0.893226 0.449608 0
    outer loop
      vertex -0.903989 0.427555 2.7
      vertex -0.903989 0.427555 12.85
      vertex -0.881921 0.471397 2.7
    endloop
  endfacet
  facet normal -0.893226 0.449608 0
    outer loop
      vertex -0.881921 0.471397 2.7
      vertex -0.903989 0.427555 12.85
      vertex -0.881921 0.471397 12.85
    endloop
  endfacet
  facet normal -0.914205 0.405252 0
    outer loop
      vertex -0.92388 0.382683 2.7
      vertex -0.92388 0.382683 12.85
      vertex -0.903989 0.427555 2.7
    endloop
  endfacet
  facet normal -0.914205 0.405252 0
    outer loop
      vertex -0.903989 0.427555 2.7
      vertex -0.92388 0.382683 12.85
      vertex -0.903989 0.427555 12.85
    endloop
  endfacet
  facet normal -0.932995 0.35989 0
    outer loop
      vertex -0.941544 0.33689 2.7
      vertex -0.941544 0.33689 12.85
      vertex -0.92388 0.382683 2.7
    endloop
  endfacet
  facet normal -0.932995 0.35989 0
    outer loop
      vertex -0.92388 0.382683 2.7
      vertex -0.941544 0.33689 12.85
      vertex -0.92388 0.382683 12.85
    endloop
  endfacet
  facet normal -0.949529 0.313678 0
    outer loop
      vertex -0.95694 0.290285 2.7
      vertex -0.95694 0.290285 12.85
      vertex -0.941544 0.33689 2.7
    endloop
  endfacet
  facet normal -0.949529 0.313678 0
    outer loop
      vertex -0.941544 0.33689 2.7
      vertex -0.95694 0.290285 12.85
      vertex -0.941544 0.33689 12.85
    endloop
  endfacet
  facet normal -0.963776 0.266712 0
    outer loop
      vertex -0.970031 0.24298 2.7
      vertex -0.970031 0.24298 12.85
      vertex -0.95694 0.290285 2.7
    endloop
  endfacet
  facet normal -0.963776 0.266712 0
    outer loop
      vertex -0.95694 0.290285 2.7
      vertex -0.970031 0.24298 12.85
      vertex -0.95694 0.290285 12.85
    endloop
  endfacet
  facet normal -0.975702 0.2191 0
    outer loop
      vertex -0.980785 0.19509 2.7
      vertex -0.980785 0.19509 12.85
      vertex -0.970031 0.24298 2.7
    endloop
  endfacet
  facet normal -0.975702 0.2191 0
    outer loop
      vertex -0.970031 0.24298 2.7
      vertex -0.980785 0.19509 12.85
      vertex -0.970031 0.24298 12.85
    endloop
  endfacet
  facet normal -0.985275 0.170977 0
    outer loop
      vertex -0.989177 0.14673 2.7
      vertex -0.989177 0.14673 12.85
      vertex -0.980785 0.19509 2.7
    endloop
  endfacet
  facet normal -0.985275 0.170977 0
    outer loop
      vertex -0.980785 0.19509 2.7
      vertex -0.989177 0.14673 12.85
      vertex -0.980785 0.19509 12.85
    endloop
  endfacet
  facet normal -0.99248 0.122407 0
    outer loop
      vertex -0.995185 0.098017 2.7
      vertex -0.995185 0.098017 12.85
      vertex -0.989177 0.14673 2.7
    endloop
  endfacet
  facet normal -0.99248 0.122407 0
    outer loop
      vertex -0.989177 0.14673 2.7
      vertex -0.995185 0.098017 12.85
      vertex -0.989177 0.14673 12.85
    endloop
  endfacet
  facet normal -0.997291 0.0735505 0
    outer loop
      vertex -0.998795 0.049068 2.7
      vertex -0.998795 0.049068 12.85
      vertex -0.995185 0.098017 2.7
    endloop
  endfacet
  facet normal -0.997291 0.0735505 0
    outer loop
      vertex -0.995185 0.098017 2.7
      vertex -0.998795 0.049068 12.85
      vertex -0.995185 0.098017 12.85
    endloop
  endfacet
  facet normal 0 0 1
    outer loop
      vertex -0.998795 0.049068 12.85
      vertex -1 0 12.85
      vertex -0.998795 -0.049068 12.85
    endloop
  endfacet
  facet normal 0 0 1
    outer loop
      vertex -0.989177 -0.14673 12.85
      vertex -0.998795 0.049068 12.85
      vertex -0.995185 -0.098017 12.85
    endloop
  endfacet
  facet normal 0 0 1
    outer loop
      vertex -0.995185 -0.098017 12.85
      vertex -0.998795 0.049068 12.85
      vertex -0.998795 -0.049068 12.85
    endloop
  endfacet
  facet normal 0 0 1
    outer loop
      vertex -0.980785 -0.19509 12.85
      vertex -0.998795 0.049068 12.85
      vertex -0.989177 -0.14673 12.85
    endloop
  endfacet
  facet normal 0 0 1
    outer loop
      vertex -0.970031 -0.24298 12.85
      vertex -0.998795 0.049068 12.85
      vertex -0.980785 -0.19509 12.85
    endloop
  endfacet
  facet normal 0 0 1
    outer loop
      vertex -0.95694 -0.290285 12.85
      vertex -0.998795 0.049068 12.85
      vertex -0.970031 -0.24298 12.85
    endloop
  endfacet
  facet normal 0 0 1
    outer loop
      vertex -0.941544 -0.33689 12.85
      vertex -0.998795 0.049068 12.85
      vertex -0.95694 -0.290285 12.85
    endloop
  endfacet
  facet normal 0 0 1
    outer loop
      vertex -0.92388 -0.382683 12.85
      vertex -0.998795 0.049068 12.85
      vertex -0.941544 -0.33689 12.85
    endloop
  endfacet
  facet normal 0 0 1
    outer loop
      vertex -0.903989 -0.427555 12.85
      vertex -0.998795 0.049068 12.85
      vertex -0.92388 -0.382683 12.85
    endloop
  endfacet
  facet normal 0 0 1
    outer loop
      vertex -0.881921 -0.471397 12.85
      vertex -0.998795 0.049068 12.85
      vertex -0.903989 -0.427555 12.85
    endloop
  endfacet
  facet normal 0 0 1
    outer loop
      vertex -0.857729 -0.514103 12.85
      vertex -0.998795 0.049068 12.85
      vertex -0.881921 -0.471397 12.85
    endloop
  endfacet
  facet normal 0 0 1
    outer loop
      vertex -0.83147 -0.55557 12.85
      vertex -0.998795 0.049068 12.85
      vertex -0.857729 -0.514103 12.85
    endloop
  endfacet
  facet normal 0 0 1
    outer loop
      vertex -0.803208 -0.595699 12.85
      vertex -0.998795 0.049068 12.85
      vertex -0.83147 -0.55557 12.85
    endloop
  endfacet
  facet normal 0 0 1
    outer loop
      vertex -0.77301 -0.634393 12.85
      vertex -0.998795 0.049068 12.85
      vertex -0.803208 -0.595699 12.85
    endloop
  endfacet
  facet normal 0 0 1
    outer loop
      vertex -0.740951 -0.671559 12.85
      vertex -0.998795 0.049068 12.85
      vertex -0.77301 -0.634393 12.85
    endloop
  endfacet
  facet normal 0 0 1
    outer loop
      vertex -0.707107 -0.707107 12.85
      vertex -0.998795 0.049068 12.85
      vertex -0.740951 -0.671559 12.85
    endloop
  endfacet
  facet normal 0 0 1
    outer loop
      vertex -0.671559 -0.740951 12.85
      vertex -0.998795 0.049068 12.85
      vertex -0.707107 -0.707107 12.85
    endloop
  endfacet
  facet normal 0 0 1
    outer loop
      vertex -0.634393 -0.77301 12.85
      vertex -0.998795 0.049068 12.85
      vertex -0.671559 -0.740951 12.85
    endloop
  endfacet
  facet normal 0 0 1
    outer loop
      vertex -0.595699 -0.803208 12.85
      vertex -0.998795 0.049068 12.85
      vertex -0.634393 -0.77301 12.85
    endloop
  endfacet
  facet normal 0 0 1
    outer loop
      vertex -0.55557 -0.83147 12.85
      vertex -0.998795 0.049068 12.85
      vertex -0.595699 -0.803208 12.85
    endloop
  endfacet
  facet normal 0 0 1
    outer loop
      vertex -0.514103 -0.857729 12.85
      vertex -0.998795 0.049068 12.85
      vertex -0.55557 -0.83147 12.85
    endloop
  endfacet
  facet normal 0 0 1
    outer loop
      vertex -0.471397 -0.881921 12.85
      vertex -0.998795 0.049068 12.85
      vertex -0.514103 -0.857729 12.85
    endloop
  endfacet
  facet normal 0 0 1
    outer loop
      vertex -0.427555 -0.903989 12.85
      vertex -0.998795 0.049068 12.85
      vertex -0.471397 -0.881921 12.85
    endloop
  endfacet
  facet normal 0 0 1
    outer loop
      vertex -0.382683 -0.92388 12.85
      vertex -0.998795 0.049068 12.85
      vertex -0.427555 -0.903989 12.85
    endloop
  endfacet
  facet normal 0 0 1
    outer loop
      vertex -0.33689 -0.941544 12.85
      vertex -0.998795 0.049068 12.85
      vertex -0.382683 -0.92388 12.85
    endloop
  endfacet
  facet normal 0 0 1
    outer loop
      vertex -0.290285 -0.95694 12.85
      vertex -0.998795 0.049068 12.85
      vertex -0.33689 -0.941544 12.85
    endloop
  endfacet
  facet normal 0 0 1
    outer loop
      vertex -0.24298 -0.970031 12.85
      vertex -0.998795 0.049068 12.85
      vertex -0.290285 -0.95694 12.85
    endloop
  endfacet
  facet normal 0 0 1
    outer loop
      vertex -0.19509 -0.980785 12.85
      vertex -0.998795 0.049068 12.85
      vertex -0.24298 -0.970031 12.85
    endloop
  endfacet
  facet normal 0 0 1
    outer loop
      vertex -0.14673 -0.989177 12.85
      vertex -0.998795 0.049068 12.85
      vertex -0.19509 -0.980785 12.85
    endloop
  endfacet
  facet normal 0 0 1
    outer loop
      vertex -0.098017 -0.995185 12.85
      vertex -0.998795 0.049068 12.85
      vertex -0.14673 -0.989177 12.85
    endloop
  endfacet
  facet normal 0 0 1
    outer loop
      vertex -0.049068 -0.998795 12.85
      vertex -0.998795 0.049068 12.85
      vertex -0.098017 -0.995185 12.85
    endloop
  endfacet
  facet normal 0 0 1
    outer loop
      vertex 0 -1 12.85
      vertex -0.998795 0.049068 12.85
      vertex -0.049068 -0.998795 12.85
    endloop
  endfacet
  facet normal 0 0 1
    outer loop
      vertex 0.049068 -0.998795 12.85
      vertex -0.998795 0.049068 12.85
      vertex 0 -1 12.85
    endloop
  endfacet
  facet normal 0 0 1
    outer loop
      vertex 0.098017 -0.995185 12.85
      vertex -0.998795 0.049068 12.85
      vertex 0.049068 -0.998795 12.85
    endloop
  endfacet
  facet normal 0 0 1
    outer loop
      vertex 0.14673 -0.989177 12.85
      vertex -0.998795 0.049068 12.85
      vertex 0.098017 -0.995185 12.85
    endloop
  endfacet
  facet normal 0 0 1
    outer loop
      vertex 0.19509 -0.980785 12.85
      vertex -0.998795 0.049068 12.85
      vertex 0.14673 -0.989177 12.85
    endloop
  endfacet
  facet normal 0 0 1
    outer loop
      vertex 0.24298 -0.970031 12.85
      vertex -0.998795 0.049068 12.85
      vertex 0.19509 -0.980785 12.85
    endloop
  endfacet
  facet normal 0 0 1
    outer loop
      vertex 0.290285 -0.95694 12.85
      vertex -0.998795 0.049068 12.85
      vertex 0.24298 -0.970031 12.85
    endloop
  endfacet
  facet normal 0 0 1
    outer loop
      vertex 0.33689 -0.941544 12.85
      vertex -0.998795 0.049068 12.85
      vertex 0.290285 -0.95694 12.85
    endloop
  endfacet
  facet normal 0 0 1
    outer loop
      vertex 0.382683 -0.92388 12.85
      vertex -0.998795 0.049068 12.85
      vertex 0.33689 -0.941544 12.85
    endloop
  endfacet
  facet normal 0 0 1
    outer loop
      vertex 0.427555 -0.903989 12.85
      vertex -0.998795 0.049068 12.85
      vertex 0.382683 -0.92388 12.85
    endloop
  endfacet
  facet normal 0 0 1
    outer loop
      vertex 0.471397 -0.881921 12.85
      vertex -0.998795 0.049068 12.85
      vertex 0.427555 -0.903989 12.85
    endloop
  endfacet
  facet normal 0 0 1
    outer loop
      vertex 0.514103 -0.857729 12.85
      vertex -0.998795 0.049068 12.85
      vertex 0.471397 -0.881921 12.85
    endloop
  endfacet
  facet normal 0 0 1
    outer loop
      vertex 0.55557 -0.83147 12.85
      vertex -0.998795 0.049068 12.85
      vertex 0.514103 -0.857729 12.85
    endloop
  endfacet
  facet normal 0 0 1
    outer loop
      vertex 0.595699 -0.803208 12.85
      vertex -0.998795 0.049068 12.85
      vertex 0.55557 -0.83147 12.85
    endloop
  endfacet
  facet normal 0 0 1
    outer loop
      vertex 0.634393 -0.77301 12.85
      vertex -0.998795 0.049068 12.85
      vertex 0.595699 -0.803208 12.85
    endloop
  endfacet
  facet normal 0 0 1
    outer loop
      vertex 0.671559 -0.740951 12.85
      vertex -0.998795 0.049068 12.85
      vertex 0.634393 -0.77301 12.85
    endloop
  endfacet
  facet normal 0 0 1
    outer loop
      vertex 0.707107 -0.707107 12.85
      vertex -0.998795 0.049068 12.85
      vertex 0.671559 -0.740951 12.85
    endloop
  endfacet
  facet normal 0 0 1
    outer loop
      vertex 0.740951 -0.671559 12.85
      vertex -0.998795 0.049068 12.85
      vertex 0.707107 -0.707107 12.85
    endloop
  endfacet
  facet normal 0 0 1
    outer loop
      vertex 0.77301 -0.634393 12.85
      vertex -0.998795 0.049068 12.85
      vertex 0.740951 -0.671559 12.85
    endloop
  endfacet
  facet normal 0 0 1
    outer loop
      vertex 0.803208 -0.595699 12.85
      vertex -0.998795 0.049068 12.85
      vertex 0.77301 -0.634393 12.85
    endloop
  endfacet
  facet normal 0 0 1
    outer loop
      vertex 0.83147 -0.55557 12.85
      vertex -0.998795 0.049068 12.85
      vertex 0.803208 -0.595699 12.85
    endloop
  endfacet
  facet normal 0 0 1
    outer loop
      vertex 0.857729 -0.514103 12.85
      vertex -0.998795 0.049068 12.85
      vertex 0.83147 -0.55557 12.85
    endloop
  endfacet
  facet normal 0 0 1
    outer loop
      vertex 0.881921 -0.471397 12.85
      vertex -0.998795 0.049068 12.85
      vertex 0.857729 -0.514103 12.85
    endloop
  endfacet
  facet normal 0 0 1
    outer loop
      vertex 0.903989 -0.427555 12.85
      vertex -0.998795 0.049068 12.85
      vertex 0.881921 -0.471397 12.85
    endloop
  endfacet
  facet normal 0 0 1
    outer loop
      vertex 0.92388 -0.382683 12.85
      vertex -0.998795 0.049068 12.85
      vertex 0.903989 -0.427555 12.85
    endloop
  endfacet
  facet normal 0 0 1
    outer loop
      vertex 0.941544 -0.33689 12.85
      vertex -0.998795 0.049068 12.85
      vertex 0.92388 -0.382683 12.85
    endloop
  endfacet
  facet normal 0 0 1
    outer loop
      vertex 0.95694 -0.290285 12.85
      vertex -0.998795 0.049068 12.85
      vertex 0.941544 -0.33689 12.85
    endloop
  endfacet
  facet normal 0 0 1
    outer loop
      vertex 0.970031 -0.24298 12.85
      vertex -0.998795 0.049068 12.85
      vertex 0.95694 -0.290285 12.85
    endloop
  endfacet
  facet normal 0 0 1
    outer loop
      vertex 0.980785 -0.19509 12.85
      vertex -0.998795 0.049068 12.85
      vertex 0.970031 -0.24298 12.85
    endloop
  endfacet
  facet normal 0 0 1
    outer loop
      vertex 0.989177 -0.14673 12.85
      vertex -0.998795 0.049068 12.85
      vertex 0.980785 -0.19509 12.85
    endloop
  endfacet
  facet normal 0 0 1
    outer loop
      vertex 0.995185 -0.098017 12.85
      vertex -0.998795 0.049068 12.85
      vertex 0.989177 -0.14673 12.85
    endloop
  endfacet
  facet normal 0 0 1
    outer loop
      vertex 0.998795 -0.049068 12.85
      vertex -0.998795 0.049068 12.85
      vertex 0.995185 -0.098017 12.85
    endloop
  endfacet
  facet normal 0 0 1
    outer loop
      vertex 1 0 12.85
      vertex -0.998795 0.049068 12.85
      vertex 0.998795 -0.049068 12.85
    endloop
  endfacet
  facet normal 0 0 1
    outer loop
      vertex 0.998795 0.049068 12.85
      vertex -0.998795 0.049068 12.85
      vertex 1 0 12.85
    endloop
  endfacet
  facet normal 0 0 1
    outer loop
      vertex 0.995185 0.098017 12.85
      vertex -0.998795 0.049068 12.85
      vertex 0.998795 0.049068 12.85
    endloop
  endfacet
  facet normal 0 0 1
    outer loop
      vertex 0.989177 0.14673 12.85
      vertex -0.998795 0.049068 12.85
      vertex 0.995185 0.098017 12.85
    endloop
  endfacet
  facet normal 0 0 1
    outer loop
      vertex 0.980785 0.19509 12.85
      vertex -0.998795 0.049068 12.85
      vertex 0.989177 0.14673 12.85
    endloop
  endfacet
  facet normal 0 0 1
    outer loop
      vertex 0.970031 0.24298 12.85
      vertex -0.998795 0.049068 12.85
      vertex 0.980785 0.19509 12.85
    endloop
  endfacet
  facet normal 0 0 1
    outer loop
      vertex 0.95694 0.290285 12.85
      vertex -0.998795 0.049068 12.85
      vertex 0.970031 0.24298 12.85
    endloop
  endfacet
  facet normal 0 0 1
    outer loop
      vertex 0.941544 0.33689 12.85
      vertex -0.998795 0.049068 12.85
      vertex 0.95694 0.290285 12.85
    endloop
  endfacet
  facet normal 0 0 1
    outer loop
      vertex 0.92388 0.382683 12.85
      vertex -0.998795 0.049068 12.85
      vertex 0.941544 0.33689 12.85
    endloop
  endfacet
  facet normal 0 0 1
    outer loop
      vertex 0.903989 0.427555 12.85
      vertex -0.998795 0.049068 12.85
      vertex 0.92388 0.382683 12.85
    endloop
  endfacet
  facet normal 0 0 1
    outer loop
      vertex 0.881921 0.471397 12.85
      vertex -0.998795 0.049068 12.85
      vertex 0.903989 0.427555 12.85
    endloop
  endfacet
  facet normal 0 0 1
    outer loop
      vertex 0.857729 0.514103 12.85
      vertex -0.998795 0.049068 12.85
      vertex 0.881921 0.471397 12.85
    endloop
  endfacet
  facet normal 0 0 1
    outer loop
      vertex 0.83147 0.55557 12.85
      vertex -0.998795 0.049068 12.85
      vertex 0.857729 0.514103 12.85
    endloop
  endfacet
  facet normal 0 0 1
    outer loop
      vertex 0.803208 0.595699 12.85
      vertex -0.998795 0.049068 12.85
      vertex 0.83147 0.55557 12.85
    endloop
  endfacet
  facet normal 0 0 1
    outer loop
      vertex 0.77301 0.634393 12.85
      vertex -0.998795 0.049068 12.85
      vertex 0.803208 0.595699 12.85
    endloop
  endfacet
  facet normal 0 0 1
    outer loop
      vertex 0.740951 0.671559 12.85
      vertex -0.998795 0.049068 12.85
      vertex 0.77301 0.634393 12.85
    endloop
  endfacet
  facet normal 0 0 1
    outer loop
      vertex 0.707107 0.707107 12.85
      vertex -0.998795 0.049068 12.85
      vertex 0.740951 0.671559 12.85
    endloop
  endfacet
  facet normal 0 0 1
    outer loop
      vertex 0.671559 0.740951 12.85
      vertex -0.998795 0.049068 12.85
      vertex 0.707107 0.707107 12.85
    endloop
  endfacet
  facet normal 0 0 1
    outer loop
      vertex 0.634393 0.77301 12.85
      vertex -0.998795 0.049068 12.85
      vertex 0.671559 0.740951 12.85
    endloop
  endfacet
  facet normal 0 0 1
    outer loop
      vertex 0.595699 0.803208 12.85
      vertex -0.998795 0.049068 12.85
      vertex 0.634393 0.77301 12.85
    endloop
  endfacet
  facet normal 0 0 1
    outer loop
      vertex 0.55557 0.83147 12.85
      vertex -0.998795 0.049068 12.85
      vertex 0.595699 0.803208 12.85
    endloop
  endfacet
  facet normal 0 0 1
    outer loop
      vertex 0.514103 0.857729 12.85
      vertex -0.998795 0.049068 12.85
      vertex 0.55557 0.83147 12.85
    endloop
  endfacet
  facet normal 0 0 1
    outer loop
      vertex 0.471397 0.881921 12.85
      vertex -0.998795 0.049068 12.85
      vertex 0.514103 0.857729 12.85
    endloop
  endfacet
  facet normal 0 0 1
    outer loop
      vertex 0.427555 0.903989 12.85
      vertex -0.998795 0.049068 12.85
      vertex 0.471397 0.881921 12.85
    endloop
  endfacet
  facet normal 0 0 1
    outer loop
      vertex 0.382683 0.92388 12.85
      vertex -0.998795 0.049068 12.85
      vertex 0.427555 0.903989 12.85
    endloop
  endfacet
  facet normal 0 0 1
    outer loop
      vertex 0.33689 0.941544 12.85
      vertex -0.998795 0.049068 12.85
      vertex 0.382683 0.92388 12.85
    endloop
  endfacet
  facet normal 0 0 1
    outer loop
      vertex 0.290285 0.95694 12.85
      vertex -0.998795 0.049068 12.85
      vertex 0.33689 0.941544 12.85
    endloop
  endfacet
  facet normal 0 0 1
    outer loop
      vertex 0.24298 0.970031 12.85
      vertex -0.998795 0.049068 12.85
      vertex 0.290285 0.95694 12.85
    endloop
  endfacet
  facet normal 0 0 1
    outer loop
      vertex 0.19509 0.980785 12.85
      vertex -0.998795 0.049068 12.85
      vertex 0.24298 0.970031 12.85
    endloop
  endfacet
  facet normal 0 0 1
    outer loop
      vertex 0.14673 0.989177 12.85
      vertex -0.998795 0.049068 12.85
      vertex 0.19509 0.980785 12.85
    endloop
  endfacet
  facet normal 0 0 1
    outer loop
      vertex 0.098017 0.995185 12.85
      vertex -0.998795 0.049068 12.85
      vertex 0.14673 0.989177 12.85
    endloop
  endfacet
  facet normal 0 0 1
    outer loop
      vertex 0.049068 0.998795 12.85
      vertex -0.998795 0.049068 12.85
      vertex 0.098017 0.995185 12.85
    endloop
  endfacet
  facet normal 0 0 1
    outer loop
      vertex 0 1 12.85
      vertex -0.998795 0.049068 12.85
      vertex 0.049068 0.998795 12.85
    endloop
  endfacet
  facet normal 0 0 1
    outer loop
      vertex -0.049068 0.998795 12.85
      vertex -0.998795 0.049068 12.85
      vertex 0 1 12.85
    endloop
  endfacet
  facet normal 0 0 1
    outer loop
      vertex -0.098017 0.995185 12.85
      vertex -0.998795 0.049068 12.85
      vertex -0.049068 0.998795 12.85
    endloop
  endfacet
  facet normal 0 0 1
    outer loop
      vertex -0.14673 0.989177 12.85
      vertex -0.998795 0.049068 12.85
      vertex -0.098017 0.995185 12.85
    endloop
  endfacet
  facet normal 0 0 1
    outer loop
      vertex -0.19509 0.980785 12.85
      vertex -0.998795 0.049068 12.85
      vertex -0.14673 0.989177 12.85
    endloop
  endfacet
  facet normal 0 0 1
    outer loop
      vertex -0.24298 0.970031 12.85
      vertex -0.998795 0.049068 12.85
      vertex -0.19509 0.980785 12.85
    endloop
  endfacet
  facet normal 0 0 1
    outer loop
      vertex -0.290285 0.95694 12.85
      vertex -0.998795 0.049068 12.85
      vertex -0.24298 0.970031 12.85
    endloop
  endfacet
  facet normal 0 0 1
    outer loop
      vertex -0.33689 0.941544 12.85
      vertex -0.998795 0.049068 12.85
      vertex -0.290285 0.95694 12.85
    endloop
  endfacet
  facet normal 0 0 1
    outer loop
      vertex -0.382683 0.92388 12.85
      vertex -0.998795 0.049068 12.85
      vertex -0.33689 0.941544 12.85
    endloop
  endfacet
  facet normal 0 0 1
    outer loop
      vertex -0.427555 0.903989 12.85
      vertex -0.998795 0.049068 12.85
      vertex -0.382683 0.92388 12.85
    endloop
  endfacet
  facet normal 0 0 1
    outer loop
      vertex -0.471397 0.881921 12.85
      vertex -0.998795 0.049068 12.85
      vertex -0.427555 0.903989 12.85
    endloop
  endfacet
  facet normal 0 0 1
    outer loop
      vertex -0.514103 0.857729 12.85
      vertex -0.998795 0.049068 12.85
      vertex -0.471397 0.881921 12.85
    endloop
  endfacet
  facet normal 0 0 1
    outer loop
      vertex -0.55557 0.83147 12.85
      vertex -0.998795 0.049068 12.85
      vertex -0.514103 0.857729 12.85
    endloop
  endfacet
  facet normal 0 0 1
    outer loop
      vertex -0.595699 0.803208 12.85
      vertex -0.998795 0.049068 12.85
      vertex -0.55557 0.83147 12.85
    endloop
  endfacet
  facet normal 0 0 1
    outer loop
      vertex -0.634393 0.77301 12.85
      vertex -0.998795 0.049068 12.85
      vertex -0.595699 0.803208 12.85
    endloop
  endfacet
  facet normal 0 0 1
    outer loop
      vertex -0.671559 0.740951 12.85
      vertex -0.998795 0.049068 12.85
      vertex -0.634393 0.77301 12.85
    endloop
  endfacet
  facet normal 0 0 1
    outer loop
      vertex -0.707107 0.707107 12.85
      vertex -0.998795 0.049068 12.85
      vertex -0.671559 0.740951 12.85
    endloop
  endfacet
  facet normal 0 0 1
    outer loop
      vertex -0.740951 0.671559 12.85
      vertex -0.998795 0.049068 12.85
      vertex -0.707107 0.707107 12.85
    endloop
  endfacet
  facet normal 0 0 1
    outer loop
      vertex -0.77301 0.634393 12.85
      vertex -0.998795 0.049068 12.85
      vertex -0.740951 0.671559 12.85
    endloop
  endfacet
  facet normal 0 0 1
    outer loop
      vertex -0.803208 0.595699 12.85
      vertex -0.998795 0.049068 12.85
      vertex -0.77301 0.634393 12.85
    endloop
  endfacet
  facet normal 0 0 1
    outer loop
      vertex -0.83147 0.55557 12.85
      vertex -0.998795 0.049068 12.85
      vertex -0.803208 0.595699 12.85
    endloop
  endfacet
  facet normal 0 0 1
    outer loop
      vertex -0.857729 0.514103 12.85
      vertex -0.998795 0.049068 12.85
      vertex -0.83147 0.55557 12.85
    endloop
  endfacet
  facet normal 0 0 1
    outer loop
      vertex -0.881921 0.471397 12.85
      vertex -0.998795 0.049068 12.85
      vertex -0.857729 0.514103 12.85
    endloop
  endfacet
  facet normal 0 0 1
    outer loop
      vertex -0.903989 0.427555 12.85
      vertex -0.998795 0.049068 12.85
      vertex -0.881921 0.471397 12.85
    endloop
  endfacet
  facet normal 0 0 1
    outer loop
      vertex -0.92388 0.382683 12.85
      vertex -0.998795 0.049068 12.85
      vertex -0.903989 0.427555 12.85
    endloop
  endfacet
  facet normal 0 0 1
    outer loop
      vertex -0.941544 0.33689 12.85
      vertex -0.998795 0.049068 12.85
      vertex -0.92388 0.382683 12.85
    endloop
  endfacet
  facet normal 0 0 1
    outer loop
      vertex -0.95694 0.290285 12.85
      vertex -0.998795 0.049068 12.85
      vertex -0.941544 0.33689 12.85
    endloop
  endfacet
  facet normal 0 0 1
    outer loop
      vertex -0.970031 0.24298 12.85
      vertex -0.998795 0.049068 12.85
      vertex -0.95694 0.290285 12.85
    endloop
  endfacet
  facet normal 0 0 1
    outer loop
      vertex -0.980785 0.19509 12.85
      vertex -0.998795 0.049068 12.85
      vertex -0.970031 0.24298 12.85
    endloop
  endfacet
  facet normal 0 0 1
    outer loop
      vertex -0.989177 0.14673 12.85
      vertex -0.998795 0.049068 12.85
      vertex -0.980785 0.19509 12.85
    endloop
  endfacet
  facet normal 0 0 1
    outer loop
      vertex -0.995185 0.098017 12.85
      vertex -0.998795 0.049068 12.85
      vertex -0.989177 0.14673 12.85
    endloop
  endfacet
endsolid OpenSCAD_Model
